<svg width="137" height="18" viewBox="0 0 137 18" fill="none" xmlns="http://www.w3.org/2000/svg">
<path d="M5.78855 1.4C7.01255 1.4 7.93656 1.67 8.56056 2.21C9.18456 2.75 9.49655 3.536 9.49655 4.568C9.49655 5.132 9.35855 5.636 9.08255 6.08C8.81855 6.524 8.42255 6.872 7.89456 7.124C8.29056 7.256 8.65656 7.46 8.99256 7.736C9.34055 8 9.62255 8.342 9.83855 8.762C10.0546 9.182 10.1626 9.692 10.1626 10.292C10.1626 11.024 10.0366 11.63 9.78456 12.11C9.53256 12.59 9.20256 12.968 8.79456 13.244C8.38655 13.52 7.93655 13.718 7.44456 13.838C6.95256 13.946 6.46055 14 5.96855 14H0.532555V1.4H5.78855ZM5.46455 3.272H2.47655V6.62H5.68055C6.17255 6.608 6.60456 6.458 6.97656 6.17C7.36056 5.882 7.55256 5.474 7.55256 4.946C7.55256 4.346 7.34856 3.92 6.94056 3.668C6.54456 3.404 6.05256 3.272 5.46455 3.272ZM5.77056 8.492H2.47655V12.128H5.86056C6.54456 12.128 7.10256 11.978 7.53456 11.678C7.96655 11.366 8.18255 10.892 8.18255 10.256C8.18255 9.8 8.05655 9.446 7.80456 9.194C7.55256 8.942 7.24056 8.762 6.86856 8.654C6.50855 8.546 6.14256 8.492 5.77056 8.492ZM17.6085 6.548C17.4885 6.488 17.3385 6.44 17.1585 6.404C16.9905 6.356 16.8105 6.332 16.6185 6.332C16.2345 6.332 15.8565 6.434 15.4845 6.638C15.1125 6.83 14.8005 7.112 14.5485 7.484C14.3085 7.844 14.1885 8.276 14.1885 8.78V14H12.3165V4.55H14.1885V6.332C14.4525 5.756 14.8485 5.282 15.3765 4.91C15.9165 4.538 16.4805 4.352 17.0685 4.352C17.5125 4.352 17.8545 4.412 18.0945 4.532L17.6085 6.548ZM28.226 9.266C28.226 10.226 28.01 11.078 27.578 11.822C27.158 12.554 26.582 13.13 25.85 13.55C25.13 13.97 24.32 14.18 23.42 14.18C22.52 14.18 21.704 13.97 20.972 13.55C20.24 13.13 19.658 12.554 19.226 11.822C18.806 11.078 18.596 10.226 18.596 9.266C18.596 8.306 18.806 7.46 19.226 6.728C19.658 5.984 20.24 5.402 20.972 4.982C21.704 4.562 22.52 4.352 23.42 4.352C24.32 4.352 25.13 4.562 25.85 4.982C26.582 5.402 27.158 5.984 27.578 6.728C28.01 7.46 28.226 8.306 28.226 9.266ZM26.336 9.266C26.348 8.63 26.222 8.072 25.958 7.592C25.706 7.1 25.358 6.722 24.914 6.458C24.47 6.182 23.972 6.044 23.42 6.044C22.868 6.044 22.364 6.182 21.908 6.458C21.464 6.722 21.11 7.1 20.846 7.592C20.594 8.072 20.474 8.63 20.486 9.266C20.474 9.89 20.594 10.448 20.846 10.94C21.11 11.42 21.464 11.798 21.908 12.074C22.364 12.35 22.868 12.488 23.42 12.488C23.972 12.488 24.47 12.35 24.914 12.074C25.358 11.798 25.706 11.42 25.958 10.94C26.222 10.448 26.348 9.89 26.336 9.266ZM42.6026 4.55L39.4166 14H38.1386L35.7266 8.51L33.4766 14H32.2166L28.9946 4.55L30.8666 4.532L32.9906 11.048L35.2586 6.044H36.3746L38.6246 10.976L40.7306 4.55H42.6026ZM49.6572 7.034C49.3212 6.698 48.9372 6.422 48.5052 6.206C48.0852 5.99 47.6952 5.882 47.3352 5.882C47.0832 5.882 46.8312 5.912 46.5792 5.972C46.3392 6.032 46.1352 6.146 45.9672 6.314C45.7992 6.47 45.7152 6.704 45.7152 7.016C45.7272 7.448 45.9192 7.754 46.2912 7.934C46.6752 8.114 47.1492 8.276 47.7132 8.42C48.2052 8.552 48.6852 8.72 49.1532 8.924C49.6212 9.116 50.0052 9.404 50.3052 9.788C50.6172 10.16 50.7732 10.688 50.7732 11.372C50.7732 11.96 50.6052 12.464 50.2692 12.884C49.9452 13.304 49.5192 13.628 48.9912 13.856C48.4752 14.072 47.9292 14.18 47.3532 14.18C46.6692 14.18 45.9912 14.06 45.3192 13.82C44.6592 13.568 44.0952 13.142 43.6272 12.542L44.8872 11.462C45.2112 11.834 45.5772 12.128 45.9852 12.344C46.4052 12.548 46.9152 12.65 47.5152 12.65C47.7432 12.65 47.9712 12.614 48.1992 12.542C48.4272 12.458 48.6192 12.332 48.7752 12.164C48.9432 11.984 49.0272 11.744 49.0272 11.444C49.0272 11.156 48.9372 10.934 48.7572 10.778C48.5892 10.61 48.3612 10.478 48.0732 10.382C47.7852 10.274 47.4672 10.178 47.1192 10.094C46.6032 9.95 46.0932 9.776 45.5892 9.572C45.0972 9.356 44.6832 9.056 44.3472 8.672C44.0232 8.276 43.8612 7.742 43.8612 7.07C43.8612 6.506 44.0172 6.026 44.3292 5.63C44.6532 5.222 45.0732 4.91 45.5892 4.694C46.1052 4.466 46.6572 4.352 47.2452 4.352C47.8092 4.352 48.4212 4.472 49.0812 4.712C49.7412 4.952 50.2872 5.336 50.7192 5.864L49.6572 7.034ZM60.9345 12.758H60.9165C60.5325 13.13 60.0045 13.46 59.3325 13.748C58.6605 14.036 57.9585 14.18 57.2265 14.18C56.2425 14.18 55.3725 13.976 54.6165 13.568C53.8725 13.148 53.2905 12.578 52.8705 11.858C52.4505 11.126 52.2405 10.298 52.2405 9.374C52.2405 8.318 52.4625 7.418 52.9065 6.674C53.3505 5.918 53.9385 5.342 54.6705 4.946C55.4025 4.538 56.2005 4.334 57.0645 4.334C57.8565 4.334 58.5765 4.532 59.2245 4.928C59.8725 5.312 60.3885 5.846 60.7725 6.53C61.1565 7.214 61.3485 8.012 61.3485 8.924L61.3305 9.716H54.0945C54.2025 10.568 54.5505 11.246 55.1385 11.75C55.7385 12.242 56.4945 12.488 57.4065 12.488C58.0665 12.488 58.6005 12.368 59.0085 12.128C59.4165 11.876 59.7525 11.636 60.0165 11.408L60.9345 12.758ZM57.0645 6.044C56.3565 6.044 55.7385 6.212 55.2105 6.548C54.6825 6.872 54.3345 7.436 54.1665 8.24H59.4585V8.114C59.4225 7.706 59.2845 7.346 59.0445 7.034C58.8165 6.722 58.5285 6.482 58.1805 6.314C57.8325 6.134 57.4605 6.044 57.0645 6.044ZM74.0063 1.4C74.6783 1.4 75.2963 1.574 75.8603 1.922C76.4243 2.258 76.8743 2.72 77.2103 3.308C77.5463 3.884 77.7143 4.538 77.7143 5.27C77.7143 5.99 77.5463 6.65 77.2103 7.25C76.8743 7.838 76.4243 8.306 75.8603 8.654C75.2963 9.002 74.6783 9.176 74.0063 9.176H70.8203V14H68.8763V1.4H74.0063ZM73.9703 7.304C74.2943 7.304 74.5883 7.214 74.8523 7.034C75.1163 6.842 75.3263 6.596 75.4823 6.296C75.6503 5.984 75.7343 5.642 75.7343 5.27C75.7343 4.706 75.5603 4.232 75.2123 3.848C74.8643 3.464 74.4503 3.272 73.9703 3.272H70.8203V7.304H73.9703ZM85.1085 6.548C84.9885 6.488 84.8385 6.44 84.6585 6.404C84.4905 6.356 84.3105 6.332 84.1185 6.332C83.7345 6.332 83.3565 6.434 82.9845 6.638C82.6125 6.83 82.3005 7.112 82.0485 7.484C81.8085 7.844 81.6885 8.276 81.6885 8.78V14H79.8165V4.55H81.6885V6.332C81.9525 5.756 82.3485 5.282 82.8765 4.91C83.4165 4.538 83.9805 4.352 84.5685 4.352C85.0125 4.352 85.3545 4.412 85.5945 4.532L85.1085 6.548ZM95.726 9.266C95.726 10.226 95.51 11.078 95.078 11.822C94.658 12.554 94.082 13.13 93.35 13.55C92.63 13.97 91.82 14.18 90.92 14.18C90.02 14.18 89.204 13.97 88.472 13.55C87.74 13.13 87.158 12.554 86.726 11.822C86.306 11.078 86.096 10.226 86.096 9.266C86.096 8.306 86.306 7.46 86.726 6.728C87.158 5.984 87.74 5.402 88.472 4.982C89.204 4.562 90.02 4.352 90.92 4.352C91.82 4.352 92.63 4.562 93.35 4.982C94.082 5.402 94.658 5.984 95.078 6.728C95.51 7.46 95.726 8.306 95.726 9.266ZM93.836 9.266C93.848 8.63 93.722 8.072 93.458 7.592C93.206 7.1 92.858 6.722 92.414 6.458C91.97 6.182 91.472 6.044 90.92 6.044C90.368 6.044 89.864 6.182 89.408 6.458C88.964 6.722 88.61 7.1 88.346 7.592C88.094 8.072 87.974 8.63 87.986 9.266C87.974 9.89 88.094 10.448 88.346 10.94C88.61 11.42 88.964 11.798 89.408 12.074C89.864 12.35 90.368 12.488 90.92 12.488C91.472 12.488 91.97 12.35 92.414 12.074C92.858 11.798 93.206 11.42 93.458 10.94C93.722 10.448 93.848 9.89 93.836 9.266ZM99.8342 14.432C99.8342 15.068 99.6902 15.62 99.4022 16.088C99.1262 16.556 98.7422 16.916 98.2502 17.168C97.7582 17.42 97.2062 17.546 96.5942 17.546L95.8922 16.124C96.6242 16.124 97.1522 15.932 97.4762 15.548C97.8122 15.164 97.9802 14.642 97.9802 13.982V4.55H99.8342V14.432ZM98.9522 2.39C98.5322 2.39 98.2202 2.282 98.0162 2.066C97.8122 1.85 97.7102 1.568 97.7102 1.22C97.7102 0.92 97.8122 0.649999 98.0162 0.409999C98.2202 0.169999 98.5322 0.0499994 98.9522 0.0499994C99.3722 0.0499994 99.6842 0.157999 99.8882 0.373999C100.092 0.59 100.194 0.872 100.194 1.22C100.194 1.52 100.092 1.79 99.8882 2.03C99.6842 2.27 99.3722 2.39 98.9522 2.39ZM110.593 12.758H110.575C110.191 13.13 109.663 13.46 108.991 13.748C108.319 14.036 107.617 14.18 106.885 14.18C105.901 14.18 105.031 13.976 104.275 13.568C103.531 13.148 102.949 12.578 102.529 11.858C102.109 11.126 101.899 10.298 101.899 9.374C101.899 8.318 102.121 7.418 102.565 6.674C103.009 5.918 103.597 5.342 104.329 4.946C105.061 4.538 105.859 4.334 106.723 4.334C107.515 4.334 108.235 4.532 108.883 4.928C109.531 5.312 110.047 5.846 110.431 6.53C110.815 7.214 111.007 8.012 111.007 8.924L110.989 9.716H103.753C103.861 10.568 104.209 11.246 104.797 11.75C105.397 12.242 106.153 12.488 107.065 12.488C107.725 12.488 108.259 12.368 108.667 12.128C109.075 11.876 109.411 11.636 109.675 11.408L110.593 12.758ZM106.723 6.044C106.015 6.044 105.397 6.212 104.869 6.548C104.341 6.872 103.993 7.436 103.825 8.24H109.117V8.114C109.081 7.706 108.943 7.346 108.703 7.034C108.475 6.722 108.187 6.482 107.839 6.314C107.491 6.134 107.119 6.044 106.723 6.044ZM114.21 9.266C114.21 9.89 114.348 10.448 114.624 10.94C114.912 11.42 115.284 11.804 115.74 12.092C116.208 12.368 116.706 12.506 117.234 12.506C117.834 12.506 118.356 12.35 118.8 12.038C119.244 11.726 119.604 11.402 119.88 11.066L120.906 12.326C120.678 12.65 120.366 12.956 119.97 13.244C119.574 13.52 119.124 13.748 118.62 13.928C118.116 14.096 117.588 14.18 117.036 14.18C116.172 14.18 115.392 13.964 114.696 13.532C114 13.1 113.448 12.512 113.04 11.768C112.644 11.024 112.446 10.19 112.446 9.266C112.446 8.33 112.644 7.496 113.04 6.764C113.448 6.02 114 5.432 114.696 5C115.392 4.568 116.172 4.352 117.036 4.352C117.912 4.352 118.692 4.532 119.376 4.892C120.06 5.24 120.57 5.696 120.906 6.26L119.88 7.52C119.604 7.112 119.208 6.764 118.692 6.476C118.188 6.176 117.696 6.026 117.216 6.026C116.652 6.026 116.142 6.17 115.686 6.458C115.23 6.734 114.87 7.118 114.606 7.61C114.342 8.09 114.21 8.642 114.21 9.266ZM125.678 14H123.824V6.35H121.862V4.55H123.824V2.138H125.678V4.55H127.874V6.35H125.678V14ZM135.368 7.034C135.032 6.698 134.648 6.422 134.216 6.206C133.796 5.99 133.406 5.882 133.046 5.882C132.794 5.882 132.542 5.912 132.29 5.972C132.05 6.032 131.846 6.146 131.678 6.314C131.51 6.47 131.426 6.704 131.426 7.016C131.438 7.448 131.63 7.754 132.002 7.934C132.386 8.114 132.86 8.276 133.424 8.42C133.916 8.552 134.396 8.72 134.864 8.924C135.332 9.116 135.716 9.404 136.016 9.788C136.328 10.16 136.484 10.688 136.484 11.372C136.484 11.96 136.316 12.464 135.98 12.884C135.656 13.304 135.23 13.628 134.702 13.856C134.186 14.072 133.64 14.18 133.064 14.18C132.38 14.18 131.702 14.06 131.03 13.82C130.37 13.568 129.806 13.142 129.338 12.542L130.598 11.462C130.922 11.834 131.288 12.128 131.696 12.344C132.116 12.548 132.626 12.65 133.226 12.65C133.454 12.65 133.682 12.614 133.91 12.542C134.138 12.458 134.33 12.332 134.486 12.164C134.654 11.984 134.738 11.744 134.738 11.444C134.738 11.156 134.648 10.934 134.468 10.778C134.3 10.61 134.072 10.478 133.784 10.382C133.496 10.274 133.178 10.178 132.83 10.094C132.314 9.95 131.804 9.776 131.3 9.572C130.808 9.356 130.394 9.056 130.058 8.672C129.734 8.276 129.572 7.742 129.572 7.07C129.572 6.506 129.728 6.026 130.04 5.63C130.364 5.222 130.784 4.91 131.3 4.694C131.816 4.466 132.368 4.352 132.956 4.352C133.52 4.352 134.132 4.472 134.792 4.712C135.452 4.952 135.998 5.336 136.43 5.864L135.368 7.034Z" fill="#F99500"/>
</svg>
