<svg width="133" height="25" viewBox="0 0 133 25" fill="none" xmlns="http://www.w3.org/2000/svg">
<path d="M14.12 16.936C13.784 17.32 13.312 17.688 12.704 18.04C12.112 18.392 11.424 18.68 10.64 18.904C9.872 19.128 9.048 19.24 8.168 19.24C6.664 19.24 5.304 18.888 4.088 18.184C2.888 17.464 1.928 16.456 1.208 15.16C0.504 13.864 0.152 12.344 0.152 10.6C0.152 9.368 0.368 8.232 0.8 7.192C1.232 6.152 1.832 5.248 2.6 4.48C3.368 3.712 4.248 3.12 5.24 2.704C6.232 2.272 7.28 2.056 8.384 2.056C9.296 2.056 10.144 2.2 10.928 2.488C11.728 2.76 12.424 3.12 13.016 3.568C13.624 4 14.096 4.464 14.432 4.96L12.704 6.76C12.112 6.152 11.456 5.648 10.736 5.248C10.016 4.848 9.232 4.648 8.384 4.648C7.424 4.648 6.512 4.888 5.648 5.368C4.8 5.848 4.112 6.536 3.584 7.432C3.056 8.312 2.792 9.368 2.792 10.6C2.792 11.944 3.056 13.064 3.584 13.96C4.128 14.856 4.84 15.528 5.72 15.976C6.616 16.408 7.576 16.624 8.6 16.624C9.544 16.624 10.376 16.44 11.096 16.072C11.816 15.688 12.392 15.272 12.824 14.824L14.12 16.936ZM29.0891 12.688C29.0891 13.968 28.8011 15.104 28.2251 16.096C27.6651 17.072 26.8971 17.84 25.9211 18.4C24.9611 18.96 23.8811 19.24 22.6811 19.24C21.4811 19.24 20.3931 18.96 19.4171 18.4C18.4411 17.84 17.6651 17.072 17.0891 16.096C16.5291 15.104 16.2491 13.968 16.2491 12.688C16.2491 11.408 16.5291 10.28 17.0891 9.304C17.6651 8.312 18.4411 7.536 19.4171 6.976C20.3931 6.416 21.4811 6.136 22.6811 6.136C23.8811 6.136 24.9611 6.416 25.9211 6.976C26.8971 7.536 27.6651 8.312 28.2251 9.304C28.8011 10.28 29.0891 11.408 29.0891 12.688ZM26.5691 12.688C26.5851 11.84 26.4171 11.096 26.0651 10.456C25.7291 9.8 25.2651 9.296 24.6731 8.944C24.0811 8.576 23.4171 8.392 22.6811 8.392C21.9451 8.392 21.2731 8.576 20.6651 8.944C20.0731 9.296 19.6011 9.8 19.2491 10.456C18.9131 11.096 18.7531 11.84 18.7691 12.688C18.7531 13.52 18.9131 14.264 19.2491 14.92C19.6011 15.56 20.0731 16.064 20.6651 16.432C21.2731 16.8 21.9451 16.984 22.6811 16.984C23.4171 16.984 24.0811 16.8 24.6731 16.432C25.2651 16.064 25.7291 15.56 26.0651 14.92C26.4171 14.264 26.5851 13.52 26.5691 12.688ZM38.1907 6.184C39.2307 6.184 40.0627 6.424 40.6867 6.904C41.3107 7.368 41.7587 8.008 42.0307 8.824C42.2547 8.424 42.5827 8.024 43.0147 7.624C43.4467 7.208 43.9507 6.864 44.5267 6.592C45.1027 6.32 45.7187 6.184 46.3747 6.184C47.4627 6.184 48.3107 6.424 48.9187 6.904C49.5267 7.368 49.9507 8 50.1907 8.8C50.4467 9.584 50.5747 10.464 50.5747 11.44V19H48.0787V11.584C48.0787 10.656 47.9027 9.904 47.5507 9.328C47.1987 8.752 46.5347 8.464 45.5587 8.464C44.6307 8.464 43.8627 8.76 43.2547 9.352C42.6627 9.928 42.3667 10.632 42.3667 11.464V19H39.8707V11.536C39.8707 10.64 39.6787 9.904 39.2947 9.328C38.9107 8.752 38.2787 8.464 37.3987 8.464C36.7907 8.464 36.2467 8.6 35.7667 8.872C35.2867 9.144 34.9107 9.504 34.6387 9.952C34.3667 10.384 34.2307 10.872 34.2307 11.416V19H31.7347V6.4H34.2307V8.416C34.6147 7.84 35.1507 7.328 35.8387 6.88C36.5427 6.416 37.3267 6.184 38.1907 6.184ZM60.2923 6.184C61.3323 6.184 62.1643 6.424 62.7883 6.904C63.4123 7.368 63.8603 8.008 64.1323 8.824C64.3563 8.424 64.6843 8.024 65.1163 7.624C65.5483 7.208 66.0523 6.864 66.6283 6.592C67.2043 6.32 67.8203 6.184 68.4763 6.184C69.5643 6.184 70.4123 6.424 71.0203 6.904C71.6283 7.368 72.0523 8 72.2923 8.8C72.5483 9.584 72.6763 10.464 72.6763 11.44V19H70.1803V11.584C70.1803 10.656 70.0043 9.904 69.6523 9.328C69.3003 8.752 68.6363 8.464 67.6603 8.464C66.7323 8.464 65.9643 8.76 65.3563 9.352C64.7643 9.928 64.4683 10.632 64.4683 11.464V19H61.9723V11.536C61.9723 10.64 61.7803 9.904 61.3963 9.328C61.0123 8.752 60.3803 8.464 59.5003 8.464C58.8923 8.464 58.3483 8.6 57.8683 8.872C57.3883 9.144 57.0123 9.504 56.7403 9.952C56.4683 10.384 56.3323 10.872 56.3323 11.416V19H53.8363V6.4H56.3323V8.416C56.7163 7.84 57.2523 7.328 57.9403 6.88C58.6443 6.416 59.4283 6.184 60.2923 6.184ZM84.5778 13.984V6.4H87.0498V19H84.5778V16.984C84.2098 17.576 83.6658 18.104 82.9458 18.568C82.2418 19.016 81.3938 19.24 80.4018 19.24C79.0898 19.24 78.0258 18.792 77.2098 17.896C76.3938 17 75.9858 15.76 75.9858 14.176V6.4H78.4578V13.504C78.4578 14.144 78.5538 14.736 78.7458 15.28C78.9538 15.824 79.2738 16.264 79.7058 16.6C80.1538 16.92 80.7218 17.08 81.4098 17.08C82.2738 17.08 83.0178 16.808 83.6418 16.264C84.2658 15.72 84.5778 14.96 84.5778 13.984ZM97.1171 6.136C98.2531 6.136 99.1331 6.368 99.7571 6.832C100.381 7.296 100.813 7.92 101.053 8.704C101.309 9.488 101.437 10.36 101.437 11.32V19H98.9651V11.488C98.9651 10.88 98.8851 10.336 98.7251 9.856C98.5651 9.376 98.2931 9 97.9091 8.728C97.5251 8.456 96.9891 8.344 96.3011 8.392C95.6611 8.392 95.0931 8.528 94.5971 8.8C94.1011 9.072 93.7091 9.432 93.4211 9.88C93.1331 10.328 92.9891 10.824 92.9891 11.368V19H90.5171V6.4H92.9891V8.392C93.3731 7.8 93.9331 7.28 94.6691 6.832C95.4051 6.368 96.2211 6.136 97.1171 6.136ZM106.447 3.664C105.887 3.664 105.471 3.52 105.199 3.232C104.927 2.944 104.791 2.568 104.791 2.104C104.791 1.704 104.927 1.344 105.199 1.024C105.471 0.703999 105.887 0.543999 106.447 0.543999C107.007 0.543999 107.423 0.687999 107.695 0.975999C107.967 1.264 108.103 1.64 108.103 2.104C108.103 2.504 107.967 2.864 107.695 3.184C107.423 3.504 107.007 3.664 106.447 3.664ZM107.719 19H105.247V6.4H107.719V19ZM115.502 19H113.03V8.8H110.414V6.4H113.03V3.184H115.502V6.4H118.43V8.8H115.502V19ZM122.793 24.52L124.857 19.792L124.929 19.624L119.073 6.4H121.953L125.889 15.664C125.937 15.76 125.985 15.88 126.033 16.024C126.081 16.168 126.137 16.328 126.201 16.504C126.265 16.328 126.321 16.16 126.369 16C126.433 15.824 126.497 15.656 126.561 15.496L129.849 6.4H132.777L127.593 19L125.457 24.52H122.793Z" fill="black"/>
</svg>
