<svg width="157" height="12" viewBox="0 0 157 12" fill="none" xmlns="http://www.w3.org/2000/svg">
<path d="M8.82 9.796C8.624 10.02 8.34867 10.2347 7.994 10.44C7.64867 10.6453 7.24733 10.8133 6.79 10.944C6.342 11.0747 5.86133 11.14 5.348 11.14C4.47067 11.14 3.67733 10.9347 2.968 10.524C2.268 10.104 1.708 9.516 1.288 8.76C0.877333 8.004 0.672 7.11733 0.672 6.1C0.672 5.38133 0.798 4.71867 1.05 4.112C1.302 3.50533 1.652 2.978 2.1 2.53C2.548 2.082 3.06133 1.73667 3.64 1.494C4.21867 1.242 4.83 1.116 5.474 1.116C6.006 1.116 6.50067 1.2 6.958 1.368C7.42467 1.52667 7.83067 1.73667 8.176 1.998C8.53067 2.25 8.806 2.52067 9.002 2.81L7.994 3.86C7.64867 3.50533 7.266 3.21133 6.846 2.978C6.426 2.74467 5.96867 2.628 5.474 2.628C4.914 2.628 4.382 2.768 3.878 3.048C3.38333 3.328 2.982 3.72933 2.674 4.252C2.366 4.76533 2.212 5.38133 2.212 6.1C2.212 6.884 2.366 7.53733 2.674 8.06C2.99133 8.58267 3.40667 8.97467 3.92 9.236C4.44267 9.488 5.00267 9.614 5.6 9.614C6.15067 9.614 6.636 9.50667 7.056 9.292C7.476 9.068 7.812 8.82533 8.064 8.564L8.82 9.796ZM14.626 5.204C14.5326 5.15733 14.416 5.12 14.276 5.092C14.1453 5.05467 14.0053 5.036 13.856 5.036C13.5573 5.036 13.2633 5.11533 12.974 5.274C12.6846 5.42333 12.442 5.64267 12.246 5.932C12.0593 6.212 11.966 6.548 11.966 6.94V11H10.51V3.65H11.966V5.036C12.1713 4.588 12.4793 4.21933 12.89 3.93C13.31 3.64067 13.7486 3.496 14.206 3.496C14.5513 3.496 14.8173 3.54267 15.004 3.636L14.626 5.204ZM22.884 7.318C22.884 8.06467 22.716 8.72733 22.38 9.306C22.0533 9.87533 21.6053 10.3233 21.036 10.65C20.476 10.9767 19.846 11.14 19.146 11.14C18.446 11.14 17.8113 10.9767 17.242 10.65C16.6727 10.3233 16.22 9.87533 15.884 9.306C15.5573 8.72733 15.394 8.06467 15.394 7.318C15.394 6.57133 15.5573 5.91333 15.884 5.344C16.22 4.76533 16.6727 4.31267 17.242 3.986C17.8113 3.65933 18.446 3.496 19.146 3.496C19.846 3.496 20.476 3.65933 21.036 3.986C21.6053 4.31267 22.0533 4.76533 22.38 5.344C22.716 5.91333 22.884 6.57133 22.884 7.318ZM21.414 7.318C21.4233 6.82333 21.3253 6.38933 21.12 6.016C20.924 5.63333 20.6533 5.33933 20.308 5.134C19.9627 4.91933 19.5753 4.812 19.146 4.812C18.7167 4.812 18.3247 4.91933 17.97 5.134C17.6247 5.33933 17.3493 5.63333 17.144 6.016C16.948 6.38933 16.8547 6.82333 16.864 7.318C16.8547 7.80333 16.948 8.23733 17.144 8.62C17.3493 8.99333 17.6247 9.28733 17.97 9.502C18.3247 9.71667 18.7167 9.824 19.146 9.824C19.5753 9.824 19.9627 9.71667 20.308 9.502C20.6533 9.28733 20.924 8.99333 21.12 8.62C21.3253 8.23733 21.4233 7.80333 21.414 7.318ZM28.6973 5.582C28.4359 5.32067 28.1373 5.106 27.8013 4.938C27.4746 4.77 27.1713 4.686 26.8913 4.686C26.6953 4.686 26.4993 4.70933 26.3033 4.756C26.1166 4.80267 25.9579 4.89133 25.8273 5.022C25.6966 5.14333 25.6313 5.32533 25.6313 5.568C25.6406 5.904 25.7899 6.142 26.0793 6.282C26.3779 6.422 26.7466 6.548 27.1853 6.66C27.5679 6.76267 27.9413 6.89333 28.3053 7.052C28.6693 7.20133 28.9679 7.42533 29.2013 7.724C29.4439 8.01333 29.5653 8.424 29.5653 8.956C29.5653 9.41333 29.4346 9.80533 29.1733 10.132C28.9213 10.4587 28.5899 10.7107 28.1793 10.888C27.7779 11.056 27.3533 11.14 26.9053 11.14C26.3733 11.14 25.8459 11.0467 25.3233 10.86C24.8099 10.664 24.3713 10.3327 24.0073 9.866L24.9873 9.026C25.2393 9.31533 25.5239 9.544 25.8413 9.712C26.1679 9.87067 26.5646 9.95 27.0313 9.95C27.2086 9.95 27.3859 9.922 27.5633 9.866C27.7406 9.80067 27.8899 9.70267 28.0113 9.572C28.1419 9.432 28.2073 9.24533 28.2073 9.012C28.2073 8.788 28.1373 8.61533 27.9973 8.494C27.8666 8.36333 27.6893 8.26067 27.4653 8.186C27.2413 8.102 26.9939 8.02733 26.7233 7.962C26.3219 7.85 25.9253 7.71467 25.5333 7.556C25.1506 7.388 24.8286 7.15467 24.5673 6.856C24.3153 6.548 24.1893 6.13267 24.1893 5.61C24.1893 5.17133 24.3106 4.798 24.5533 4.49C24.8053 4.17267 25.1319 3.93 25.5333 3.762C25.9346 3.58467 26.3639 3.496 26.8213 3.496C27.2599 3.496 27.7359 3.58933 28.2493 3.776C28.7626 3.96267 29.1873 4.26133 29.5233 4.672L28.6973 5.582ZM35.3965 5.582C35.1352 5.32067 34.8365 5.106 34.5005 4.938C34.1738 4.77 33.8705 4.686 33.5905 4.686C33.3945 4.686 33.1985 4.70933 33.0025 4.756C32.8158 4.80267 32.6572 4.89133 32.5265 5.022C32.3958 5.14333 32.3305 5.32533 32.3305 5.568C32.3398 5.904 32.4892 6.142 32.7785 6.282C33.0772 6.422 33.4458 6.548 33.8845 6.66C34.2672 6.76267 34.6405 6.89333 35.0045 7.052C35.3685 7.20133 35.6672 7.42533 35.9005 7.724C36.1432 8.01333 36.2645 8.424 36.2645 8.956C36.2645 9.41333 36.1338 9.80533 35.8725 10.132C35.6205 10.4587 35.2892 10.7107 34.8785 10.888C34.4772 11.056 34.0525 11.14 33.6045 11.14C33.0725 11.14 32.5452 11.0467 32.0225 10.86C31.5092 10.664 31.0705 10.3327 30.7065 9.866L31.6865 9.026C31.9385 9.31533 32.2232 9.544 32.5405 9.712C32.8672 9.87067 33.2638 9.95 33.7305 9.95C33.9078 9.95 34.0852 9.922 34.2625 9.866C34.4398 9.80067 34.5892 9.70267 34.7105 9.572C34.8412 9.432 34.9065 9.24533 34.9065 9.012C34.9065 8.788 34.8365 8.61533 34.6965 8.494C34.5658 8.36333 34.3885 8.26067 34.1645 8.186C33.9405 8.102 33.6932 8.02733 33.4225 7.962C33.0212 7.85 32.6245 7.71467 32.2325 7.556C31.8498 7.388 31.5278 7.15467 31.2665 6.856C31.0145 6.548 30.8885 6.13267 30.8885 5.61C30.8885 5.17133 31.0098 4.798 31.2525 4.49C31.5045 4.17267 31.8312 3.93 32.2325 3.762C32.6338 3.58467 33.0632 3.496 33.5205 3.496C33.9592 3.496 34.4352 3.58933 34.9485 3.776C35.4618 3.96267 35.8865 4.26133 36.2225 4.672L35.3965 5.582ZM37.5877 7.71V6.282H41.6197V7.71H37.5877ZM47.3535 5.106H45.6175V11H44.1615V5.106H42.9855V3.776H44.1615V2.824C44.1615 2.18933 44.3621 1.67133 44.7635 1.27C45.1741 0.859333 45.7015 0.654 46.3455 0.654C46.7188 0.654 47.0268 0.724 47.2695 0.863999C47.5215 1.004 47.7035 1.13933 47.8155 1.27L47.3255 2.376C47.2321 2.28267 47.1108 2.19867 46.9615 2.124C46.8121 2.04 46.6628 1.998 46.5135 1.998C46.1775 1.998 45.9441 2.07733 45.8135 2.236C45.6828 2.39467 45.6175 2.59067 45.6175 2.824V3.776H47.3535V5.106ZM53.8716 8.074V3.65H55.3136V11H53.8716V9.824C53.6569 10.1693 53.3396 10.4773 52.9196 10.748C52.5089 11.0093 52.0142 11.14 51.4356 11.14C50.6702 11.14 50.0496 10.8787 49.5736 10.356C49.0976 9.83333 48.8596 9.11 48.8596 8.186V3.65H50.3016V7.794C50.3016 8.16733 50.3576 8.51267 50.4696 8.83C50.5909 9.14733 50.7776 9.404 51.0296 9.6C51.2909 9.78667 51.6222 9.88 52.0236 9.88C52.5276 9.88 52.9616 9.72133 53.3256 9.404C53.6896 9.08667 53.8716 8.64333 53.8716 8.074ZM61.1861 3.496C61.8488 3.496 62.3621 3.63133 62.7261 3.902C63.0901 4.17267 63.3421 4.53667 63.4821 4.994C63.6315 5.45133 63.7061 5.96 63.7061 6.52V11H62.2641V6.618C62.2641 6.26333 62.2175 5.946 62.1241 5.666C62.0308 5.386 61.8721 5.16667 61.6481 5.008C61.4241 4.84933 61.1115 4.784 60.7101 4.812C60.3368 4.812 60.0055 4.89133 59.7161 5.05C59.4268 5.20867 59.1981 5.41867 59.0301 5.68C58.8621 5.94133 58.7781 6.23067 58.7781 6.548V11H57.3361V3.65H58.7781V4.812C59.0021 4.46667 59.3288 4.16333 59.7581 3.902C60.1875 3.63133 60.6635 3.496 61.1861 3.496ZM66.5863 7.318C66.5863 7.80333 66.6936 8.23733 66.9083 8.62C67.1323 8.99333 67.4216 9.292 67.7763 9.516C68.1403 9.73067 68.5276 9.838 68.9383 9.838C69.405 9.838 69.811 9.71667 70.1563 9.474C70.5016 9.23133 70.7816 8.97933 70.9963 8.718L71.7943 9.698C71.617 9.95 71.3743 10.188 71.0663 10.412C70.7583 10.6267 70.4083 10.804 70.0163 10.944C69.6243 11.0747 69.2136 11.14 68.7843 11.14C68.1123 11.14 67.5056 10.972 66.9643 10.636C66.423 10.3 65.9936 9.84267 65.6763 9.264C65.3683 8.68533 65.2143 8.03667 65.2143 7.318C65.2143 6.59 65.3683 5.94133 65.6763 5.372C65.9936 4.79333 66.423 4.336 66.9643 4C67.5056 3.664 68.1123 3.496 68.7843 3.496C69.4656 3.496 70.0723 3.636 70.6043 3.916C71.1363 4.18667 71.533 4.54133 71.7943 4.98L70.9963 5.96C70.7816 5.64267 70.4736 5.372 70.0723 5.148C69.6803 4.91467 69.2976 4.798 68.9243 4.798C68.4856 4.798 68.089 4.91 67.7343 5.134C67.3796 5.34867 67.0996 5.64733 66.8943 6.03C66.689 6.40333 66.5863 6.83267 66.5863 7.318ZM75.5065 11H74.0645V5.05H72.5385V3.65H74.0645V1.774H75.5065V3.65H77.2145V5.05H75.5065V11ZM79.4935 2.054C79.1669 2.054 78.9242 1.97 78.7655 1.802C78.6069 1.634 78.5275 1.41467 78.5275 1.144C78.5275 0.910666 78.6069 0.700666 78.7655 0.514C78.9242 0.327333 79.1669 0.233999 79.4935 0.233999C79.8202 0.233999 80.0629 0.317999 80.2215 0.485999C80.3802 0.653999 80.4595 0.873333 80.4595 1.144C80.4595 1.37733 80.3802 1.58733 80.2215 1.774C80.0629 1.96067 79.8202 2.054 79.4935 2.054ZM80.2355 11H78.7935V3.65H80.2355V11ZM89.466 7.318C89.466 8.06467 89.298 8.72733 88.962 9.306C88.6353 9.87533 88.1873 10.3233 87.618 10.65C87.058 10.9767 86.428 11.14 85.728 11.14C85.028 11.14 84.3933 10.9767 83.824 10.65C83.2547 10.3233 82.802 9.87533 82.466 9.306C82.1393 8.72733 81.976 8.06467 81.976 7.318C81.976 6.57133 82.1393 5.91333 82.466 5.344C82.802 4.76533 83.2547 4.31267 83.824 3.986C84.3933 3.65933 85.028 3.496 85.728 3.496C86.428 3.496 87.058 3.65933 87.618 3.986C88.1873 4.31267 88.6353 4.76533 88.962 5.344C89.298 5.91333 89.466 6.57133 89.466 7.318ZM87.996 7.318C88.0053 6.82333 87.9073 6.38933 87.702 6.016C87.506 5.63333 87.2353 5.33933 86.89 5.134C86.5447 4.91933 86.1573 4.812 85.728 4.812C85.2987 4.812 84.9067 4.91933 84.552 5.134C84.2067 5.33933 83.9313 5.63333 83.726 6.016C83.53 6.38933 83.4367 6.82333 83.446 7.318C83.4367 7.80333 83.53 8.23733 83.726 8.62C83.9313 8.99333 84.2067 9.28733 84.552 9.502C84.9067 9.71667 85.2987 9.824 85.728 9.824C86.1573 9.824 86.5447 9.71667 86.89 9.502C87.2353 9.28733 87.506 8.99333 87.702 8.62C87.9073 8.23733 88.0053 7.80333 87.996 7.318ZM94.8873 3.496C95.55 3.496 96.0633 3.63133 96.4273 3.902C96.7913 4.17267 97.0433 4.53667 97.1833 4.994C97.3326 5.45133 97.4073 5.96 97.4073 6.52V11H95.9653V6.618C95.9653 6.26333 95.9186 5.946 95.8253 5.666C95.732 5.386 95.5733 5.16667 95.3493 5.008C95.1253 4.84933 94.8126 4.784 94.4113 4.812C94.038 4.812 93.7066 4.89133 93.4173 5.05C93.128 5.20867 92.8993 5.41867 92.7313 5.68C92.5633 5.94133 92.4793 6.23067 92.4793 6.548V11H91.0373V3.65H92.4793V4.812C92.7033 4.46667 93.03 4.16333 93.4593 3.902C93.8886 3.63133 94.3646 3.496 94.8873 3.496ZM106.209 3.65V11H104.753V9.866C104.529 10.174 104.198 10.4633 103.759 10.734C103.321 11.0047 102.812 11.14 102.233 11.14C101.617 11.14 101.053 10.9767 100.539 10.65C100.035 10.3233 99.6341 9.87067 99.3355 9.292C99.0368 8.71333 98.8875 8.05067 98.8875 7.304C98.8875 6.55733 99.0415 5.89933 99.3495 5.33C99.6575 4.75133 100.082 4.30333 100.623 3.986C101.165 3.65933 101.781 3.496 102.471 3.496C102.985 3.496 103.433 3.608 103.815 3.832C104.207 4.056 104.52 4.31733 104.753 4.616V3.65H106.209ZM102.569 9.81C103.017 9.81 103.409 9.70267 103.745 9.488C104.081 9.264 104.343 8.96533 104.529 8.592C104.716 8.20933 104.809 7.78 104.809 7.304C104.809 6.83733 104.716 6.41733 104.529 6.044C104.343 5.67067 104.081 5.37667 103.745 5.162C103.409 4.938 103.017 4.826 102.569 4.826C102.14 4.826 101.757 4.93333 101.421 5.148C101.085 5.36267 100.824 5.65667 100.637 6.03C100.451 6.40333 100.357 6.828 100.357 7.304C100.357 7.78 100.451 8.20933 100.637 8.592C100.824 8.96533 101.085 9.264 101.421 9.488C101.757 9.70267 102.14 9.81 102.569 9.81ZM108.223 11V0.64H109.665V11H108.223ZM117.999 11H116.557V5.05H115.031V3.65H116.557V1.774H117.999V3.65H119.707V5.05H117.999V11ZM127.265 10.034H127.251C126.953 10.3233 126.542 10.58 126.019 10.804C125.497 11.028 124.951 11.14 124.381 11.14C123.616 11.14 122.939 10.9813 122.351 10.664C121.773 10.3373 121.32 9.894 120.993 9.334C120.667 8.76467 120.503 8.12067 120.503 7.402C120.503 6.58067 120.676 5.88067 121.021 5.302C121.367 4.714 121.824 4.266 122.393 3.958C122.963 3.64067 123.583 3.482 124.255 3.482C124.871 3.482 125.431 3.636 125.935 3.944C126.439 4.24267 126.841 4.658 127.139 5.19C127.438 5.722 127.587 6.34267 127.587 7.052L127.573 7.668H121.945C122.029 8.33067 122.3 8.858 122.757 9.25C123.224 9.63267 123.812 9.824 124.521 9.824C125.035 9.824 125.45 9.73067 125.767 9.544C126.085 9.348 126.346 9.16133 126.551 8.984L127.265 10.034ZM124.255 4.812C123.705 4.812 123.224 4.94267 122.813 5.204C122.403 5.456 122.132 5.89467 122.001 6.52H126.117V6.422C126.089 6.10467 125.982 5.82467 125.795 5.582C125.618 5.33933 125.394 5.15267 125.123 5.022C124.853 4.882 124.563 4.812 124.255 4.812ZM136 3.65V11H134.544V9.866C134.32 10.174 133.989 10.4633 133.55 10.734C133.112 11.0047 132.603 11.14 132.024 11.14C131.408 11.14 130.844 10.9767 130.33 10.65C129.826 10.3233 129.425 9.87067 129.126 9.292C128.828 8.71333 128.678 8.05067 128.678 7.304C128.678 6.55733 128.832 5.89933 129.14 5.33C129.448 4.75133 129.873 4.30333 130.414 3.986C130.956 3.65933 131.572 3.496 132.262 3.496C132.776 3.496 133.224 3.608 133.606 3.832C133.998 4.056 134.311 4.31733 134.544 4.616V3.65H136ZM132.36 9.81C132.808 9.81 133.2 9.70267 133.536 9.488C133.872 9.264 134.134 8.96533 134.32 8.592C134.507 8.20933 134.6 7.78 134.6 7.304C134.6 6.83733 134.507 6.41733 134.32 6.044C134.134 5.67067 133.872 5.37667 133.536 5.162C133.2 4.938 132.808 4.826 132.36 4.826C131.931 4.826 131.548 4.93333 131.212 5.148C130.876 5.36267 130.615 5.65667 130.428 6.03C130.242 6.40333 130.148 6.828 130.148 7.304C130.148 7.78 130.242 8.20933 130.428 8.592C130.615 8.96533 130.876 9.264 131.212 9.488C131.548 9.70267 131.931 9.81 132.36 9.81ZM141.752 3.524C142.359 3.524 142.844 3.664 143.208 3.944C143.572 4.21467 143.833 4.588 143.992 5.064C144.123 4.83067 144.314 4.59733 144.566 4.364C144.818 4.12133 145.112 3.92067 145.448 3.762C145.784 3.60333 146.143 3.524 146.526 3.524C147.161 3.524 147.655 3.664 148.01 3.944C148.365 4.21467 148.612 4.58333 148.752 5.05C148.901 5.50733 148.976 6.02067 148.976 6.59V11H147.52V6.674C147.52 6.13267 147.417 5.694 147.212 5.358C147.007 5.022 146.619 4.854 146.05 4.854C145.509 4.854 145.061 5.02667 144.706 5.372C144.361 5.708 144.188 6.11867 144.188 6.604V11H142.732V6.646C142.732 6.12333 142.62 5.694 142.396 5.358C142.172 5.022 141.803 4.854 141.29 4.854C140.935 4.854 140.618 4.93333 140.338 5.092C140.058 5.25067 139.839 5.46067 139.68 5.722C139.521 5.974 139.442 6.25867 139.442 6.576V11H137.986V3.65H139.442V4.826C139.666 4.49 139.979 4.19133 140.38 3.93C140.791 3.65933 141.248 3.524 141.752 3.524ZM155.148 5.582C154.887 5.32067 154.588 5.106 154.252 4.938C153.926 4.77 153.622 4.686 153.342 4.686C153.146 4.686 152.95 4.70933 152.754 4.756C152.568 4.80267 152.409 4.89133 152.278 5.022C152.148 5.14333 152.082 5.32533 152.082 5.568C152.092 5.904 152.241 6.142 152.53 6.282C152.829 6.422 153.198 6.548 153.636 6.66C154.019 6.76267 154.392 6.89333 154.756 7.052C155.12 7.20133 155.419 7.42533 155.652 7.724C155.895 8.01333 156.016 8.424 156.016 8.956C156.016 9.41333 155.886 9.80533 155.624 10.132C155.372 10.4587 155.041 10.7107 154.63 10.888C154.229 11.056 153.804 11.14 153.356 11.14C152.824 11.14 152.297 11.0467 151.774 10.86C151.261 10.664 150.822 10.3327 150.458 9.866L151.438 9.026C151.69 9.31533 151.975 9.544 152.292 9.712C152.619 9.87067 153.016 9.95 153.482 9.95C153.66 9.95 153.837 9.922 154.014 9.866C154.192 9.80067 154.341 9.70267 154.462 9.572C154.593 9.432 154.658 9.24533 154.658 9.012C154.658 8.788 154.588 8.61533 154.448 8.494C154.318 8.36333 154.14 8.26067 153.916 8.186C153.692 8.102 153.445 8.02733 153.174 7.962C152.773 7.85 152.376 7.71467 151.984 7.556C151.602 7.388 151.28 7.15467 151.018 6.856C150.766 6.548 150.64 6.13267 150.64 5.61C150.64 5.17133 150.762 4.798 151.004 4.49C151.256 4.17267 151.583 3.93 151.984 3.762C152.386 3.58467 152.815 3.496 153.272 3.496C153.711 3.496 154.187 3.58933 154.7 3.776C155.214 3.96267 155.638 4.26133 155.974 4.672L155.148 5.582Z" fill="#99ACD5"/>
</svg>
