<svg width="38" height="14" viewBox="0 0 38 14" fill="none" xmlns="http://www.w3.org/2000/svg">
<path d="M5.696 0.399999C6.668 0.399999 7.52 0.567999 8.252 0.903999C8.996 1.228 9.614 1.684 10.106 2.272C10.598 2.848 10.97 3.52 11.222 4.288C11.474 5.044 11.6 5.848 11.6 6.7C11.6 7.852 11.378 8.908 10.934 9.868C10.49 10.816 9.83 11.578 8.954 12.154C8.078 12.718 6.992 13 5.696 13H0.764V0.399999H5.696ZM5.606 11.128C6.554 11.128 7.322 10.93 7.91 10.534C8.498 10.126 8.93 9.586 9.206 8.914C9.482 8.242 9.62 7.504 9.62 6.7C9.62 5.908 9.482 5.176 9.206 4.504C8.93 3.832 8.498 3.292 7.91 2.884C7.322 2.476 6.554 2.272 5.606 2.272H2.708V11.128H5.606ZM22.1933 13L21.0053 9.868H15.7313L14.5433 13H12.5633L17.4413 0.399999H19.4213L24.2633 13H22.1933ZM17.4053 5.476L16.4513 7.996H20.3033L19.3133 5.404C19.1573 4.984 19.0013 4.534 18.8453 4.054C18.6893 3.562 18.5333 3.07 18.3773 2.578C18.2093 3.082 18.0413 3.586 17.8733 4.09C17.7173 4.594 17.5613 5.056 17.4053 5.476ZM37.5772 6.7C37.5772 7.612 37.4272 8.464 37.1272 9.256C36.8272 10.036 36.3952 10.72 35.8312 11.308C35.2792 11.896 34.6252 12.358 33.8692 12.694C33.1252 13.018 32.3032 13.18 31.4032 13.18C30.5032 13.18 29.6752 13.018 28.9192 12.694C28.1632 12.358 27.5092 11.896 26.9572 11.308C26.4052 10.72 25.9792 10.036 25.6792 9.256C25.3792 8.464 25.2292 7.612 25.2292 6.7C25.2292 5.788 25.3792 4.942 25.6792 4.162C25.9792 3.37 26.4052 2.68 26.9572 2.092C27.5092 1.504 28.1632 1.048 28.9192 0.723999C29.6752 0.387999 30.5032 0.219999 31.4032 0.219999C32.3032 0.219999 33.1252 0.387999 33.8692 0.723999C34.6252 1.048 35.2792 1.504 35.8312 2.092C36.3952 2.68 36.8272 3.37 37.1272 4.162C37.4272 4.942 37.5772 5.788 37.5772 6.7ZM35.5972 6.7C35.5972 5.824 35.4172 5.044 35.0572 4.36C34.6972 3.664 34.1992 3.118 33.5632 2.722C32.9392 2.314 32.2192 2.11 31.4032 2.11C30.5752 2.11 29.8432 2.314 29.2072 2.722C28.5832 3.118 28.0912 3.664 27.7312 4.36C27.3832 5.044 27.2092 5.824 27.2092 6.7C27.2092 7.576 27.3832 8.362 27.7312 9.058C28.0912 9.742 28.5832 10.288 29.2072 10.696C29.8432 11.092 30.5752 11.29 31.4032 11.29C32.2192 11.29 32.9392 11.092 33.5632 10.696C34.1992 10.288 34.6972 9.736 35.0572 9.04C35.4172 8.344 35.5972 7.564 35.5972 6.7Z" fill="#3C3C3C"/>
</svg>
