<svg width="196" height="12" viewBox="0 0 196 12" fill="none" xmlns="http://www.w3.org/2000/svg">
<path d="M4.208 1.2C4.964 1.2 5.62667 1.33067 6.196 1.592C6.77467 1.844 7.25533 2.19867 7.638 2.656C8.02067 3.104 8.31 3.62667 8.506 4.224C8.702 4.812 8.8 5.43733 8.8 6.1C8.8 6.996 8.62733 7.81733 8.282 8.564C7.93667 9.30133 7.42333 9.894 6.742 10.342C6.06067 10.7807 5.216 11 4.208 11H0.372V1.2H4.208ZM4.138 9.544C4.87533 9.544 5.47267 9.39 5.93 9.082C6.38733 8.76467 6.72333 8.34467 6.938 7.822C7.15267 7.29933 7.26 6.72533 7.26 6.1C7.26 5.484 7.15267 4.91467 6.938 4.392C6.72333 3.86933 6.38733 3.44933 5.93 3.132C5.47267 2.81467 4.87533 2.656 4.138 2.656H1.884V9.544H4.138ZM16.7947 10.034H16.7807C16.482 10.3233 16.0713 10.58 15.5487 10.804C15.026 11.028 14.48 11.14 13.9107 11.14C13.1453 11.14 12.4687 10.9813 11.8807 10.664C11.302 10.3373 10.8493 9.894 10.5227 9.334C10.196 8.76467 10.0327 8.12067 10.0327 7.402C10.0327 6.58067 10.2053 5.88067 10.5507 5.302C10.896 4.714 11.3533 4.266 11.9227 3.958C12.492 3.64067 13.1127 3.482 13.7847 3.482C14.4007 3.482 14.9607 3.636 15.4647 3.944C15.9687 4.24267 16.37 4.658 16.6687 5.19C16.9673 5.722 17.1167 6.34267 17.1167 7.052L17.1027 7.668H11.4747C11.5587 8.33067 11.8293 8.858 12.2867 9.25C12.7533 9.63267 13.3413 9.824 14.0507 9.824C14.564 9.824 14.9793 9.73067 15.2967 9.544C15.614 9.348 15.8753 9.16133 16.0807 8.984L16.7947 10.034ZM13.7847 4.812C13.234 4.812 12.7533 4.94267 12.3427 5.204C11.932 5.456 11.6613 5.89467 11.5307 6.52H15.6467V6.422C15.6187 6.10467 15.5113 5.82467 15.3247 5.582C15.1473 5.33933 14.9233 5.15267 14.6527 5.022C14.382 4.882 14.0927 4.812 13.7847 4.812ZM19.6078 7.318C19.6078 7.80333 19.7151 8.23733 19.9298 8.62C20.1538 8.99333 20.4431 9.292 20.7978 9.516C21.1618 9.73067 21.5491 9.838 21.9598 9.838C22.4264 9.838 22.8324 9.71667 23.1778 9.474C23.5231 9.23133 23.8031 8.97933 24.0178 8.718L24.8158 9.698C24.6384 9.95 24.3958 10.188 24.0878 10.412C23.7798 10.6267 23.4298 10.804 23.0378 10.944C22.6458 11.0747 22.2351 11.14 21.8058 11.14C21.1338 11.14 20.5271 10.972 19.9858 10.636C19.4444 10.3 19.0151 9.84267 18.6978 9.264C18.3898 8.68533 18.2358 8.03667 18.2358 7.318C18.2358 6.59 18.3898 5.94133 18.6978 5.372C19.0151 4.79333 19.4444 4.336 19.9858 4C20.5271 3.664 21.1338 3.496 21.8058 3.496C22.4871 3.496 23.0938 3.636 23.6258 3.916C24.1578 4.18667 24.5544 4.54133 24.8158 4.98L24.0178 5.96C23.8031 5.64267 23.4951 5.372 23.0938 5.148C22.7018 4.91467 22.3191 4.798 21.9458 4.798C21.5071 4.798 21.1104 4.91 20.7558 5.134C20.4011 5.34867 20.1211 5.64733 19.9158 6.03C19.7104 6.40333 19.6078 6.83267 19.6078 7.318ZM32.49 10.034H32.476C32.1773 10.3233 31.7666 10.58 31.244 10.804C30.7213 11.028 30.1753 11.14 29.606 11.14C28.8406 11.14 28.164 10.9813 27.576 10.664C26.9973 10.3373 26.5446 9.894 26.218 9.334C25.8913 8.76467 25.728 8.12067 25.728 7.402C25.728 6.58067 25.9006 5.88067 26.246 5.302C26.5913 4.714 27.0486 4.266 27.618 3.958C28.1873 3.64067 28.808 3.482 29.48 3.482C30.096 3.482 30.656 3.636 31.16 3.944C31.664 4.24267 32.0653 4.658 32.364 5.19C32.6626 5.722 32.812 6.34267 32.812 7.052L32.798 7.668H27.17C27.254 8.33067 27.5246 8.858 27.982 9.25C28.4486 9.63267 29.0366 9.824 29.746 9.824C30.2593 9.824 30.6746 9.73067 30.992 9.544C31.3093 9.348 31.5706 9.16133 31.776 8.984L32.49 10.034ZM29.48 4.812C28.9293 4.812 28.4486 4.94267 28.038 5.204C27.6273 5.456 27.3566 5.89467 27.226 6.52H31.342V6.422C31.314 6.10467 31.2066 5.82467 31.02 5.582C30.8426 5.33933 30.6186 5.15267 30.348 5.022C30.0773 4.882 29.788 4.812 29.48 4.812ZM38.2291 3.496C38.8918 3.496 39.4051 3.63133 39.7691 3.902C40.1331 4.17267 40.3851 4.53667 40.5251 4.994C40.6744 5.45133 40.7491 5.96 40.7491 6.52V11H39.3071V6.618C39.3071 6.26333 39.2604 5.946 39.1671 5.666C39.0738 5.386 38.9151 5.16667 38.6911 5.008C38.4671 4.84933 38.1544 4.784 37.7531 4.812C37.3798 4.812 37.0484 4.89133 36.7591 5.05C36.4698 5.20867 36.2411 5.41867 36.0731 5.68C35.9051 5.94133 35.8211 6.23067 35.8211 6.548V11H34.3791V3.65H35.8211V4.812C36.0451 4.46667 36.3718 4.16333 36.8011 3.902C37.2304 3.63133 37.7064 3.496 38.2291 3.496ZM45.0573 11H43.6153V5.05H42.0893V3.65H43.6153V1.774H45.0573V3.65H46.7653V5.05H45.0573V11ZM52.1943 5.204C52.101 5.15733 51.9843 5.12 51.8443 5.092C51.7136 5.05467 51.5736 5.036 51.4243 5.036C51.1256 5.036 50.8316 5.11533 50.5423 5.274C50.253 5.42333 50.0103 5.64267 49.8143 5.932C49.6276 6.212 49.5343 6.548 49.5343 6.94V11H48.0783V3.65H49.5343V5.036C49.7396 4.588 50.0476 4.21933 50.4583 3.93C50.8783 3.64067 51.317 3.496 51.7743 3.496C52.1196 3.496 52.3856 3.54267 52.5723 3.636L52.1943 5.204ZM60.2563 3.65V11H58.8003V9.866C58.5763 10.174 58.245 10.4633 57.8063 10.734C57.3677 11.0047 56.859 11.14 56.2803 11.14C55.6643 11.14 55.0997 10.9767 54.5863 10.65C54.0823 10.3233 53.681 9.87067 53.3823 9.292C53.0837 8.71333 52.9343 8.05067 52.9343 7.304C52.9343 6.55733 53.0883 5.89933 53.3963 5.33C53.7043 4.75133 54.129 4.30333 54.6703 3.986C55.2117 3.65933 55.8277 3.496 56.5183 3.496C57.0317 3.496 57.4797 3.608 57.8623 3.832C58.2543 4.056 58.567 4.31733 58.8003 4.616V3.65H60.2563ZM56.6163 9.81C57.0643 9.81 57.4563 9.70267 57.7923 9.488C58.1283 9.264 58.3897 8.96533 58.5763 8.592C58.763 8.20933 58.8563 7.78 58.8563 7.304C58.8563 6.83733 58.763 6.41733 58.5763 6.044C58.3897 5.67067 58.1283 5.37667 57.7923 5.162C57.4563 4.938 57.0643 4.826 56.6163 4.826C56.187 4.826 55.8043 4.93333 55.4683 5.148C55.1323 5.36267 54.871 5.65667 54.6843 6.03C54.4977 6.40333 54.4043 6.828 54.4043 7.304C54.4043 7.78 54.4977 8.20933 54.6843 8.592C54.871 8.96533 55.1323 9.264 55.4683 9.488C55.8043 9.70267 56.187 9.81 56.6163 9.81ZM62.2697 11V0.64H63.7117V11H62.2697ZM66.7357 2.054C66.4091 2.054 66.1664 1.97 66.0077 1.802C65.8491 1.634 65.7697 1.41467 65.7697 1.144C65.7697 0.910666 65.8491 0.700666 66.0077 0.514C66.1664 0.327333 66.4091 0.233999 66.7357 0.233999C67.0624 0.233999 67.3051 0.317999 67.4637 0.485999C67.6224 0.653999 67.7017 0.873333 67.7017 1.144C67.7017 1.37733 67.6224 1.58733 67.4637 1.774C67.3051 1.96067 67.0624 2.054 66.7357 2.054ZM67.4777 11H66.0357V3.65H67.4777V11ZM73.9082 5.582C73.6469 5.32067 73.3482 5.106 73.0122 4.938C72.6855 4.77 72.3822 4.686 72.1022 4.686C71.9062 4.686 71.7102 4.70933 71.5142 4.756C71.3275 4.80267 71.1689 4.89133 71.0382 5.022C70.9075 5.14333 70.8422 5.32533 70.8422 5.568C70.8515 5.904 71.0009 6.142 71.2902 6.282C71.5889 6.422 71.9575 6.548 72.3962 6.66C72.7789 6.76267 73.1522 6.89333 73.5162 7.052C73.8802 7.20133 74.1789 7.42533 74.4122 7.724C74.6549 8.01333 74.7762 8.424 74.7762 8.956C74.7762 9.41333 74.6455 9.80533 74.3842 10.132C74.1322 10.4587 73.8009 10.7107 73.3902 10.888C72.9889 11.056 72.5642 11.14 72.1162 11.14C71.5842 11.14 71.0569 11.0467 70.5342 10.86C70.0209 10.664 69.5822 10.3327 69.2182 9.866L70.1982 9.026C70.4502 9.31533 70.7349 9.544 71.0522 9.712C71.3789 9.87067 71.7755 9.95 72.2422 9.95C72.4195 9.95 72.5969 9.922 72.7742 9.866C72.9515 9.80067 73.1009 9.70267 73.2222 9.572C73.3529 9.432 73.4182 9.24533 73.4182 9.012C73.4182 8.788 73.3482 8.61533 73.2082 8.494C73.0775 8.36333 72.9002 8.26067 72.6762 8.186C72.4522 8.102 72.2049 8.02733 71.9342 7.962C71.5329 7.85 71.1362 7.71467 70.7442 7.556C70.3615 7.388 70.0395 7.15467 69.7782 6.856C69.5262 6.548 69.4002 6.13267 69.4002 5.61C69.4002 5.17133 69.5215 4.798 69.7642 4.49C70.0162 4.17267 70.3429 3.93 70.7442 3.762C71.1455 3.58467 71.5749 3.496 72.0322 3.496C72.4709 3.496 72.9469 3.58933 73.4602 3.776C73.9735 3.96267 74.3982 4.26133 74.7342 4.672L73.9082 5.582ZM82.6794 10.034H82.6654C82.3668 10.3233 81.9561 10.58 81.4334 10.804C80.9108 11.028 80.3648 11.14 79.7954 11.14C79.0301 11.14 78.3534 10.9813 77.7654 10.664C77.1868 10.3373 76.7341 9.894 76.4074 9.334C76.0808 8.76467 75.9174 8.12067 75.9174 7.402C75.9174 6.58067 76.0901 5.88067 76.4354 5.302C76.7808 4.714 77.2381 4.266 77.8074 3.958C78.3768 3.64067 78.9974 3.482 79.6694 3.482C80.2854 3.482 80.8454 3.636 81.3494 3.944C81.8534 4.24267 82.2548 4.658 82.5534 5.19C82.8521 5.722 83.0014 6.34267 83.0014 7.052L82.9874 7.668H77.3594C77.4434 8.33067 77.7141 8.858 78.1714 9.25C78.6381 9.63267 79.2261 9.824 79.9354 9.824C80.4488 9.824 80.8641 9.73067 81.1814 9.544C81.4988 9.348 81.7601 9.16133 81.9654 8.984L82.6794 10.034ZM79.6694 4.812C79.1188 4.812 78.6381 4.94267 78.2274 5.204C77.8168 5.456 77.5461 5.89467 77.4154 6.52H81.5314V6.422C81.5034 6.10467 81.3961 5.82467 81.2094 5.582C81.0321 5.33933 80.8081 5.15267 80.5374 5.022C80.2668 4.882 79.9774 4.812 79.6694 4.812ZM91.4565 0.64V11H90.0145V9.964C89.7999 10.2533 89.4825 10.524 89.0625 10.776C88.6425 11.0187 88.1665 11.14 87.6345 11.14C86.9719 11.14 86.3745 10.9767 85.8425 10.65C85.3105 10.3233 84.8905 9.87067 84.5825 9.292C84.2745 8.71333 84.1205 8.05533 84.1205 7.318C84.1205 6.57133 84.2745 5.91333 84.5825 5.344C84.8905 4.76533 85.3059 4.31267 85.8285 3.986C86.3512 3.65933 86.9392 3.496 87.5925 3.496C88.1152 3.496 88.5865 3.60333 89.0065 3.818C89.4359 4.03267 89.7719 4.28467 90.0145 4.574V0.64H91.4565ZM87.8305 9.894C88.2785 9.894 88.6705 9.782 89.0065 9.558C89.3425 9.334 89.6039 9.026 89.7905 8.634C89.9772 8.242 90.0705 7.80333 90.0705 7.318C90.0705 6.82333 89.9772 6.38467 89.7905 6.002C89.6039 5.61 89.3425 5.302 89.0065 5.078C88.6705 4.854 88.2785 4.742 87.8305 4.742C87.3919 4.742 87.0045 4.854 86.6685 5.078C86.3325 5.302 86.0665 5.61 85.8705 6.002C85.6839 6.38467 85.5905 6.82333 85.5905 7.318C85.5905 7.80333 85.6839 8.242 85.8705 8.634C86.0665 9.026 86.3325 9.334 86.6685 9.558C87.0045 9.782 87.3919 9.894 87.8305 9.894ZM100.641 11.14C99.9414 11.14 99.3208 10.9907 98.7794 10.692C98.2474 10.3933 97.8274 10.0107 97.5194 9.544C97.2114 9.068 97.0574 8.564 97.0574 8.032C97.0574 7.37867 97.2254 6.79067 97.5614 6.268C97.9068 5.736 98.4434 5.30667 99.1714 4.98C99.0221 4.74667 98.9054 4.51333 98.8214 4.28C98.7468 4.03733 98.7094 3.79467 98.7094 3.552C98.7094 3.104 98.8261 2.69333 99.0594 2.32C99.2928 1.93733 99.6241 1.634 100.053 1.41C100.492 1.17667 101.01 1.06 101.607 1.06C102.261 1.06 102.83 1.23733 103.315 1.592C103.801 1.93733 104.132 2.37133 104.309 2.894L103.217 3.594C103.04 3.15533 102.821 2.84267 102.559 2.656C102.298 2.46 101.981 2.362 101.607 2.362C101.122 2.362 100.777 2.474 100.571 2.698C100.375 2.91267 100.277 3.18333 100.277 3.51C100.277 3.79933 100.371 4.10733 100.557 4.434C100.744 4.76067 100.963 5.078 101.215 5.386C101.477 5.694 101.715 5.96467 101.929 6.198L103.581 8.046C103.712 7.78467 103.819 7.514 103.903 7.234C103.997 6.954 104.067 6.674 104.113 6.394H105.401C105.336 6.85133 105.224 7.30867 105.065 7.766C104.916 8.214 104.715 8.634 104.463 9.026C104.855 9.446 105.21 9.838 105.527 10.202C105.854 10.5567 106.106 10.8227 106.283 11H104.407C104.258 10.8413 104.109 10.6873 103.959 10.538C103.819 10.3887 103.684 10.244 103.553 10.104C103.18 10.4213 102.751 10.6733 102.265 10.86C101.789 11.0467 101.248 11.14 100.641 11.14ZM98.5834 7.822C98.5834 8.14867 98.6628 8.466 98.8214 8.774C98.9801 9.082 99.2321 9.334 99.5774 9.53C99.9228 9.71667 100.371 9.81 100.921 9.81C101.285 9.81 101.612 9.754 101.901 9.642C102.2 9.52067 102.471 9.362 102.713 9.166L100.487 6.688C100.394 6.576 100.301 6.46867 100.207 6.366C100.114 6.26333 100.025 6.16067 99.9414 6.058C99.4281 6.226 99.0734 6.46867 98.8774 6.786C98.6814 7.094 98.5834 7.43933 98.5834 7.822ZM118.471 11L117.547 8.564H113.445L112.521 11H110.981L114.775 1.2H116.315L120.081 11H118.471ZM114.747 5.148L114.005 7.108H117.001L116.231 5.092C116.11 4.76533 115.988 4.41533 115.867 4.042C115.746 3.65933 115.624 3.27667 115.503 2.894C115.372 3.286 115.242 3.678 115.111 4.07C114.99 4.462 114.868 4.82133 114.747 5.148ZM126.317 8.074V3.65H127.759V11H126.317V9.824C126.102 10.1693 125.785 10.4773 125.365 10.748C124.954 11.0093 124.46 11.14 123.881 11.14C123.116 11.14 122.495 10.8787 122.019 10.356C121.543 9.83333 121.305 9.11 121.305 8.186V3.65H122.747V7.794C122.747 8.16733 122.803 8.51267 122.915 8.83C123.036 9.14733 123.223 9.404 123.475 9.6C123.736 9.78667 124.068 9.88 124.469 9.88C124.973 9.88 125.407 9.72133 125.771 9.404C126.135 9.08667 126.317 8.64333 126.317 8.074ZM132.133 11H130.691V5.05H129.165V3.65H130.691V1.774H132.133V3.65H133.841V5.05H132.133V11ZM142.128 7.318C142.128 8.06467 141.96 8.72733 141.624 9.306C141.297 9.87533 140.849 10.3233 140.28 10.65C139.72 10.9767 139.09 11.14 138.39 11.14C137.69 11.14 137.055 10.9767 136.486 10.65C135.917 10.3233 135.464 9.87533 135.128 9.306C134.801 8.72733 134.638 8.06467 134.638 7.318C134.638 6.57133 134.801 5.91333 135.128 5.344C135.464 4.76533 135.917 4.31267 136.486 3.986C137.055 3.65933 137.69 3.496 138.39 3.496C139.09 3.496 139.72 3.65933 140.28 3.986C140.849 4.31267 141.297 4.76533 141.624 5.344C141.96 5.91333 142.128 6.57133 142.128 7.318ZM140.658 7.318C140.667 6.82333 140.569 6.38933 140.364 6.016C140.168 5.63333 139.897 5.33933 139.552 5.134C139.207 4.91933 138.819 4.812 138.39 4.812C137.961 4.812 137.569 4.91933 137.214 5.134C136.869 5.33933 136.593 5.63333 136.388 6.016C136.192 6.38933 136.099 6.82333 136.108 7.318C136.099 7.80333 136.192 8.23733 136.388 8.62C136.593 8.99333 136.869 9.28733 137.214 9.502C137.569 9.71667 137.961 9.824 138.39 9.824C138.819 9.824 139.207 9.71667 139.552 9.502C139.897 9.28733 140.168 8.99333 140.364 8.62C140.569 8.23733 140.667 7.80333 140.658 7.318ZM147.549 3.496C148.212 3.496 148.725 3.63133 149.089 3.902C149.453 4.17267 149.705 4.53667 149.845 4.994C149.995 5.45133 150.069 5.96 150.069 6.52V11H148.627V6.618C148.627 6.26333 148.581 5.946 148.487 5.666C148.394 5.386 148.235 5.16667 148.011 5.008C147.787 4.84933 147.475 4.784 147.073 4.812C146.7 4.812 146.369 4.89133 146.079 5.05C145.79 5.20867 145.561 5.41867 145.393 5.68C145.225 5.94133 145.141 6.23067 145.141 6.548V11H143.699V3.65H145.141V4.812C145.365 4.46667 145.692 4.16333 146.121 3.902C146.551 3.63133 147.027 3.496 147.549 3.496ZM159.068 7.318C159.068 8.06467 158.9 8.72733 158.564 9.306C158.237 9.87533 157.789 10.3233 157.22 10.65C156.66 10.9767 156.03 11.14 155.33 11.14C154.63 11.14 153.995 10.9767 153.426 10.65C152.856 10.3233 152.404 9.87533 152.068 9.306C151.741 8.72733 151.578 8.06467 151.578 7.318C151.578 6.57133 151.741 5.91333 152.068 5.344C152.404 4.76533 152.856 4.31267 153.426 3.986C153.995 3.65933 154.63 3.496 155.33 3.496C156.03 3.496 156.66 3.65933 157.22 3.986C157.789 4.31267 158.237 4.76533 158.564 5.344C158.9 5.91333 159.068 6.57133 159.068 7.318ZM157.598 7.318C157.607 6.82333 157.509 6.38933 157.304 6.016C157.108 5.63333 156.837 5.33933 156.492 5.134C156.146 4.91933 155.759 4.812 155.33 4.812C154.9 4.812 154.508 4.91933 154.154 5.134C153.808 5.33933 153.533 5.63333 153.328 6.016C153.132 6.38933 153.038 6.82333 153.048 7.318C153.038 7.80333 153.132 8.23733 153.328 8.62C153.533 8.99333 153.808 9.28733 154.154 9.502C154.508 9.71667 154.9 9.824 155.33 9.824C155.759 9.824 156.146 9.71667 156.492 9.502C156.837 9.28733 157.108 8.99333 157.304 8.62C157.509 8.23733 157.607 7.80333 157.598 7.318ZM164.377 3.524C164.984 3.524 165.469 3.664 165.833 3.944C166.197 4.21467 166.458 4.588 166.617 5.064C166.748 4.83067 166.939 4.59733 167.191 4.364C167.443 4.12133 167.737 3.92067 168.073 3.762C168.409 3.60333 168.768 3.524 169.151 3.524C169.786 3.524 170.28 3.664 170.635 3.944C170.99 4.21467 171.237 4.58333 171.377 5.05C171.526 5.50733 171.601 6.02067 171.601 6.59V11H170.145V6.674C170.145 6.13267 170.042 5.694 169.837 5.358C169.632 5.022 169.244 4.854 168.675 4.854C168.134 4.854 167.686 5.02667 167.331 5.372C166.986 5.708 166.813 6.11867 166.813 6.604V11H165.357V6.646C165.357 6.12333 165.245 5.694 165.021 5.358C164.797 5.022 164.428 4.854 163.915 4.854C163.56 4.854 163.243 4.93333 162.963 5.092C162.683 5.25067 162.464 5.46067 162.305 5.722C162.146 5.974 162.067 6.25867 162.067 6.576V11H160.611V3.65H162.067V4.826C162.291 4.49 162.604 4.19133 163.005 3.93C163.416 3.65933 163.873 3.524 164.377 3.524ZM180.573 7.318C180.573 8.06467 180.405 8.72733 180.069 9.306C179.743 9.87533 179.295 10.3233 178.725 10.65C178.165 10.9767 177.535 11.14 176.835 11.14C176.135 11.14 175.501 10.9767 174.931 10.65C174.362 10.3233 173.909 9.87533 173.573 9.306C173.247 8.72733 173.083 8.06467 173.083 7.318C173.083 6.57133 173.247 5.91333 173.573 5.344C173.909 4.76533 174.362 4.31267 174.931 3.986C175.501 3.65933 176.135 3.496 176.835 3.496C177.535 3.496 178.165 3.65933 178.725 3.986C179.295 4.31267 179.743 4.76533 180.069 5.344C180.405 5.91333 180.573 6.57133 180.573 7.318ZM179.103 7.318C179.113 6.82333 179.015 6.38933 178.809 6.016C178.613 5.63333 178.343 5.33933 177.997 5.134C177.652 4.91933 177.265 4.812 176.835 4.812C176.406 4.812 176.014 4.91933 175.659 5.134C175.314 5.33933 175.039 5.63333 174.833 6.016C174.637 6.38933 174.544 6.82333 174.553 7.318C174.544 7.80333 174.637 8.23733 174.833 8.62C175.039 8.99333 175.314 9.28733 175.659 9.502C176.014 9.71667 176.406 9.824 176.835 9.824C177.265 9.824 177.652 9.71667 177.997 9.502C178.343 9.28733 178.613 8.99333 178.809 8.62C179.015 8.23733 179.113 7.80333 179.103 7.318ZM187.157 8.074V3.65H188.599V11H187.157V9.824C186.942 10.1693 186.625 10.4773 186.205 10.748C185.794 11.0093 185.299 11.14 184.721 11.14C183.955 11.14 183.335 10.8787 182.859 10.356C182.383 9.83333 182.145 9.11 182.145 8.186V3.65H183.587V7.794C183.587 8.16733 183.643 8.51267 183.755 8.83C183.876 9.14733 184.063 9.404 184.315 9.6C184.576 9.78667 184.907 9.88 185.309 9.88C185.813 9.88 186.247 9.72133 186.611 9.404C186.975 9.08667 187.157 8.64333 187.157 8.074ZM194.863 5.582C194.602 5.32067 194.303 5.106 193.967 4.938C193.641 4.77 193.337 4.686 193.057 4.686C192.861 4.686 192.665 4.70933 192.469 4.756C192.283 4.80267 192.124 4.89133 191.993 5.022C191.863 5.14333 191.797 5.32533 191.797 5.568C191.807 5.904 191.956 6.142 192.245 6.282C192.544 6.422 192.913 6.548 193.351 6.66C193.734 6.76267 194.107 6.89333 194.471 7.052C194.835 7.20133 195.134 7.42533 195.367 7.724C195.61 8.01333 195.731 8.424 195.731 8.956C195.731 9.41333 195.601 9.80533 195.339 10.132C195.087 10.4587 194.756 10.7107 194.345 10.888C193.944 11.056 193.519 11.14 193.071 11.14C192.539 11.14 192.012 11.0467 191.489 10.86C190.976 10.664 190.537 10.3327 190.173 9.866L191.153 9.026C191.405 9.31533 191.69 9.544 192.007 9.712C192.334 9.87067 192.731 9.95 193.197 9.95C193.375 9.95 193.552 9.922 193.729 9.866C193.907 9.80067 194.056 9.70267 194.177 9.572C194.308 9.432 194.373 9.24533 194.373 9.012C194.373 8.788 194.303 8.61533 194.163 8.494C194.033 8.36333 193.855 8.26067 193.631 8.186C193.407 8.102 193.16 8.02733 192.889 7.962C192.488 7.85 192.091 7.71467 191.699 7.556C191.317 7.388 190.995 7.15467 190.733 6.856C190.481 6.548 190.355 6.13267 190.355 5.61C190.355 5.17133 190.477 4.798 190.719 4.49C190.971 4.17267 191.298 3.93 191.699 3.762C192.101 3.58467 192.53 3.496 192.987 3.496C193.426 3.496 193.902 3.58933 194.415 3.776C194.929 3.96267 195.353 4.26133 195.689 4.672L194.863 5.582Z" fill="#99ACD5"/>
</svg>
