<svg width="406" height="211" viewBox="0 0 406 211" fill="none" xmlns="http://www.w3.org/2000/svg">
<path d="M20.808 5.2C24.264 5.2 27.2933 5.79733 29.896 6.992C32.5413 8.144 34.7387 9.76533 36.488 11.856C38.2373 13.904 39.56 16.2933 40.456 19.024C41.352 21.712 41.8 24.5707 41.8 27.6C41.8 31.696 41.0107 35.4507 39.432 38.864C37.8533 42.2347 35.5067 44.944 32.392 46.992C29.2773 48.9973 25.416 50 20.808 50H3.272V5.2H20.808ZM20.488 43.344C23.8587 43.344 26.5893 42.64 28.68 41.232C30.7707 39.7813 32.3067 37.8613 33.288 35.472C34.2693 33.0827 34.76 30.4587 34.76 27.6C34.76 24.784 34.2693 22.1813 33.288 19.792C32.3067 17.4027 30.7707 15.4827 28.68 14.032C26.5893 12.5813 23.8587 11.856 20.488 11.856H10.184V43.344H20.488ZM53.899 9.104C52.4057 9.104 51.2963 8.72 50.571 7.952C49.8457 7.184 49.483 6.18133 49.483 4.944C49.483 3.87733 49.8457 2.91733 50.571 2.064C51.2963 1.21066 52.4057 0.783997 53.899 0.783997C55.3923 0.783997 56.5017 1.168 57.227 1.936C57.9523 2.704 58.315 3.70666 58.315 4.944C58.315 6.01066 57.9523 6.97066 57.227 7.824C56.5017 8.67733 55.3923 9.104 53.899 9.104ZM57.291 50H50.699V16.4H57.291V50ZM71.9035 55.568C73.1835 56.5493 74.7835 57.3387 76.7035 57.936C78.6235 58.5333 80.5008 58.832 82.3355 58.832C85.7915 58.832 88.4368 57.9787 90.2715 56.272C92.1062 54.608 93.0235 52.0907 93.0235 48.72V44.624C92.4262 45.648 91.5728 46.6293 90.4635 47.568C89.3542 48.464 88.0528 49.2107 86.5595 49.808C85.0662 50.3627 83.5088 50.64 81.8875 50.64C78.7728 50.64 75.9568 49.8933 73.4395 48.4C70.9222 46.9067 68.9168 44.8373 67.4235 42.192C65.9728 39.5467 65.2475 36.5387 65.2475 33.168C65.2475 29.7547 65.9728 26.7467 67.4235 24.144C68.8742 21.4987 70.8368 19.4293 73.3115 17.936C75.8288 16.4427 78.6235 15.696 81.6955 15.696C84.2555 15.696 86.5168 16.272 88.4795 17.424C90.4848 18.5333 91.9995 19.7493 93.0235 21.072V16.4H99.6155V47.952C99.6155 51.9627 98.8048 55.184 97.1835 57.616C95.6048 60.0907 93.4928 61.8827 90.8475 62.992C88.2448 64.144 85.4075 64.72 82.3355 64.72C79.9462 64.72 77.5568 64.336 75.1675 63.568C72.8208 62.8427 70.9222 61.8827 69.4715 60.688L71.9035 55.568ZM82.5915 21.712C80.5435 21.712 78.7088 22.224 77.0875 23.248C75.5088 24.2293 74.2502 25.5947 73.3115 27.344C72.4155 29.0507 71.9675 30.992 71.9675 33.168C71.9675 35.344 72.4155 37.2853 73.3115 38.992C74.2502 40.6987 75.5088 42.064 77.0875 43.088C78.7088 44.0693 80.5435 44.56 82.5915 44.56C84.7248 44.56 86.5808 44.0693 88.1595 43.088C89.7808 42.1067 91.0395 40.7627 91.9355 39.056C92.8315 37.3067 93.2795 35.344 93.2795 33.168C93.2795 30.9493 92.8315 28.9867 91.9355 27.28C91.0395 25.5733 89.7808 24.2293 88.1595 23.248C86.5808 22.224 84.7248 21.712 82.5915 21.712ZM113.274 9.104C111.781 9.104 110.671 8.72 109.946 7.952C109.221 7.184 108.858 6.18133 108.858 4.944C108.858 3.87733 109.221 2.91733 109.946 2.064C110.671 1.21066 111.781 0.783997 113.274 0.783997C114.767 0.783997 115.877 1.168 116.602 1.936C117.327 2.704 117.69 3.70666 117.69 4.944C117.69 6.01066 117.327 6.97066 116.602 7.824C115.877 8.67733 114.767 9.104 113.274 9.104ZM116.666 50H110.074V16.4H116.666V50ZM137.423 50H130.831V22.8H123.855V16.4H130.831V7.824H137.423V16.4H145.231V22.8H137.423V50ZM182.217 16.4V50H175.561V44.816C174.537 46.224 173.022 47.5467 171.017 48.784C169.011 50.0213 166.686 50.64 164.041 50.64C161.225 50.64 158.643 49.8933 156.297 48.4C153.993 46.9067 152.158 44.8373 150.793 42.192C149.427 39.5467 148.745 36.5173 148.745 33.104C148.745 29.6907 149.449 26.6827 150.857 24.08C152.265 21.4347 154.206 19.3867 156.681 17.936C159.155 16.4427 161.971 15.696 165.128 15.696C167.475 15.696 169.523 16.208 171.273 17.232C173.065 18.256 174.494 19.4507 175.561 20.816V16.4H182.217ZM165.577 44.56C167.625 44.56 169.417 44.0693 170.953 43.088C172.489 42.064 173.683 40.6987 174.537 38.992C175.39 37.2427 175.817 35.28 175.817 33.104C175.817 30.9707 175.39 29.0507 174.537 27.344C173.683 25.6373 172.489 24.2933 170.953 23.312C169.417 22.288 167.625 21.776 165.577 21.776C163.614 21.776 161.865 22.2667 160.329 23.248C158.793 24.2293 157.598 25.5733 156.745 27.28C155.891 28.9867 155.465 30.928 155.465 33.104C155.465 35.28 155.891 37.2427 156.745 38.992C157.598 40.6987 158.793 42.064 160.329 43.088C161.865 44.0693 163.614 44.56 165.577 44.56ZM191.421 50V2.64H198.013V50H191.421ZM244.558 5.2C248.014 5.2 251.043 5.79733 253.646 6.992C256.291 8.144 258.489 9.76533 260.238 11.856C261.987 13.904 263.31 16.2933 264.206 19.024C265.102 21.712 265.55 24.5707 265.55 27.6C265.55 31.696 264.761 35.4507 263.182 38.864C261.603 42.2347 259.257 44.944 256.142 46.992C253.027 48.9973 249.166 50 244.558 50H227.022V5.2H244.558ZM244.238 43.344C247.609 43.344 250.339 42.64 252.43 41.232C254.521 39.7813 256.057 37.8613 257.038 35.472C258.019 33.0827 258.51 30.4587 258.51 27.6C258.51 24.784 258.019 22.1813 257.038 19.792C256.057 17.4027 254.521 15.4827 252.43 14.032C250.339 12.5813 247.609 11.856 244.238 11.856H233.934V43.344H244.238ZM303.215 50L298.991 38.864H280.239L276.015 50H268.975L286.319 5.2H293.359L310.575 50H303.215ZM286.191 23.248L282.799 32.208H296.495L292.975 22.992C292.42 21.4987 291.866 19.8987 291.311 18.192C290.756 16.4427 290.202 14.6933 289.647 12.944C289.05 14.736 288.452 16.528 287.855 18.32C287.3 20.112 286.746 21.7547 286.191 23.248ZM357.914 27.6C357.914 30.8427 357.38 33.872 356.314 36.688C355.247 39.4613 353.711 41.8933 351.706 43.984C349.743 46.0747 347.418 47.7173 344.729 48.912C342.084 50.064 339.162 50.64 335.962 50.64C332.762 50.64 329.818 50.064 327.13 48.912C324.442 47.7173 322.116 46.0747 320.154 43.984C318.191 41.8933 316.676 39.4613 315.61 36.688C314.543 33.872 314.01 30.8427 314.01 27.6C314.01 24.3573 314.543 21.3493 315.61 18.576C316.676 15.76 318.191 13.3067 320.154 11.216C322.116 9.12533 324.442 7.504 327.13 6.352C329.818 5.15733 332.762 4.56 335.962 4.56C339.162 4.56 342.084 5.15733 344.729 6.352C347.418 7.504 349.743 9.12533 351.706 11.216C353.711 13.3067 355.247 15.76 356.314 18.576C357.38 21.3493 357.914 24.3573 357.914 27.6ZM350.874 27.6C350.874 24.4853 350.234 21.712 348.954 19.28C347.674 16.8053 345.903 14.864 343.642 13.456C341.423 12.0053 338.863 11.28 335.962 11.28C333.018 11.28 330.415 12.0053 328.154 13.456C325.935 14.864 324.186 16.8053 322.906 19.28C321.668 21.712 321.05 24.4853 321.05 27.6C321.05 30.7147 321.668 33.5093 322.906 35.984C324.186 38.416 325.935 40.3573 328.154 41.808C330.415 43.216 333.018 43.92 335.962 43.92C338.863 43.92 341.423 43.216 343.642 41.808C345.903 40.3573 347.674 38.3947 348.954 35.92C350.234 33.4453 350.874 30.672 350.874 27.6ZM37.32 124.496C36.424 125.52 35.1653 126.501 33.544 127.44C31.9653 128.379 30.1307 129.147 28.04 129.744C25.992 130.341 23.7947 130.64 21.448 130.64C17.4373 130.64 13.8107 129.701 10.568 127.824C7.368 125.904 4.808 123.216 2.888 119.76C1.01067 116.304 0.072 112.251 0.072 107.6C0.072 104.315 0.648 101.285 1.8 98.512C2.952 95.7387 4.552 93.328 6.6 91.28C8.648 89.232 10.9947 87.6533 13.64 86.544C16.2853 85.392 19.08 84.816 22.024 84.816C24.456 84.816 26.7173 85.2 28.808 85.968C30.9413 86.6933 32.7973 87.6533 34.376 88.848C35.9973 90 37.256 91.2373 38.152 92.56L33.544 97.36C31.9653 95.7387 30.216 94.3947 28.296 93.328C26.376 92.2613 24.2853 91.728 22.024 91.728C19.464 91.728 17.032 92.368 14.728 93.648C12.4667 94.928 10.632 96.7627 9.224 99.152C7.816 101.499 7.112 104.315 7.112 107.6C7.112 111.184 7.816 114.171 9.224 116.56C10.6747 118.949 12.5733 120.741 14.92 121.936C17.3093 123.088 19.8693 123.664 22.6 123.664C25.1173 123.664 27.336 123.173 29.256 122.192C31.176 121.168 32.712 120.059 33.864 118.864L37.32 124.496ZM77.2375 113.168C77.2375 116.581 76.4695 119.611 74.9335 122.256C73.4402 124.859 71.3922 126.907 68.7895 128.4C66.2295 129.893 63.3495 130.64 60.1495 130.64C56.9495 130.64 54.0482 129.893 51.4455 128.4C48.8428 126.907 46.7735 124.859 45.2375 122.256C43.7442 119.611 42.9975 116.581 42.9975 113.168C42.9975 109.755 43.7442 106.747 45.2375 104.144C46.7735 101.499 48.8428 99.4293 51.4455 97.936C54.0482 96.4427 56.9495 95.696 60.1495 95.696C63.3495 95.696 66.2295 96.4427 68.7895 97.936C71.3922 99.4293 73.4402 101.499 74.9335 104.144C76.4695 106.747 77.2375 109.755 77.2375 113.168ZM70.5175 113.168C70.5602 110.907 70.1122 108.923 69.1735 107.216C68.2775 105.467 67.0402 104.123 65.4615 103.184C63.8828 102.203 62.1122 101.712 60.1495 101.712C58.1868 101.712 56.3948 102.203 54.7735 103.184C53.1948 104.123 51.9362 105.467 50.9975 107.216C50.1015 108.923 49.6748 110.907 49.7175 113.168C49.6748 115.387 50.1015 117.371 50.9975 119.12C51.9362 120.827 53.1948 122.171 54.7735 123.152C56.3948 124.133 58.1868 124.624 60.1495 124.624C62.1122 124.624 63.8828 124.133 65.4615 123.152C67.0402 122.171 68.2775 120.827 69.1735 119.12C70.1122 117.371 70.5602 115.387 70.5175 113.168ZM116.613 113.168C116.613 116.581 115.845 119.611 114.309 122.256C112.815 124.859 110.767 126.907 108.165 128.4C105.605 129.893 102.725 130.64 99.5245 130.64C96.3245 130.64 93.4232 129.893 90.8205 128.4C88.2178 126.907 86.1485 124.859 84.6125 122.256C83.1192 119.611 82.3725 116.581 82.3725 113.168C82.3725 109.755 83.1192 106.747 84.6125 104.144C86.1485 101.499 88.2178 99.4293 90.8205 97.936C93.4232 96.4427 96.3245 95.696 99.5245 95.696C102.725 95.696 105.605 96.4427 108.165 97.936C110.767 99.4293 112.815 101.499 114.309 104.144C115.845 106.747 116.613 109.755 116.613 113.168ZM109.893 113.168C109.935 110.907 109.487 108.923 108.549 107.216C107.653 105.467 106.415 104.123 104.837 103.184C103.258 102.203 101.487 101.712 99.5245 101.712C97.5618 101.712 95.7698 102.203 94.1485 103.184C92.5698 104.123 91.3112 105.467 90.3725 107.216C89.4765 108.923 89.0498 110.907 89.0925 113.168C89.0498 115.387 89.4765 117.371 90.3725 119.12C91.3112 120.827 92.5698 122.171 94.1485 123.152C95.7698 124.133 97.5618 124.624 99.5245 124.624C101.487 124.624 103.258 124.133 104.837 123.152C106.415 122.171 107.653 120.827 108.549 119.12C109.487 117.371 109.935 115.387 109.893 113.168ZM141.332 95.824C144.318 95.824 146.985 96.5707 149.332 98.064C151.721 99.5147 153.598 101.541 154.964 104.144C156.329 106.747 157.012 109.755 157.012 113.168C157.012 116.539 156.329 119.547 154.964 122.192C153.598 124.795 151.742 126.843 149.396 128.336C147.049 129.829 144.425 130.576 141.524 130.576C139.134 130.576 136.958 130.064 134.996 129.04C133.076 128.016 131.561 126.843 130.452 125.52V144.08H123.796V96.336H130.452V101.264C131.433 99.856 132.905 98.5973 134.868 97.488C136.83 96.3787 138.985 95.824 141.332 95.824ZM140.436 101.904C138.43 101.904 136.638 102.395 135.06 103.376C133.524 104.357 132.308 105.701 131.412 107.408C130.558 109.072 130.132 110.992 130.132 113.168C130.132 115.301 130.558 117.221 131.412 118.928C132.308 120.635 133.524 122 135.06 123.024C136.638 124.005 138.43 124.496 140.436 124.496C142.441 124.496 144.212 124.005 145.748 123.024C147.284 122 148.478 120.635 149.332 118.928C150.228 117.221 150.676 115.301 150.676 113.168C150.676 110.992 150.228 109.072 149.332 107.408C148.478 105.701 147.284 104.357 145.748 103.376C144.212 102.395 142.441 101.904 140.436 101.904ZM193.035 125.584H192.971C191.605 126.907 189.728 128.08 187.339 129.104C184.949 130.128 182.453 130.64 179.851 130.64C176.352 130.64 173.259 129.915 170.571 128.464C167.925 126.971 165.856 124.944 164.363 122.384C162.869 119.781 162.123 116.837 162.123 113.552C162.123 109.797 162.912 106.597 164.491 103.952C166.069 101.264 168.16 99.216 170.763 97.808C173.365 96.3573 176.203 95.632 179.275 95.632C182.091 95.632 184.651 96.336 186.955 97.744C189.259 99.1093 191.093 101.008 192.458 103.44C193.824 105.872 194.507 108.709 194.507 111.952L194.443 114.768H168.715C169.099 117.797 170.336 120.208 172.427 122C174.56 123.749 177.248 124.624 180.491 124.624C182.837 124.624 184.736 124.197 186.187 123.344C187.637 122.448 188.832 121.595 189.771 120.784L193.035 125.584ZM179.275 101.712C176.757 101.712 174.56 102.309 172.683 103.504C170.805 104.656 169.568 106.661 168.97 109.52H187.787V109.072C187.659 107.621 187.168 106.341 186.315 105.232C185.504 104.123 184.48 103.269 183.243 102.672C182.005 102.032 180.683 101.712 179.275 101.712ZM220.487 103.504C220.06 103.291 219.527 103.12 218.887 102.992C218.289 102.821 217.649 102.736 216.967 102.736C215.601 102.736 214.257 103.099 212.935 103.824C211.612 104.507 210.503 105.509 209.607 106.832C208.753 108.112 208.327 109.648 208.327 111.44V130H201.671V96.4H208.327V102.736C209.265 100.688 210.673 99.0027 212.551 97.68C214.471 96.3573 216.476 95.696 218.567 95.696C220.145 95.696 221.361 95.9093 222.215 96.336L220.487 103.504ZM257.342 96.4V130H250.686V124.816C249.662 126.224 248.147 127.547 246.142 128.784C244.136 130.021 241.811 130.64 239.166 130.64C236.35 130.64 233.768 129.893 231.422 128.4C229.118 126.907 227.283 124.837 225.918 122.192C224.552 119.547 223.87 116.517 223.87 113.104C223.87 109.691 224.574 106.683 225.982 104.08C227.39 101.435 229.331 99.3867 231.806 97.936C234.28 96.4427 237.096 95.696 240.253 95.696C242.6 95.696 244.648 96.208 246.398 97.232C248.19 98.256 249.619 99.4507 250.686 100.816V96.4H257.342ZM240.702 124.56C242.75 124.56 244.542 124.069 246.078 123.088C247.614 122.064 248.808 120.699 249.662 118.992C250.515 117.243 250.942 115.28 250.942 113.104C250.942 110.971 250.515 109.051 249.662 107.344C248.808 105.637 247.614 104.293 246.078 103.312C244.542 102.288 242.75 101.776 240.702 101.776C238.739 101.776 236.99 102.267 235.454 103.248C233.918 104.229 232.723 105.573 231.87 107.28C231.016 108.987 230.59 110.928 230.59 113.104C230.59 115.28 231.016 117.243 231.87 118.992C232.723 120.699 233.918 122.064 235.454 123.088C236.99 124.069 238.739 124.56 240.702 124.56ZM277.298 130H270.706V102.8H263.73V96.4H270.706V87.824H277.298V96.4H285.106V102.8H277.298V130ZM295.524 89.104C294.031 89.104 292.921 88.72 292.196 87.952C291.471 87.184 291.108 86.1813 291.108 84.944C291.108 83.8773 291.471 82.9173 292.196 82.064C292.921 81.2107 294.031 80.784 295.524 80.784C297.017 80.784 298.127 81.168 298.852 81.936C299.577 82.704 299.94 83.7067 299.94 84.944C299.94 86.0107 299.577 86.9707 298.852 87.824C298.127 88.6773 297.017 89.104 295.524 89.104ZM298.916 130H292.324V96.4H298.916V130ZM312.825 96.4L322.617 120.4L332.793 96.4H339.576L324.665 130H319.929L305.721 96.4H312.825ZM373.535 125.584H373.471C372.105 126.907 370.228 128.08 367.839 129.104C365.449 130.128 362.953 130.64 360.351 130.64C356.852 130.64 353.759 129.915 351.071 128.464C348.425 126.971 346.356 124.944 344.863 122.384C343.369 119.781 342.623 116.837 342.623 113.552C342.623 109.797 343.412 106.597 344.991 103.952C346.569 101.264 348.66 99.216 351.263 97.808C353.865 96.3573 356.703 95.632 359.775 95.632C362.591 95.632 365.151 96.336 367.455 97.744C369.759 99.1093 371.593 101.008 372.958 103.44C374.324 105.872 375.007 108.709 375.007 111.952L374.943 114.768H349.215C349.599 117.797 350.836 120.208 352.927 122C355.06 123.749 357.748 124.624 360.991 124.624C363.337 124.624 365.236 124.197 366.687 123.344C368.137 122.448 369.332 121.595 370.271 120.784L373.535 125.584ZM359.775 101.712C357.257 101.712 355.06 102.309 353.183 103.504C351.305 104.656 350.068 106.661 349.47 109.52H368.287V109.072C368.159 107.621 367.668 106.341 366.815 105.232C366.004 104.123 364.98 103.269 363.743 102.672C362.505 102.032 361.183 101.712 359.775 101.712ZM401.563 105.232C400.368 104.037 399.003 103.056 397.467 102.288C395.973 101.52 394.587 101.136 393.307 101.136C392.411 101.136 391.515 101.243 390.619 101.456C389.765 101.669 389.04 102.075 388.443 102.672C387.845 103.227 387.547 104.059 387.547 105.168C387.589 106.704 388.272 107.792 389.595 108.432C390.96 109.072 392.645 109.648 394.651 110.16C396.4 110.629 398.107 111.227 399.771 111.952C401.435 112.635 402.8 113.659 403.867 115.024C404.976 116.347 405.531 118.224 405.531 120.656C405.531 122.747 404.933 124.539 403.739 126.032C402.587 127.525 401.072 128.677 399.195 129.488C397.36 130.256 395.419 130.64 393.371 130.64C390.939 130.64 388.528 130.213 386.139 129.36C383.792 128.464 381.787 126.949 380.123 124.816L384.603 120.976C385.755 122.299 387.056 123.344 388.507 124.112C390 124.837 391.813 125.2 393.947 125.2C394.757 125.2 395.568 125.072 396.378 124.816C397.189 124.517 397.872 124.069 398.427 123.472C399.024 122.832 399.323 121.979 399.323 120.912C399.323 119.888 399.003 119.099 398.363 118.544C397.765 117.947 396.955 117.477 395.931 117.136C394.907 116.752 393.776 116.411 392.539 116.112C390.704 115.6 388.891 114.981 387.099 114.256C385.349 113.488 383.877 112.421 382.683 111.056C381.531 109.648 380.955 107.749 380.955 105.36C380.955 103.355 381.509 101.648 382.619 100.24C383.771 98.7893 385.264 97.68 387.099 96.912C388.933 96.1013 390.896 95.696 392.987 95.696C394.992 95.696 397.168 96.1227 399.515 96.976C401.861 97.8293 403.803 99.1947 405.339 101.072L401.563 105.232ZM21.512 165.2C23.9013 165.2 26.0987 165.819 28.104 167.056C30.1093 168.251 31.7093 169.893 32.904 171.984C34.0987 174.032 34.696 176.357 34.696 178.96C34.696 181.52 34.0987 183.867 32.904 186C31.7093 188.091 30.1093 189.755 28.104 190.992C26.0987 192.229 23.9013 192.848 21.512 192.848H10.184V210H3.272V165.2H21.512ZM21.384 186.192C22.536 186.192 23.5813 185.872 24.52 185.232C25.4587 184.549 26.2053 183.675 26.76 182.608C27.3573 181.499 27.656 180.283 27.656 178.96C27.656 176.955 27.0373 175.269 25.8 173.904C24.5627 172.539 23.0907 171.856 21.384 171.856H10.184V186.192H21.384ZM42.1705 210V162.64H48.7625V210H42.1705ZM88.8415 176.4V210H82.1855V204.816C81.1615 206.224 79.6468 207.547 77.6415 208.784C75.6362 210.021 73.3108 210.64 70.6655 210.64C67.8495 210.64 65.2682 209.893 62.9215 208.4C60.6175 206.907 58.7828 204.837 57.4175 202.192C56.0522 199.547 55.3695 196.517 55.3695 193.104C55.3695 189.691 56.0735 186.683 57.4815 184.08C58.8895 181.435 60.8308 179.387 63.3055 177.936C65.7802 176.443 68.5962 175.696 71.7535 175.696C74.1002 175.696 76.1482 176.208 77.8975 177.232C79.6895 178.256 81.1188 179.451 82.1855 180.816V176.4H88.8415ZM72.2015 204.56C74.2495 204.56 76.0415 204.069 77.5775 203.088C79.1135 202.064 80.3082 200.699 81.1615 198.992C82.0148 197.243 82.4415 195.28 82.4415 193.104C82.4415 190.971 82.0148 189.051 81.1615 187.344C80.3082 185.637 79.1135 184.293 77.5775 183.312C76.0415 182.288 74.2495 181.776 72.2015 181.776C70.2388 181.776 68.4895 182.267 66.9535 183.248C65.4175 184.229 64.2228 185.573 63.3695 187.28C62.5162 188.987 62.0895 190.928 62.0895 193.104C62.0895 195.28 62.5162 197.243 63.3695 198.992C64.2228 200.699 65.4175 202.064 66.9535 203.088C68.4895 204.069 70.2388 204.56 72.2015 204.56ZM108.798 210H102.206V182.8H95.2295V176.4H102.206V167.824H108.798V176.4H116.606V182.8H108.798V210ZM139.223 183.056H131.287V210H124.631V183.056H119.255V176.976H124.631V172.624C124.631 169.723 125.548 167.355 127.383 165.52C129.26 163.643 131.671 162.704 134.615 162.704C136.322 162.704 137.73 163.024 138.839 163.664C139.991 164.304 140.823 164.923 141.335 165.52L139.095 170.576C138.668 170.149 138.114 169.765 137.431 169.424C136.748 169.04 136.066 168.848 135.383 168.848C133.847 168.848 132.78 169.211 132.183 169.936C131.586 170.661 131.287 171.557 131.287 172.624V176.976H139.223V183.056ZM177.05 193.168C177.05 196.581 176.282 199.611 174.746 202.256C173.253 204.859 171.205 206.907 168.602 208.4C166.042 209.893 163.162 210.64 159.962 210.64C156.762 210.64 153.861 209.893 151.258 208.4C148.655 206.907 146.586 204.859 145.05 202.256C143.557 199.611 142.81 196.581 142.81 193.168C142.81 189.755 143.557 186.747 145.05 184.144C146.586 181.499 148.655 179.429 151.258 177.936C153.861 176.443 156.762 175.696 159.962 175.696C163.162 175.696 166.042 176.443 168.602 177.936C171.205 179.429 173.253 181.499 174.746 184.144C176.282 186.747 177.05 189.755 177.05 193.168ZM170.33 193.168C170.373 190.907 169.925 188.923 168.986 187.216C168.09 185.467 166.853 184.123 165.274 183.184C163.695 182.203 161.925 181.712 159.962 181.712C157.999 181.712 156.207 182.203 154.586 183.184C153.007 184.123 151.749 185.467 150.81 187.216C149.914 188.923 149.487 190.907 149.53 193.168C149.487 195.387 149.914 197.371 150.81 199.12C151.749 200.827 153.007 202.171 154.586 203.152C156.207 204.133 157.999 204.624 159.962 204.624C161.925 204.624 163.695 204.133 165.274 203.152C166.853 202.171 168.09 200.827 168.986 199.12C169.925 197.371 170.373 195.387 170.33 193.168ZM203.049 183.504C202.622 183.291 202.089 183.12 201.449 182.992C200.852 182.821 200.212 182.736 199.529 182.736C198.164 182.736 196.82 183.099 195.497 183.824C194.174 184.507 193.065 185.509 192.169 186.832C191.316 188.112 190.889 189.648 190.889 191.44V210H184.233V176.4H190.889V182.736C191.828 180.688 193.236 179.003 195.113 177.68C197.033 176.357 199.038 175.696 201.129 175.696C202.708 175.696 203.924 175.909 204.777 176.336L203.049 183.504ZM227.134 175.824C229.907 175.824 232.126 176.464 233.79 177.744C235.454 178.981 236.648 180.688 237.374 182.864C237.971 181.797 238.846 180.731 239.998 179.664C241.15 178.555 242.494 177.637 244.03 176.912C245.566 176.187 247.208 175.824 248.958 175.824C251.859 175.824 254.12 176.464 255.742 177.744C257.363 178.981 258.494 180.667 259.134 182.8C259.816 184.891 260.158 187.237 260.158 189.84V210H253.502V190.224C253.502 187.749 253.032 185.744 252.094 184.208C251.155 182.672 249.384 181.904 246.782 181.904C244.307 181.904 242.259 182.693 240.638 184.272C239.059 185.808 238.27 187.685 238.27 189.904V210H231.614V190.096C231.614 187.707 231.102 185.744 230.078 184.208C229.054 182.672 227.368 181.904 225.022 181.904C223.4 181.904 221.95 182.267 220.67 182.992C219.39 183.717 218.387 184.677 217.662 185.872C216.936 187.024 216.574 188.325 216.574 189.776V210H209.918V176.4H216.574V181.776C217.598 180.24 219.027 178.875 220.862 177.68C222.739 176.443 224.83 175.824 227.134 175.824Z" fill="black"/>
</svg>
