<svg width="302" height="55" viewBox="0 0 302 55" fill="none" xmlns="http://www.w3.org/2000/svg">
<path d="M7.928 2.2C9.224 2.2 10.36 2.424 11.336 2.872C12.328 3.304 13.152 3.912 13.808 4.696C14.464 5.464 14.96 6.36 15.296 7.384C15.632 8.392 15.8 9.464 15.8 10.6C15.8 12.136 15.504 13.544 14.912 14.824C14.32 16.088 13.44 17.104 12.272 17.872C11.104 18.624 9.656 19 7.928 19H1.352V2.2H7.928ZM7.808 16.504C9.072 16.504 10.096 16.24 10.88 15.712C11.664 15.168 12.24 14.448 12.608 13.552C12.976 12.656 13.16 11.672 13.16 10.6C13.16 9.544 12.976 8.568 12.608 7.672C12.24 6.776 11.664 6.056 10.88 5.512C10.096 4.968 9.072 4.696 7.808 4.696H3.944V16.504H7.808ZM20.3371 3.664C19.7771 3.664 19.3611 3.52 19.0891 3.232C18.8171 2.944 18.6811 2.568 18.6811 2.104C18.6811 1.704 18.8171 1.344 19.0891 1.024C19.3611 0.703999 19.7771 0.543999 20.3371 0.543999C20.8971 0.543999 21.3131 0.687999 21.5851 0.975999C21.8571 1.264 21.9931 1.64 21.9931 2.104C21.9931 2.504 21.8571 2.864 21.5851 3.184C21.3131 3.504 20.8971 3.664 20.3371 3.664ZM21.6091 19H19.1371V6.4H21.6091V19ZM32.6328 9.712C32.1848 9.264 31.6728 8.896 31.0968 8.608C30.5368 8.32 30.0168 8.176 29.5368 8.176C29.2008 8.176 28.8648 8.216 28.5288 8.296C28.2088 8.376 27.9368 8.528 27.7128 8.752C27.4888 8.96 27.3768 9.272 27.3768 9.688C27.3928 10.264 27.6488 10.672 28.1448 10.912C28.6568 11.152 29.2888 11.368 30.0408 11.56C30.6968 11.736 31.3368 11.96 31.9608 12.232C32.5848 12.488 33.0968 12.872 33.4968 13.384C33.9128 13.88 34.1208 14.584 34.1208 15.496C34.1208 16.28 33.8968 16.952 33.4488 17.512C33.0168 18.072 32.4488 18.504 31.7448 18.808C31.0568 19.096 30.3288 19.24 29.5608 19.24C28.6488 19.24 27.7448 19.08 26.8488 18.76C25.9688 18.424 25.2168 17.856 24.5928 17.056L26.2728 15.616C26.7048 16.112 27.1928 16.504 27.7368 16.792C28.2968 17.064 28.9768 17.2 29.7768 17.2C30.0808 17.2 30.3848 17.152 30.6888 17.056C30.9928 16.944 31.2488 16.776 31.4568 16.552C31.6808 16.312 31.7928 15.992 31.7928 15.592C31.7928 15.208 31.6728 14.912 31.4328 14.704C31.2088 14.48 30.9048 14.304 30.5208 14.176C30.1368 14.032 29.7128 13.904 29.2488 13.792C28.5608 13.6 27.8808 13.368 27.2088 13.096C26.5528 12.808 26.0008 12.408 25.5528 11.896C25.1208 11.368 24.9048 10.656 24.9048 9.76C24.9048 9.008 25.1128 8.368 25.5288 7.84C25.9608 7.296 26.5208 6.88 27.2088 6.592C27.8968 6.288 28.6328 6.136 29.4168 6.136C30.1688 6.136 30.9848 6.296 31.8648 6.616C32.7448 6.936 33.4728 7.448 34.0488 8.152L32.6328 9.712ZM43.9012 9.064C43.7412 8.984 43.5412 8.92 43.3012 8.872C43.0772 8.808 42.8372 8.776 42.5812 8.776C42.0692 8.776 41.5652 8.912 41.0692 9.184C40.5732 9.44 40.1572 9.816 39.8212 10.312C39.5012 10.792 39.3412 11.368 39.3412 12.04V19H36.8452V6.4H39.3412V8.776C39.6932 8.008 40.2212 7.376 40.9252 6.88C41.6452 6.384 42.3972 6.136 43.1812 6.136C43.7732 6.136 44.2292 6.216 44.5492 6.376L43.9012 9.064ZM55.1169 13.984V6.4H57.5889V19H55.1169V16.984C54.7489 17.576 54.2049 18.104 53.4849 18.568C52.7809 19.016 51.9329 19.24 50.9409 19.24C49.6289 19.24 48.5649 18.792 47.7489 17.896C46.9329 17 46.5249 15.76 46.5249 14.176V6.4H48.9969V13.504C48.9969 14.144 49.0929 14.736 49.2849 15.28C49.4929 15.824 49.8129 16.264 50.2449 16.6C50.6929 16.92 51.2609 17.08 51.9489 17.08C52.8129 17.08 53.5569 16.808 54.1809 16.264C54.8049 15.72 55.1169 14.96 55.1169 13.984ZM67.6321 6.184C68.7521 6.184 69.7521 6.464 70.6321 7.024C71.5281 7.568 72.2321 8.328 72.7441 9.304C73.2561 10.28 73.5121 11.408 73.5121 12.688C73.5121 13.952 73.2561 15.08 72.7441 16.072C72.2321 17.048 71.5361 17.816 70.6561 18.376C69.7761 18.936 68.7921 19.216 67.7041 19.216C66.8081 19.216 65.9921 19.024 65.2561 18.64C64.5361 18.256 63.9681 17.816 63.5521 17.32V24.28H61.0561V6.376H63.5521V8.224C63.9201 7.696 64.4721 7.224 65.2081 6.808C65.9441 6.392 66.7521 6.184 67.6321 6.184ZM67.2961 8.464C66.5441 8.464 65.8721 8.648 65.2801 9.016C64.7041 9.384 64.2481 9.888 63.9121 10.528C63.5921 11.152 63.4321 11.872 63.4321 12.688C63.4321 13.488 63.5921 14.208 63.9121 14.848C64.2481 15.488 64.7041 16 65.2801 16.384C65.8721 16.752 66.5441 16.936 67.2961 16.936C68.0481 16.936 68.7121 16.752 69.2881 16.384C69.8641 16 70.3121 15.488 70.6321 14.848C70.9681 14.208 71.1361 13.488 71.1361 12.688C71.1361 11.872 70.9681 11.152 70.6321 10.528C70.3121 9.888 69.8641 9.384 69.2881 9.016C68.7121 8.648 68.0481 8.464 67.2961 8.464ZM80.2288 19H77.7568V8.8H75.1408V6.4H77.7568V3.184H80.2288V6.4H83.1568V8.8H80.2288V19ZM87.0637 3.664C86.5037 3.664 86.0877 3.52 85.8157 3.232C85.5437 2.944 85.4077 2.568 85.4077 2.104C85.4077 1.704 85.5437 1.344 85.8157 1.024C86.0877 0.703999 86.5037 0.543999 87.0637 0.543999C87.6237 0.543999 88.0397 0.687999 88.3117 0.975999C88.5837 1.264 88.7197 1.64 88.7197 2.104C88.7197 2.504 88.5837 2.864 88.3117 3.184C88.0397 3.504 87.6237 3.664 87.0637 3.664ZM88.3357 19H85.8637V6.4H88.3357V19ZM93.5514 6.4L97.2234 15.4L101.039 6.4H103.583L97.9914 19H96.2154L90.8874 6.4H93.5514ZM116.318 17.344H116.294C115.782 17.84 115.078 18.28 114.182 18.664C113.286 19.048 112.35 19.24 111.374 19.24C110.062 19.24 108.902 18.968 107.894 18.424C106.902 17.864 106.126 17.104 105.566 16.144C105.006 15.168 104.726 14.064 104.726 12.832C104.726 11.424 105.022 10.224 105.614 9.232C106.206 8.224 106.99 7.456 107.966 6.928C108.942 6.384 110.006 6.112 111.158 6.112C112.214 6.112 113.174 6.376 114.038 6.904C114.902 7.416 115.59 8.128 116.102 9.04C116.614 9.952 116.87 11.016 116.87 12.232L116.846 13.288H107.198C107.342 14.424 107.806 15.328 108.59 16C109.39 16.656 110.398 16.984 111.614 16.984C112.494 16.984 113.206 16.824 113.75 16.504C114.294 16.168 114.742 15.848 115.094 15.544L116.318 17.344ZM111.158 8.392C110.214 8.392 109.39 8.616 108.686 9.064C107.982 9.496 107.518 10.248 107.294 11.32H114.35V11.152C114.302 10.608 114.118 10.128 113.798 9.712C113.494 9.296 113.11 8.976 112.646 8.752C112.182 8.512 111.686 8.392 111.158 8.392ZM132.859 6.184C133.979 6.184 134.979 6.464 135.859 7.024C136.755 7.568 137.459 8.328 137.971 9.304C138.483 10.28 138.739 11.408 138.739 12.688C138.739 13.952 138.483 15.08 137.971 16.072C137.459 17.048 136.763 17.816 135.883 18.376C135.003 18.936 134.019 19.216 132.931 19.216C132.035 19.216 131.219 19.024 130.483 18.64C129.763 18.256 129.195 17.816 128.779 17.32V24.28H126.283V6.376H128.779V8.224C129.147 7.696 129.699 7.224 130.435 6.808C131.171 6.392 131.979 6.184 132.859 6.184ZM132.523 8.464C131.771 8.464 131.099 8.648 130.507 9.016C129.931 9.384 129.475 9.888 129.139 10.528C128.819 11.152 128.659 11.872 128.659 12.688C128.659 13.488 128.819 14.208 129.139 14.848C129.475 15.488 129.931 16 130.507 16.384C131.099 16.752 131.771 16.936 132.523 16.936C133.275 16.936 133.939 16.752 134.515 16.384C135.091 16 135.539 15.488 135.859 14.848C136.195 14.208 136.363 13.488 136.363 12.688C136.363 11.872 136.195 11.152 135.859 10.528C135.539 9.888 135.091 9.384 134.515 9.016C133.939 8.648 133.275 8.464 132.523 8.464ZM148.479 9.064C148.319 8.984 148.119 8.92 147.879 8.872C147.655 8.808 147.415 8.776 147.159 8.776C146.647 8.776 146.143 8.912 145.647 9.184C145.151 9.44 144.735 9.816 144.399 10.312C144.079 10.792 143.919 11.368 143.919 12.04V19H141.423V6.4H143.919V8.776C144.271 8.008 144.799 7.376 145.503 6.88C146.223 6.384 146.975 6.136 147.759 6.136C148.351 6.136 148.807 6.216 149.127 6.376L148.479 9.064ZM162.636 12.688C162.636 13.968 162.348 15.104 161.772 16.096C161.212 17.072 160.444 17.84 159.468 18.4C158.508 18.96 157.428 19.24 156.228 19.24C155.028 19.24 153.94 18.96 152.964 18.4C151.988 17.84 151.212 17.072 150.636 16.096C150.076 15.104 149.796 13.968 149.796 12.688C149.796 11.408 150.076 10.28 150.636 9.304C151.212 8.312 151.988 7.536 152.964 6.976C153.94 6.416 155.028 6.136 156.228 6.136C157.428 6.136 158.508 6.416 159.468 6.976C160.444 7.536 161.212 8.312 161.772 9.304C162.348 10.28 162.636 11.408 162.636 12.688ZM160.116 12.688C160.132 11.84 159.964 11.096 159.612 10.456C159.276 9.8 158.812 9.296 158.22 8.944C157.628 8.576 156.964 8.392 156.228 8.392C155.492 8.392 154.82 8.576 154.212 8.944C153.62 9.296 153.148 9.8 152.796 10.456C152.46 11.096 152.3 11.84 152.316 12.688C152.3 13.52 152.46 14.264 152.796 14.92C153.148 15.56 153.62 16.064 154.212 16.432C154.82 16.8 155.492 16.984 156.228 16.984C156.964 16.984 157.628 16.8 158.22 16.432C158.812 16.064 159.276 15.56 159.612 14.92C159.964 14.264 160.132 13.52 160.116 12.688ZM168.114 19.576C168.114 20.424 167.922 21.16 167.538 21.784C167.17 22.408 166.658 22.888 166.002 23.224C165.346 23.56 164.61 23.728 163.794 23.728L162.858 21.832C163.834 21.832 164.538 21.576 164.97 21.064C165.418 20.552 165.642 19.856 165.642 18.976V6.4H168.114V19.576ZM166.938 3.52C166.378 3.52 165.962 3.376 165.69 3.088C165.418 2.8 165.282 2.424 165.282 1.96C165.282 1.56 165.418 1.2 165.69 0.879999C165.962 0.559999 166.378 0.399999 166.938 0.399999C167.498 0.399999 167.914 0.543999 168.186 0.831999C168.458 1.12 168.594 1.496 168.594 1.96C168.594 2.36 168.458 2.72 168.186 3.04C167.914 3.36 167.498 3.52 166.938 3.52ZM182.458 17.344H182.434C181.922 17.84 181.218 18.28 180.322 18.664C179.426 19.048 178.49 19.24 177.514 19.24C176.202 19.24 175.042 18.968 174.034 18.424C173.042 17.864 172.266 17.104 171.706 16.144C171.146 15.168 170.866 14.064 170.866 12.832C170.866 11.424 171.162 10.224 171.754 9.232C172.346 8.224 173.13 7.456 174.106 6.928C175.082 6.384 176.146 6.112 177.298 6.112C178.354 6.112 179.314 6.376 180.178 6.904C181.042 7.416 181.73 8.128 182.242 9.04C182.754 9.952 183.01 11.016 183.01 12.232L182.986 13.288H173.338C173.482 14.424 173.946 15.328 174.73 16C175.53 16.656 176.538 16.984 177.754 16.984C178.634 16.984 179.346 16.824 179.89 16.504C180.434 16.168 180.882 15.848 181.234 15.544L182.458 17.344ZM177.298 8.392C176.354 8.392 175.53 8.616 174.826 9.064C174.122 9.496 173.658 10.248 173.434 11.32H180.49V11.152C180.442 10.608 180.258 10.128 179.938 9.712C179.634 9.296 179.25 8.976 178.786 8.752C178.322 8.512 177.826 8.392 177.298 8.392ZM187.281 12.688C187.281 13.52 187.465 14.264 187.833 14.92C188.217 15.56 188.713 16.072 189.321 16.456C189.945 16.824 190.609 17.008 191.313 17.008C192.113 17.008 192.809 16.8 193.401 16.384C193.993 15.968 194.473 15.536 194.841 15.088L196.209 16.768C195.905 17.2 195.489 17.608 194.961 17.992C194.433 18.36 193.833 18.664 193.161 18.904C192.489 19.128 191.785 19.24 191.049 19.24C189.897 19.24 188.857 18.952 187.929 18.376C187.001 17.8 186.265 17.016 185.721 16.024C185.193 15.032 184.929 13.92 184.929 12.688C184.929 11.44 185.193 10.328 185.721 9.352C186.265 8.36 187.001 7.576 187.929 7C188.857 6.424 189.897 6.136 191.049 6.136C192.217 6.136 193.257 6.376 194.169 6.856C195.081 7.32 195.761 7.928 196.209 8.68L194.841 10.36C194.473 9.816 193.945 9.352 193.257 8.968C192.585 8.568 191.929 8.368 191.289 8.368C190.537 8.368 189.857 8.56 189.249 8.944C188.641 9.312 188.161 9.824 187.809 10.48C187.457 11.12 187.281 11.856 187.281 12.688ZM202.573 19H200.101V8.8H197.485V6.4H200.101V3.184H202.573V6.4H205.501V8.8H202.573V19ZM215.492 9.712C215.044 9.264 214.532 8.896 213.956 8.608C213.396 8.32 212.876 8.176 212.396 8.176C212.06 8.176 211.724 8.216 211.388 8.296C211.068 8.376 210.796 8.528 210.572 8.752C210.348 8.96 210.236 9.272 210.236 9.688C210.252 10.264 210.508 10.672 211.004 10.912C211.516 11.152 212.148 11.368 212.9 11.56C213.556 11.736 214.196 11.96 214.82 12.232C215.444 12.488 215.956 12.872 216.356 13.384C216.772 13.88 216.98 14.584 216.98 15.496C216.98 16.28 216.756 16.952 216.308 17.512C215.876 18.072 215.308 18.504 214.604 18.808C213.916 19.096 213.188 19.24 212.42 19.24C211.508 19.24 210.604 19.08 209.708 18.76C208.828 18.424 208.076 17.856 207.452 17.056L209.132 15.616C209.564 16.112 210.052 16.504 210.596 16.792C211.156 17.064 211.836 17.2 212.636 17.2C212.94 17.2 213.244 17.152 213.548 17.056C213.852 16.944 214.108 16.776 214.316 16.552C214.54 16.312 214.652 15.992 214.652 15.592C214.652 15.208 214.532 14.912 214.292 14.704C214.068 14.48 213.764 14.304 213.38 14.176C212.996 14.032 212.572 13.904 212.108 13.792C211.42 13.6 210.74 13.368 210.068 13.096C209.412 12.808 208.86 12.408 208.412 11.896C207.98 11.368 207.764 10.656 207.764 9.76C207.764 9.008 207.972 8.368 208.388 7.84C208.82 7.296 209.38 6.88 210.068 6.592C210.756 6.288 211.492 6.136 212.276 6.136C213.028 6.136 213.844 6.296 214.724 6.616C215.604 6.936 216.332 7.448 216.908 8.152L215.492 9.712ZM233.271 8.896H230.295V19H227.799V8.896H225.783V6.616H227.799V4.984C227.799 3.896 228.143 3.008 228.831 2.32C229.535 1.616 230.439 1.264 231.543 1.264C232.183 1.264 232.711 1.384 233.127 1.624C233.559 1.864 233.871 2.096 234.063 2.32L233.223 4.216C233.063 4.056 232.855 3.912 232.599 3.784C232.343 3.64 232.087 3.568 231.831 3.568C231.255 3.568 230.855 3.704 230.631 3.976C230.407 4.248 230.295 4.584 230.295 4.984V6.616H233.271V8.896ZM247.456 12.688C247.456 13.968 247.168 15.104 246.592 16.096C246.032 17.072 245.264 17.84 244.288 18.4C243.328 18.96 242.248 19.24 241.048 19.24C239.848 19.24 238.76 18.96 237.784 18.4C236.808 17.84 236.032 17.072 235.456 16.096C234.896 15.104 234.616 13.968 234.616 12.688C234.616 11.408 234.896 10.28 235.456 9.304C236.032 8.312 236.808 7.536 237.784 6.976C238.76 6.416 239.848 6.136 241.048 6.136C242.248 6.136 243.328 6.416 244.288 6.976C245.264 7.536 246.032 8.312 246.592 9.304C247.168 10.28 247.456 11.408 247.456 12.688ZM244.936 12.688C244.952 11.84 244.784 11.096 244.432 10.456C244.096 9.8 243.632 9.296 243.04 8.944C242.448 8.576 241.784 8.392 241.048 8.392C240.312 8.392 239.64 8.576 239.032 8.944C238.44 9.296 237.968 9.8 237.616 10.456C237.28 11.096 237.12 11.84 237.136 12.688C237.12 13.52 237.28 14.264 237.616 14.92C237.968 15.56 238.44 16.064 239.032 16.432C239.64 16.8 240.312 16.984 241.048 16.984C241.784 16.984 242.448 16.8 243.04 16.432C243.632 16.064 244.096 15.56 244.432 14.92C244.784 14.264 244.952 13.52 244.936 12.688ZM257.206 9.064C257.046 8.984 256.846 8.92 256.606 8.872C256.382 8.808 256.142 8.776 255.886 8.776C255.374 8.776 254.87 8.912 254.374 9.184C253.878 9.44 253.462 9.816 253.126 10.312C252.806 10.792 252.646 11.368 252.646 12.04V19H250.15V6.4H252.646V8.776C252.998 8.008 253.526 7.376 254.23 6.88C254.95 6.384 255.702 6.136 256.486 6.136C257.078 6.136 257.534 6.216 257.854 6.376L257.206 9.064ZM270.588 19H268.116V8.8H265.5V6.4H268.116V3.184H270.588V6.4H273.516V8.8H270.588V19ZM282.367 6.136C283.503 6.136 284.383 6.368 285.007 6.832C285.631 7.296 286.063 7.92 286.303 8.704C286.559 9.488 286.687 10.36 286.687 11.32V19H284.215V11.488C284.215 10.88 284.135 10.336 283.975 9.856C283.815 9.376 283.543 9 283.159 8.728C282.775 8.456 282.239 8.344 281.551 8.392C280.911 8.392 280.343 8.528 279.847 8.8C279.351 9.072 278.959 9.432 278.671 9.88C278.383 10.328 278.239 10.824 278.239 11.368V19H275.767V1.24H278.239V8.392C278.623 7.8 279.183 7.28 279.919 6.832C280.655 6.368 281.471 6.136 282.367 6.136ZM300.865 17.344H300.841C300.329 17.84 299.625 18.28 298.729 18.664C297.833 19.048 296.897 19.24 295.921 19.24C294.609 19.24 293.449 18.968 292.441 18.424C291.449 17.864 290.673 17.104 290.113 16.144C289.553 15.168 289.273 14.064 289.273 12.832C289.273 11.424 289.569 10.224 290.161 9.232C290.753 8.224 291.537 7.456 292.513 6.928C293.489 6.384 294.553 6.112 295.705 6.112C296.761 6.112 297.721 6.376 298.585 6.904C299.449 7.416 300.137 8.128 300.648 9.04C301.161 9.952 301.417 11.016 301.417 12.232L301.393 13.288H291.745C291.889 14.424 292.353 15.328 293.137 16C293.937 16.656 294.945 16.984 296.161 16.984C297.041 16.984 297.753 16.824 298.297 16.504C298.841 16.168 299.289 15.848 299.641 15.544L300.865 17.344ZM295.705 8.392C294.761 8.392 293.937 8.616 293.233 9.064C292.529 9.496 292.065 10.248 291.84 11.32H298.897V11.152C298.849 10.608 298.665 10.128 298.345 9.712C298.041 9.296 297.657 8.976 297.193 8.752C296.729 8.512 296.233 8.392 295.705 8.392ZM7.28 36.136C8.4 36.136 9.4 36.416 10.28 36.976C11.176 37.52 11.88 38.288 12.392 39.28C12.904 40.256 13.16 41.384 13.16 42.664C13.16 43.944 12.904 45.08 12.392 46.072C11.88 47.064 11.184 47.84 10.304 48.4C9.424 48.96 8.44 49.24 7.352 49.24C6.456 49.24 5.64 49.048 4.904 48.664C4.184 48.264 3.616 47.816 3.2 47.32V48.928H0.728V31.24H3.2V38.224C3.568 37.696 4.12 37.216 4.856 36.784C5.592 36.352 6.4 36.136 7.28 36.136ZM6.944 38.392C6.192 38.392 5.52 38.576 4.928 38.944C4.352 39.312 3.896 39.824 3.56 40.48C3.24 41.12 3.08 41.848 3.08 42.664C3.08 43.48 3.24 44.216 3.56 44.872C3.896 45.512 4.352 46.024 4.928 46.408C5.52 46.792 6.192 46.984 6.944 46.984C7.696 46.984 8.36 46.792 8.936 46.408C9.512 46.024 9.96 45.512 10.28 44.872C10.616 44.216 10.784 43.48 10.784 42.664C10.784 41.848 10.616 41.12 10.28 40.48C9.96 39.824 9.512 39.312 8.936 38.944C8.36 38.576 7.696 38.392 6.944 38.392ZM26.6692 47.344H26.6452C26.1332 47.84 25.4292 48.28 24.5332 48.664C23.6372 49.048 22.7012 49.24 21.7252 49.24C20.4132 49.24 19.2532 48.968 18.2452 48.424C17.2532 47.864 16.4772 47.104 15.9172 46.144C15.3572 45.168 15.0772 44.064 15.0772 42.832C15.0772 41.424 15.3732 40.224 15.9652 39.232C16.5572 38.224 17.3412 37.456 18.3172 36.928C19.2932 36.384 20.3572 36.112 21.5092 36.112C22.5652 36.112 23.5252 36.376 24.3892 36.904C25.2532 37.416 25.9412 38.128 26.4532 39.04C26.9652 39.952 27.2212 41.016 27.2212 42.232L27.1972 43.288H17.5492C17.6932 44.424 18.1572 45.328 18.9412 46C19.7412 46.656 20.7492 46.984 21.9652 46.984C22.8452 46.984 23.5572 46.824 24.1012 46.504C24.6452 46.168 25.0932 45.848 25.4452 45.544L26.6692 47.344ZM21.5092 38.392C20.5652 38.392 19.7412 38.616 19.0372 39.064C18.3332 39.496 17.8692 40.248 17.6452 41.32H24.7012V41.152C24.6532 40.608 24.4692 40.128 24.1492 39.712C23.8452 39.296 23.4612 38.976 22.9972 38.752C22.5332 38.512 22.0372 38.392 21.5092 38.392ZM36.5077 36.136C37.6437 36.136 38.5237 36.368 39.1477 36.832C39.7717 37.296 40.2037 37.92 40.4437 38.704C40.6997 39.488 40.8277 40.36 40.8277 41.32V49H38.3557V41.488C38.3557 40.88 38.2757 40.336 38.1157 39.856C37.9557 39.376 37.6837 39 37.2997 38.728C36.9157 38.456 36.3797 38.344 35.6917 38.392C35.0517 38.392 34.4837 38.528 33.9877 38.8C33.4917 39.072 33.0997 39.432 32.8117 39.88C32.5237 40.328 32.3797 40.824 32.3797 41.368V49H29.9077V36.4H32.3797V38.392C32.7637 37.8 33.3237 37.28 34.0597 36.832C34.7957 36.368 35.6117 36.136 36.5077 36.136ZM55.0051 47.344H54.9811C54.4691 47.84 53.7651 48.28 52.8691 48.664C51.9731 49.048 51.0371 49.24 50.0611 49.24C48.7491 49.24 47.5891 48.968 46.5811 48.424C45.5891 47.864 44.8131 47.104 44.2531 46.144C43.6931 45.168 43.4131 44.064 43.4131 42.832C43.4131 41.424 43.7091 40.224 44.3011 39.232C44.8931 38.224 45.6771 37.456 46.6531 36.928C47.6291 36.384 48.6931 36.112 49.8451 36.112C50.9011 36.112 51.8611 36.376 52.7251 36.904C53.5891 37.416 54.2771 38.128 54.7891 39.04C55.3011 39.952 55.5571 41.016 55.5571 42.232L55.5331 43.288H45.8851C46.0291 44.424 46.4931 45.328 47.2771 46C48.0771 46.656 49.0851 46.984 50.3011 46.984C51.1811 46.984 51.8931 46.824 52.4371 46.504C52.9811 46.168 53.4291 45.848 53.7811 45.544L55.0051 47.344ZM49.8451 38.392C48.9011 38.392 48.0771 38.616 47.3731 39.064C46.6691 39.496 46.2051 40.248 45.9811 41.32H53.0371V41.152C52.9891 40.608 52.8051 40.128 52.4851 39.712C52.1811 39.296 51.7971 38.976 51.3331 38.752C50.8691 38.512 50.3731 38.392 49.8451 38.392ZM65.0836 38.896H62.1076V49H59.6116V38.896H57.5956V36.616H59.6116V34.984C59.6116 33.896 59.9556 33.008 60.6436 32.32C61.3476 31.616 62.2516 31.264 63.3556 31.264C63.9956 31.264 64.5236 31.384 64.9396 31.624C65.3716 31.864 65.6836 32.096 65.8756 32.32L65.0356 34.216C64.8756 34.056 64.6676 33.912 64.4116 33.784C64.1556 33.64 63.8996 33.568 63.6436 33.568C63.0676 33.568 62.6676 33.704 62.4436 33.976C62.2196 34.248 62.1076 34.584 62.1076 34.984V36.616H65.0836V38.896ZM68.9956 34.024C68.4356 34.024 68.0196 33.88 67.7476 33.592C67.4756 33.304 67.3396 32.928 67.3396 32.464C67.3396 32.064 67.4756 31.704 67.7476 31.384C68.0196 31.064 68.4356 30.904 68.9956 30.904C69.5556 30.904 69.9716 31.048 70.2436 31.336C70.5156 31.624 70.6516 32 70.6516 32.464C70.6516 32.864 70.5156 33.224 70.2436 33.544C69.9716 33.864 69.5556 34.024 68.9956 34.024ZM70.2676 49.36H67.7956V36.76H70.2676V49.36ZM78.0491 49H75.5771V38.8H72.9611V36.4H75.5771V33.184H78.0491V36.4H80.9771V38.8H78.0491V49ZM102.027 42.688C102.027 43.968 101.739 45.104 101.163 46.096C100.603 47.072 99.8346 47.84 98.8586 48.4C97.8986 48.96 96.8186 49.24 95.6186 49.24C94.4186 49.24 93.3306 48.96 92.3546 48.4C91.3786 47.84 90.6026 47.072 90.0266 46.096C89.4666 45.104 89.1866 43.968 89.1866 42.688C89.1866 41.408 89.4666 40.28 90.0266 39.304C90.6026 38.312 91.3786 37.536 92.3546 36.976C93.3306 36.416 94.4186 36.136 95.6186 36.136C96.8186 36.136 97.8986 36.416 98.8586 36.976C99.8346 37.536 100.603 38.312 101.163 39.304C101.739 40.28 102.027 41.408 102.027 42.688ZM99.5066 42.688C99.5226 41.84 99.3546 41.096 99.0026 40.456C98.6666 39.8 98.2026 39.296 97.6106 38.944C97.0186 38.576 96.3546 38.392 95.6186 38.392C94.8826 38.392 94.2106 38.576 93.6026 38.944C93.0106 39.296 92.5386 39.8 92.1866 40.456C91.8506 41.096 91.6906 41.84 91.7066 42.688C91.6906 43.52 91.8506 44.264 92.1866 44.92C92.5386 45.56 93.0106 46.064 93.6026 46.432C94.2106 46.8 94.8826 46.984 95.6186 46.984C96.3546 46.984 97.0186 46.8 97.6106 46.432C98.2026 46.064 98.6666 45.56 99.0026 44.92C99.3546 44.264 99.5226 43.52 99.5066 42.688ZM111.091 38.896H108.115V49H105.619V38.896H103.603V36.616H105.619V34.984C105.619 33.896 105.963 33.008 106.651 32.32C107.355 31.616 108.259 31.264 109.363 31.264C110.003 31.264 110.531 31.384 110.947 31.624C111.379 31.864 111.691 32.096 111.883 32.32L111.043 34.216C110.883 34.056 110.675 33.912 110.419 33.784C110.163 33.64 109.907 33.568 109.651 33.568C109.075 33.568 108.675 33.704 108.451 33.976C108.227 34.248 108.115 34.584 108.115 34.984V36.616H111.091V38.896ZM127 36.136C128.136 36.136 129.016 36.368 129.64 36.832C130.264 37.296 130.696 37.92 130.936 38.704C131.192 39.488 131.32 40.36 131.32 41.32V49H128.848V41.488C128.848 40.88 128.768 40.336 128.608 39.856C128.448 39.376 128.176 39 127.792 38.728C127.408 38.456 126.872 38.344 126.184 38.392C125.544 38.392 124.976 38.528 124.48 38.8C123.984 39.072 123.592 39.432 123.304 39.88C123.016 40.328 122.872 40.824 122.872 41.368V49H120.4V31.24H122.872V38.392C123.256 37.8 123.816 37.28 124.552 36.832C125.288 36.368 126.104 36.136 127 36.136ZM143.265 43.984V36.4H145.737V49H143.265V46.984C142.897 47.576 142.353 48.104 141.633 48.568C140.929 49.016 140.081 49.24 139.089 49.24C137.777 49.24 136.713 48.792 135.897 47.896C135.081 47 134.673 45.76 134.673 44.176V36.4H137.145V43.504C137.145 44.144 137.241 44.736 137.433 45.28C137.641 45.824 137.961 46.264 138.393 46.6C138.841 46.92 139.409 47.08 140.097 47.08C140.961 47.08 141.705 46.808 142.329 46.264C142.953 45.72 143.265 44.96 143.265 43.984ZM155.613 36.184C156.653 36.184 157.485 36.424 158.109 36.904C158.733 37.368 159.181 38.008 159.453 38.824C159.677 38.424 160.005 38.024 160.437 37.624C160.869 37.208 161.373 36.864 161.949 36.592C162.525 36.32 163.141 36.184 163.797 36.184C164.885 36.184 165.733 36.424 166.341 36.904C166.949 37.368 167.373 38 167.613 38.8C167.869 39.584 167.997 40.464 167.997 41.44V49H165.501V41.584C165.501 40.656 165.325 39.904 164.973 39.328C164.621 38.752 163.957 38.464 162.981 38.464C162.053 38.464 161.285 38.76 160.677 39.352C160.085 39.928 159.789 40.632 159.789 41.464V49H157.293V41.536C157.293 40.64 157.101 39.904 156.717 39.328C156.333 38.752 155.701 38.464 154.821 38.464C154.213 38.464 153.669 38.6 153.189 38.872C152.709 39.144 152.333 39.504 152.061 39.952C151.789 40.384 151.653 40.872 151.653 41.416V49H149.157V36.4H151.653V38.416C152.037 37.84 152.573 37.328 153.261 36.88C153.965 36.416 154.749 36.184 155.613 36.184ZM183.042 36.4V49H180.546V47.056C180.162 47.584 179.594 48.08 178.842 48.544C178.09 49.008 177.218 49.24 176.226 49.24C175.17 49.24 174.202 48.96 173.322 48.4C172.458 47.84 171.77 47.064 171.258 46.072C170.746 45.08 170.49 43.944 170.49 42.664C170.49 41.384 170.754 40.256 171.282 39.28C171.81 38.288 172.538 37.52 173.466 36.976C174.394 36.416 175.45 36.136 176.634 36.136C177.514 36.136 178.282 36.328 178.938 36.712C179.61 37.096 180.146 37.544 180.546 38.056V36.4H183.042ZM176.802 46.96C177.57 46.96 178.242 46.776 178.818 46.408C179.394 46.024 179.842 45.512 180.162 44.872C180.482 44.216 180.642 43.48 180.642 42.664C180.642 41.864 180.482 41.144 180.162 40.504C179.842 39.864 179.394 39.36 178.818 38.992C178.242 38.608 177.57 38.416 176.802 38.416C176.066 38.416 175.41 38.6 174.834 38.968C174.258 39.336 173.81 39.84 173.49 40.48C173.17 41.12 173.01 41.848 173.01 42.664C173.01 43.48 173.17 44.216 173.49 44.872C173.81 45.512 174.258 46.024 174.834 46.408C175.41 46.776 176.066 46.96 176.802 46.96ZM193.094 36.136C194.23 36.136 195.11 36.368 195.734 36.832C196.358 37.296 196.79 37.92 197.03 38.704C197.286 39.488 197.414 40.36 197.414 41.32V49H194.942V41.488C194.942 40.88 194.862 40.336 194.702 39.856C194.542 39.376 194.27 39 193.886 38.728C193.502 38.456 192.966 38.344 192.278 38.392C191.638 38.392 191.07 38.528 190.574 38.8C190.078 39.072 189.686 39.432 189.398 39.88C189.11 40.328 188.966 40.824 188.966 41.368V49H186.494V36.4H188.966V38.392C189.35 37.8 189.91 37.28 190.646 36.832C191.382 36.368 192.198 36.136 193.094 36.136ZM202.423 33.664C201.863 33.664 201.447 33.52 201.175 33.232C200.903 32.944 200.767 32.568 200.767 32.104C200.767 31.704 200.903 31.344 201.175 31.024C201.447 30.704 201.863 30.544 202.423 30.544C202.983 30.544 203.399 30.688 203.671 30.976C203.943 31.264 204.079 31.64 204.079 32.104C204.079 32.504 203.943 32.864 203.671 33.184C203.399 33.504 202.983 33.664 202.423 33.664ZM203.695 49H201.223V36.4H203.695V49ZM211.479 49H209.007V38.8H206.391V36.4H209.007V33.184H211.479V36.4H214.407V38.8H211.479V49ZM218.77 54.52L220.834 49.792L220.906 49.624L215.05 36.4H217.93L221.866 45.664C221.914 45.76 221.962 45.88 222.01 46.024C222.058 46.168 222.114 46.328 222.178 46.504C222.242 46.328 222.298 46.16 222.346 46C222.41 45.824 222.474 45.656 222.538 45.496L225.826 36.4H228.754L223.57 49L221.434 54.52H218.77Z" fill="#3C3C3C"/>
</svg>
