<svg width="101" height="15" viewBox="0 0 101 15" fill="none" xmlns="http://www.w3.org/2000/svg">
<path d="M7.32434 1.292C8.04434 1.292 8.71034 1.394 9.32234 1.598C9.93434 1.802 10.4743 2.066 10.9423 2.39C11.4103 2.714 11.7763 3.062 12.0403 3.434L10.7803 4.748C10.3003 4.292 9.77234 3.92 9.19634 3.632C8.62034 3.332 7.99634 3.182 7.32434 3.182C6.47234 3.182 5.69834 3.38 5.00234 3.776C4.31834 4.172 3.77834 4.712 3.38234 5.396C2.98634 6.068 2.78834 6.836 2.78834 7.7C2.78834 8.552 2.99834 9.326 3.41834 10.022C3.83834 10.718 4.39634 11.27 5.09234 11.678C5.80034 12.086 6.56834 12.29 7.39634 12.29C7.99634 12.29 8.56034 12.176 9.08834 11.948C9.61634 11.708 10.0423 11.384 10.3663 10.976C10.7023 10.568 10.8703 10.1 10.8703 9.572C10.8703 9.512 10.8703 9.476 10.8703 9.464H7.28834V7.538H12.8683C12.8923 7.718 12.9103 7.898 12.9223 8.078C12.9463 8.258 12.9583 8.438 12.9583 8.618C12.9583 9.278 12.8563 9.926 12.6523 10.562C12.4603 11.198 12.1543 11.75 11.7343 12.218C11.2543 12.818 10.6303 13.298 9.86234 13.658C9.10634 14.006 8.26634 14.18 7.34234 14.18C6.43034 14.18 5.57834 14.018 4.78634 13.694C3.99434 13.358 3.29834 12.896 2.69834 12.308C2.09834 11.72 1.63034 11.036 1.29434 10.256C0.970336 9.464 0.808336 8.612 0.808336 7.7C0.808336 6.788 0.970336 5.948 1.29434 5.18C1.63034 4.4 2.09234 3.722 2.68034 3.146C3.28034 2.558 3.97634 2.102 4.76834 1.778C5.56034 1.454 6.41234 1.292 7.32434 1.292ZM23.1396 12.758H23.1216C22.7376 13.13 22.2096 13.46 21.5376 13.748C20.8656 14.036 20.1636 14.18 19.4316 14.18C18.4476 14.18 17.5776 13.976 16.8216 13.568C16.0776 13.148 15.4956 12.578 15.0756 11.858C14.6556 11.126 14.4456 10.298 14.4456 9.374C14.4456 8.318 14.6676 7.418 15.1116 6.674C15.5556 5.918 16.1436 5.342 16.8756 4.946C17.6076 4.538 18.4056 4.334 19.2696 4.334C20.0616 4.334 20.7816 4.532 21.4296 4.928C22.0776 5.312 22.5936 5.846 22.9776 6.53C23.3616 7.214 23.5536 8.012 23.5536 8.924L23.5356 9.716H16.2996C16.4076 10.568 16.7556 11.246 17.3436 11.75C17.9436 12.242 18.6996 12.488 19.6116 12.488C20.2716 12.488 20.8056 12.368 21.2136 12.128C21.6216 11.876 21.9576 11.636 22.2216 11.408L23.1396 12.758ZM19.2696 6.044C18.5616 6.044 17.9436 6.212 17.4156 6.548C16.8876 6.872 16.5396 7.436 16.3716 8.24H21.6636V8.114C21.6276 7.706 21.4896 7.346 21.2496 7.034C21.0216 6.722 20.7336 6.482 20.3856 6.314C20.0376 6.134 19.6656 6.044 19.2696 6.044ZM28.5925 14H26.7385V6.35H24.7765V4.55H26.7385V2.138H28.5925V4.55H30.7885V6.35H28.5925V14ZM38.4576 10.202C38.9496 10.91 39.4596 11.462 39.9876 11.858C40.5276 12.242 41.2236 12.434 42.0756 12.434C42.4836 12.434 42.8736 12.368 43.2456 12.236C43.6176 12.104 43.9236 11.912 44.1636 11.66C44.4036 11.408 44.5236 11.108 44.5236 10.76C44.5236 10.16 44.2656 9.692 43.7496 9.356C43.2456 9.02 42.5316 8.762 41.6076 8.582C40.4316 8.342 39.4956 7.928 38.7996 7.34C38.1036 6.74 37.7556 5.876 37.7556 4.748C37.7556 4.028 37.9536 3.404 38.3496 2.876C38.7576 2.348 39.2916 1.94 39.9516 1.652C40.6116 1.364 41.3256 1.22 42.0936 1.22C43.0896 1.22 43.9476 1.412 44.6676 1.796C45.3876 2.18 45.9516 2.726 46.3596 3.434L44.9916 4.784C44.6676 4.244 44.2596 3.806 43.7676 3.47C43.2756 3.134 42.6996 2.966 42.0396 2.966C41.3796 2.966 40.8216 3.122 40.3656 3.434C39.9216 3.734 39.6996 4.154 39.6996 4.694C39.6996 5.306 39.9336 5.756 40.4016 6.044C40.8816 6.32 41.5116 6.542 42.2916 6.71C42.9996 6.854 43.6716 7.076 44.3076 7.376C44.9436 7.676 45.4596 8.066 45.8556 8.546C46.2636 9.014 46.4676 9.584 46.4676 10.256C46.4676 11.456 46.0596 12.41 45.2436 13.118C44.4276 13.826 43.3056 14.18 41.8776 14.18C40.9056 14.18 40.0176 13.988 39.2136 13.604C38.4216 13.22 37.7256 12.596 37.1256 11.732L38.4576 10.202ZM51.778 14H49.924V6.35H47.962V4.55H49.924V2.138H51.778V4.55H53.974V6.35H51.778V14ZM64.3763 4.55V14H62.5043V12.542C62.2163 12.938 61.7903 13.31 61.2263 13.658C60.6623 14.006 60.0083 14.18 59.2643 14.18C58.4723 14.18 57.7463 13.97 57.0863 13.55C56.4383 13.13 55.9223 12.548 55.5383 11.804C55.1543 11.06 54.9623 10.208 54.9623 9.248C54.9623 8.288 55.1603 7.442 55.5563 6.71C55.9523 5.966 56.4983 5.39 57.1943 4.982C57.8903 4.562 58.6823 4.352 59.5703 4.352C60.2303 4.352 60.8063 4.496 61.2983 4.784C61.8023 5.072 62.2043 5.408 62.5043 5.792V4.55H64.3763ZM59.6963 12.47C60.2723 12.47 60.7763 12.332 61.2083 12.056C61.6403 11.768 61.9763 11.384 62.2163 10.904C62.4563 10.412 62.5763 9.86 62.5763 9.248C62.5763 8.648 62.4563 8.108 62.2163 7.628C61.9763 7.148 61.6403 6.77 61.2083 6.494C60.7763 6.206 60.2723 6.062 59.6963 6.062C59.1443 6.062 58.6523 6.2 58.2203 6.476C57.7883 6.752 57.4523 7.13 57.2123 7.61C56.9723 8.09 56.8523 8.636 56.8523 9.248C56.8523 9.86 56.9723 10.412 57.2123 10.904C57.4523 11.384 57.7883 11.768 58.2203 12.056C58.6523 12.332 59.1443 12.47 59.6963 12.47ZM72.2569 6.548C72.1369 6.488 71.9869 6.44 71.8069 6.404C71.6389 6.356 71.4589 6.332 71.2669 6.332C70.8829 6.332 70.5049 6.434 70.1329 6.638C69.7609 6.83 69.4489 7.112 69.1969 7.484C68.9569 7.844 68.8369 8.276 68.8369 8.78V14H66.9649V4.55H68.8369V6.332C69.1009 5.756 69.4969 5.282 70.0249 4.91C70.5649 4.538 71.1289 4.352 71.7169 4.352C72.1609 4.352 72.5029 4.412 72.7429 4.532L72.2569 6.548ZM77.6003 14H75.7463V6.35H73.7843V4.55H75.7463V2.138H77.6003V4.55H79.7963V6.35H77.6003V14ZM89.5146 12.758H89.4966C89.1126 13.13 88.5846 13.46 87.9126 13.748C87.2406 14.036 86.5386 14.18 85.8066 14.18C84.8226 14.18 83.9526 13.976 83.1966 13.568C82.4526 13.148 81.8706 12.578 81.4506 11.858C81.0306 11.126 80.8206 10.298 80.8206 9.374C80.8206 8.318 81.0426 7.418 81.4866 6.674C81.9306 5.918 82.5186 5.342 83.2506 4.946C83.9826 4.538 84.7806 4.334 85.6446 4.334C86.4366 4.334 87.1566 4.532 87.8046 4.928C88.4526 5.312 88.9686 5.846 89.3526 6.53C89.7366 7.214 89.9286 8.012 89.9286 8.924L89.9106 9.716H82.6746C82.7826 10.568 83.1306 11.246 83.7186 11.75C84.3186 12.242 85.0746 12.488 85.9866 12.488C86.6466 12.488 87.1806 12.368 87.5886 12.128C87.9966 11.876 88.3326 11.636 88.5966 11.408L89.5146 12.758ZM85.6446 6.044C84.9366 6.044 84.3186 6.212 83.7906 6.548C83.2626 6.872 82.9146 7.436 82.7466 8.24H88.0386V8.114C88.0026 7.706 87.8646 7.346 87.6246 7.034C87.3966 6.722 87.1086 6.482 86.7606 6.314C86.4126 6.134 86.0406 6.044 85.6446 6.044ZM100.799 0.68V14H98.9455V12.668C98.6695 13.04 98.2615 13.388 97.7215 13.712C97.1815 14.024 96.5695 14.18 95.8855 14.18C95.0335 14.18 94.2655 13.97 93.5815 13.55C92.8975 13.13 92.3575 12.548 91.9615 11.804C91.5655 11.06 91.3675 10.214 91.3675 9.266C91.3675 8.306 91.5655 7.46 91.9615 6.728C92.3575 5.984 92.8915 5.402 93.5635 4.982C94.2355 4.562 94.9915 4.352 95.8315 4.352C96.5035 4.352 97.1095 4.49 97.6495 4.766C98.2015 5.042 98.6335 5.366 98.9455 5.738V0.68H100.799ZM96.1375 12.578C96.7135 12.578 97.2175 12.434 97.6495 12.146C98.0815 11.858 98.4175 11.462 98.6575 10.958C98.8975 10.454 99.0175 9.89 99.0175 9.266C99.0175 8.63 98.8975 8.066 98.6575 7.574C98.4175 7.07 98.0815 6.674 97.6495 6.386C97.2175 6.098 96.7135 5.954 96.1375 5.954C95.5735 5.954 95.0755 6.098 94.6435 6.386C94.2115 6.674 93.8695 7.07 93.6175 7.574C93.3775 8.066 93.2575 8.63 93.2575 9.266C93.2575 9.89 93.3775 10.454 93.6175 10.958C93.8695 11.462 94.2115 11.858 94.6435 12.146C95.0755 12.434 95.5735 12.578 96.1375 12.578Z" fill="white"/>
</svg>
