<svg width="100" height="155" viewBox="0 0 100 155" fill="none" xmlns="http://www.w3.org/2000/svg">
<circle cx="50" cy="105" r="50" fill="#3F169E" fill-opacity="0.3"/>
<circle cx="50" cy="105" r="12.5" fill="#7033FF" stroke="white" stroke-width="3"/>
<g filter="url(#filter0_d)">
<path d="M11 23C11 13.6112 18.6112 6 28 6H73C82.3888 6 90 13.6112 90 23V68C90 77.3888 82.3888 85 73 85H70.25L50.5 105L30.5 85H28C18.6112 85 11 77.3888 11 68V23Z" fill="white"/>
</g>
<rect x="21" y="16" width="59" height="59" rx="17" fill="#FFCC40"/>
<path d="M48.5858 39.5858C48.9609 39.2107 49.4696 39 50 39C50.5304 39 51.0391 39.2107 51.4142 39.5858C51.7893 39.9609 52 40.4696 52 41V53C52 53.5304 51.7893 54.0391 51.4142 54.4142C51.0391 54.7893 50.5304 55 50 55C49.4696 55 48.9609 54.7893 48.5858 54.4142C48.2107 54.0391 48 53.5304 48 53V41C48 40.4696 48.2107 39.9609 48.5858 39.5858Z" stroke="white" stroke-width="2"/>
<path d="M57.5858 33.5858C57.9609 33.2107 58.4696 33 59 33C59.5304 33 60.0391 33.2107 60.4142 33.5858C60.7893 33.9609 61 34.4696 61 35V53C61 53.5304 60.7893 54.0391 60.4142 54.4142C60.0391 54.7893 59.5304 55 59 55C58.4696 55 57.9609 54.7893 57.5858 54.4142C57.2107 54.0391 57 53.5304 57 53V35C57 34.4696 57.2107 33.9609 57.5858 33.5858Z" stroke="white" stroke-width="2"/>
<path d="M39.5858 45.5858C39.9609 45.2107 40.4696 45 41 45C41.5304 45 42.0391 45.2107 42.4142 45.5858C42.7893 45.9609 43 46.4696 43 47V53C43 53.5304 42.7893 54.0391 42.4142 54.4142C42.0391 54.7893 41.5304 55 41 55C40.4696 55 39.9609 54.7893 39.5858 54.4142C39.2107 54.0391 39 53.5304 39 53V47C39 46.4696 39.2107 45.9609 39.5858 45.5858Z" stroke="white" stroke-width="2"/>
<defs>
<filter id="filter0_d" x="1" y="0" width="99" height="119" filterUnits="userSpaceOnUse" color-interpolation-filters="sRGB">
<feFlood flood-opacity="0" result="BackgroundImageFix"/>
<feColorMatrix in="SourceAlpha" type="matrix" values="0 0 0 0 0 0 0 0 0 0 0 0 0 0 0 0 0 0 127 0"/>
<feOffset dy="4"/>
<feGaussianBlur stdDeviation="5"/>
<feColorMatrix type="matrix" values="0 0 0 0 0 0 0 0 0 0 0 0 0 0 0 0 0 0 0.15 0"/>
<feBlend mode="normal" in2="BackgroundImageFix" result="effect1_dropShadow"/>
<feBlend mode="normal" in="SourceGraphic" in2="effect1_dropShadow" result="shape"/>
</filter>
</defs>
</svg>
