<svg width="90" height="18" viewBox="0 0 90 18" fill="none" xmlns="http://www.w3.org/2000/svg">
<path d="M3.07198 1.19989V8.42389H13.32V1.19989H15.912V17.9999H13.32V10.9199H3.07198V17.9999H0.47998V1.19989H3.07198Z" fill="black"/>
<path d="M32.5828 17.9999H22.6948V15.5039H26.3428V3.69589H22.6948V1.19989H32.5828V3.69589H28.9348V15.5039H32.5828V17.9999Z" fill="black"/>
<path d="M54.7937 1.19989L47.5697 17.9999H44.7137L37.4177 1.19989H40.3697L44.6417 11.3039C44.8817 11.8959 45.1457 12.5279 45.4337 13.1999C45.7377 13.8719 46.0177 14.5199 46.2737 15.1439C46.4977 14.5199 46.7457 13.8799 47.0177 13.2239C47.2897 12.5519 47.5457 11.9199 47.7857 11.3279L51.7457 1.19989H54.7937Z" fill="black"/>
<path d="M59.7534 1.19989H72.2094V3.69589H62.3454V8.13589H70.8894V10.6319H62.3454V15.5039H72.2094V17.9999H59.7534V1.19989Z" fill="black"/>
<path d="M83.8256 9.64789L83.6096 7.94389L85.4576 6.09589C85.8576 5.67989 86.2576 5.27189 86.6576 4.87189C87.0736 4.47189 87.2816 4.07189 87.2816 3.67189C87.2816 3.36789 87.1936 3.13589 87.0176 2.97589C86.8416 2.79989 86.6096 2.71189 86.3216 2.71189C86.0656 2.71189 85.7936 2.81589 85.5056 3.02389C85.2176 3.23189 84.8896 3.53589 84.5216 3.93589L83.2736 3.04789C83.5616 2.56789 83.9856 2.10389 84.5456 1.65589C85.1056 1.20789 85.7536 0.983887 86.4896 0.983887C87.1456 0.983887 87.6816 1.11989 88.0976 1.39189C88.5136 1.64789 88.8176 1.97589 89.0096 2.37589C89.2016 2.77589 89.2976 3.19189 89.2976 3.62389C89.2976 4.00789 89.1776 4.39189 88.9376 4.77589C88.6976 5.14389 88.4096 5.48789 88.0736 5.80789C87.7536 6.12789 87.4576 6.42389 87.1856 6.69589L85.7936 8.03989H89.3696V9.64789H83.8256Z" fill="black"/>
</svg>
