<svg width="119" height="18" viewBox="0 0 119 18" fill="none" xmlns="http://www.w3.org/2000/svg">
<path d="M5.894 1.4C6.566 1.4 7.184 1.574 7.748 1.922C8.312 2.258 8.762 2.72 9.098 3.308C9.434 3.884 9.602 4.538 9.602 5.27C9.602 5.99 9.434 6.65 9.098 7.25C8.762 7.838 8.312 8.306 7.748 8.654C7.184 9.002 6.566 9.176 5.894 9.176H2.708V14H0.764V1.4H5.894ZM5.858 7.304C6.182 7.304 6.476 7.214 6.74 7.034C7.004 6.842 7.214 6.596 7.37 6.296C7.538 5.984 7.622 5.642 7.622 5.27C7.622 4.706 7.448 4.232 7.1 3.848C6.752 3.464 6.338 3.272 5.858 3.272H2.708V7.304H5.858ZM16.9962 6.548C16.8762 6.488 16.7262 6.44 16.5462 6.404C16.3782 6.356 16.1982 6.332 16.0062 6.332C15.6222 6.332 15.2442 6.434 14.8722 6.638C14.5002 6.83 14.1882 7.112 13.9362 7.484C13.6962 7.844 13.5762 8.276 13.5762 8.78V14H11.7042V4.55H13.5762V6.332C13.8402 5.756 14.2362 5.282 14.7642 4.91C15.3042 4.538 15.8682 4.352 16.4562 4.352C16.9002 4.352 17.2422 4.412 17.4822 4.532L16.9962 6.548ZM27.6137 9.266C27.6137 10.226 27.3977 11.078 26.9657 11.822C26.5457 12.554 25.9697 13.13 25.2377 13.55C24.5177 13.97 23.7077 14.18 22.8077 14.18C21.9077 14.18 21.0917 13.97 20.3597 13.55C19.6277 13.13 19.0457 12.554 18.6137 11.822C18.1937 11.078 17.9837 10.226 17.9837 9.266C17.9837 8.306 18.1937 7.46 18.6137 6.728C19.0457 5.984 19.6277 5.402 20.3597 4.982C21.0917 4.562 21.9077 4.352 22.8077 4.352C23.7077 4.352 24.5177 4.562 25.2377 4.982C25.9697 5.402 26.5457 5.984 26.9657 6.728C27.3977 7.46 27.6137 8.306 27.6137 9.266ZM25.7237 9.266C25.7357 8.63 25.6097 8.072 25.3457 7.592C25.0937 7.1 24.7457 6.722 24.3017 6.458C23.8577 6.182 23.3597 6.044 22.8077 6.044C22.2557 6.044 21.7517 6.182 21.2957 6.458C20.8517 6.722 20.4977 7.1 20.2337 7.592C19.9817 8.072 19.8617 8.63 19.8737 9.266C19.8617 9.89 19.9817 10.448 20.2337 10.94C20.4977 11.42 20.8517 11.798 21.2957 12.074C21.7517 12.35 22.2557 12.488 22.8077 12.488C23.3597 12.488 23.8577 12.35 24.3017 12.074C24.7457 11.798 25.0937 11.42 25.3457 10.94C25.6097 10.448 25.7357 9.89 25.7237 9.266ZM31.7219 14.432C31.7219 15.068 31.5779 15.62 31.2899 16.088C31.0139 16.556 30.6299 16.916 30.1379 17.168C29.6459 17.42 29.0939 17.546 28.4819 17.546L27.7799 16.124C28.5119 16.124 29.0399 15.932 29.3639 15.548C29.6999 15.164 29.8679 14.642 29.8679 13.982V4.55H31.7219V14.432ZM30.8399 2.39C30.4199 2.39 30.1079 2.282 29.9039 2.066C29.6999 1.85 29.5979 1.568 29.5979 1.22C29.5979 0.92 29.6999 0.649999 29.9039 0.409999C30.1079 0.169999 30.4199 0.0499994 30.8399 0.0499994C31.2599 0.0499994 31.5719 0.157999 31.7759 0.373999C31.9799 0.59 32.0819 0.872 32.0819 1.22C32.0819 1.52 31.9799 1.79 31.7759 2.03C31.5719 2.27 31.2599 2.39 30.8399 2.39ZM42.4804 12.758H42.4624C42.0784 13.13 41.5504 13.46 40.8784 13.748C40.2064 14.036 39.5044 14.18 38.7724 14.18C37.7884 14.18 36.9184 13.976 36.1624 13.568C35.4184 13.148 34.8364 12.578 34.4164 11.858C33.9964 11.126 33.7864 10.298 33.7864 9.374C33.7864 8.318 34.0084 7.418 34.4524 6.674C34.8964 5.918 35.4844 5.342 36.2164 4.946C36.9484 4.538 37.7464 4.334 38.6104 4.334C39.4024 4.334 40.1224 4.532 40.7704 4.928C41.4184 5.312 41.9344 5.846 42.3184 6.53C42.7024 7.214 42.8944 8.012 42.8944 8.924L42.8764 9.716H35.6404C35.7484 10.568 36.0964 11.246 36.6844 11.75C37.2844 12.242 38.0404 12.488 38.9524 12.488C39.6124 12.488 40.1464 12.368 40.5544 12.128C40.9624 11.876 41.2984 11.636 41.5624 11.408L42.4804 12.758ZM38.6104 6.044C37.9024 6.044 37.2844 6.212 36.7564 6.548C36.2284 6.872 35.8804 7.436 35.7124 8.24H41.0044V8.114C40.9684 7.706 40.8304 7.346 40.5904 7.034C40.3624 6.722 40.0744 6.482 39.7264 6.314C39.3784 6.134 39.0064 6.044 38.6104 6.044ZM46.0973 9.266C46.0973 9.89 46.2353 10.448 46.5113 10.94C46.7993 11.42 47.1713 11.804 47.6273 12.092C48.0953 12.368 48.5933 12.506 49.1213 12.506C49.7213 12.506 50.2433 12.35 50.6873 12.038C51.1313 11.726 51.4913 11.402 51.7673 11.066L52.7933 12.326C52.5653 12.65 52.2533 12.956 51.8573 13.244C51.4613 13.52 51.0113 13.748 50.5073 13.928C50.0033 14.096 49.4753 14.18 48.9233 14.18C48.0593 14.18 47.2793 13.964 46.5833 13.532C45.8873 13.1 45.3353 12.512 44.9273 11.768C44.5313 11.024 44.3333 10.19 44.3333 9.266C44.3333 8.33 44.5313 7.496 44.9273 6.764C45.3353 6.02 45.8873 5.432 46.5833 5C47.2793 4.568 48.0593 4.352 48.9233 4.352C49.7993 4.352 50.5793 4.532 51.2633 4.892C51.9473 5.24 52.4573 5.696 52.7933 6.26L51.7673 7.52C51.4913 7.112 51.0953 6.764 50.5793 6.476C50.0753 6.176 49.5833 6.026 49.1033 6.026C48.5393 6.026 48.0293 6.17 47.5733 6.458C47.1173 6.734 46.7573 7.118 46.4933 7.61C46.2293 8.09 46.0973 8.642 46.0973 9.266ZM57.5661 14H55.7121V6.35H53.7501V4.55H55.7121V2.138H57.5661V4.55H59.7621V6.35H57.5661V14ZM72.2192 1.4C73.4432 1.4 74.3672 1.67 74.9912 2.21C75.6152 2.75 75.9272 3.536 75.9272 4.568C75.9272 5.132 75.7892 5.636 75.5132 6.08C75.2492 6.524 74.8532 6.872 74.3252 7.124C74.7212 7.256 75.0872 7.46 75.4232 7.736C75.7712 8 76.0532 8.342 76.2692 8.762C76.4852 9.182 76.5932 9.692 76.5932 10.292C76.5932 11.024 76.4672 11.63 76.2152 12.11C75.9632 12.59 75.6332 12.968 75.2252 13.244C74.8172 13.52 74.3672 13.718 73.8752 13.838C73.3832 13.946 72.8912 14 72.3992 14H66.9632V1.4H72.2192ZM71.8952 3.272H68.9072V6.62H72.1112C72.6032 6.608 73.0352 6.458 73.4072 6.17C73.7912 5.882 73.9832 5.474 73.9832 4.946C73.9832 4.346 73.7792 3.92 73.3712 3.668C72.9752 3.404 72.4832 3.272 71.8952 3.272ZM72.2012 8.492H68.9072V12.128H72.2912C72.9752 12.128 73.5332 11.978 73.9652 11.678C74.3972 11.366 74.6132 10.892 74.6132 10.256C74.6132 9.8 74.4872 9.446 74.2352 9.194C73.9832 8.942 73.6712 8.762 73.2992 8.654C72.9392 8.546 72.5732 8.492 72.2012 8.492ZM87.5316 4.55V14H85.6596V12.542C85.3716 12.938 84.9456 13.31 84.3816 13.658C83.8176 14.006 83.1636 14.18 82.4196 14.18C81.6276 14.18 80.9016 13.97 80.2416 13.55C79.5936 13.13 79.0776 12.548 78.6936 11.804C78.3096 11.06 78.1176 10.208 78.1176 9.248C78.1176 8.288 78.3156 7.442 78.7116 6.71C79.1076 5.966 79.6536 5.39 80.3496 4.982C81.0456 4.562 81.8376 4.352 82.7256 4.352C83.3856 4.352 83.9616 4.496 84.4536 4.784C84.9576 5.072 85.3596 5.408 85.6596 5.792V4.55H87.5316ZM82.8516 12.47C83.4276 12.47 83.9316 12.332 84.3636 12.056C84.7956 11.768 85.1316 11.384 85.3716 10.904C85.6116 10.412 85.7316 9.86 85.7316 9.248C85.7316 8.648 85.6116 8.108 85.3716 7.628C85.1316 7.148 84.7956 6.77 84.3636 6.494C83.9316 6.206 83.4276 6.062 82.8516 6.062C82.2996 6.062 81.8076 6.2 81.3756 6.476C80.9436 6.752 80.6076 7.13 80.3676 7.61C80.1276 8.09 80.0076 8.636 80.0076 9.248C80.0076 9.86 80.1276 10.412 80.3676 10.904C80.6076 11.384 80.9436 11.768 81.3756 12.056C81.8076 12.332 82.2996 12.47 82.8516 12.47ZM95.5742 7.034C95.2382 6.698 94.8542 6.422 94.4222 6.206C94.0022 5.99 93.6122 5.882 93.2522 5.882C93.0002 5.882 92.7482 5.912 92.4962 5.972C92.2562 6.032 92.0522 6.146 91.8842 6.314C91.7162 6.47 91.6322 6.704 91.6322 7.016C91.6442 7.448 91.8362 7.754 92.2082 7.934C92.5922 8.114 93.0662 8.276 93.6302 8.42C94.1222 8.552 94.6022 8.72 95.0702 8.924C95.5382 9.116 95.9222 9.404 96.2222 9.788C96.5342 10.16 96.6902 10.688 96.6902 11.372C96.6902 11.96 96.5222 12.464 96.1862 12.884C95.8622 13.304 95.4362 13.628 94.9082 13.856C94.3922 14.072 93.8462 14.18 93.2702 14.18C92.5862 14.18 91.9082 14.06 91.2362 13.82C90.5762 13.568 90.0122 13.142 89.5442 12.542L90.8042 11.462C91.1282 11.834 91.4942 12.128 91.9022 12.344C92.3222 12.548 92.8322 12.65 93.4322 12.65C93.6602 12.65 93.8882 12.614 94.1162 12.542C94.3442 12.458 94.5362 12.332 94.6922 12.164C94.8602 11.984 94.9442 11.744 94.9442 11.444C94.9442 11.156 94.8542 10.934 94.6742 10.778C94.5062 10.61 94.2782 10.478 93.9902 10.382C93.7022 10.274 93.3842 10.178 93.0362 10.094C92.5202 9.95 92.0102 9.776 91.5062 9.572C91.0142 9.356 90.6002 9.056 90.2642 8.672C89.9402 8.276 89.7782 7.742 89.7782 7.07C89.7782 6.506 89.9342 6.026 90.2462 5.63C90.5702 5.222 90.9902 4.91 91.5062 4.694C92.0222 4.466 92.5742 4.352 93.1622 4.352C93.7262 4.352 94.3382 4.472 94.9982 4.712C95.6582 4.952 96.2042 5.336 96.6362 5.864L95.5742 7.034ZM106.852 12.758H106.834C106.45 13.13 105.922 13.46 105.25 13.748C104.578 14.036 103.876 14.18 103.144 14.18C102.16 14.18 101.29 13.976 100.534 13.568C99.7895 13.148 99.2075 12.578 98.7875 11.858C98.3675 11.126 98.1575 10.298 98.1575 9.374C98.1575 8.318 98.3795 7.418 98.8235 6.674C99.2675 5.918 99.8555 5.342 100.588 4.946C101.32 4.538 102.118 4.334 102.982 4.334C103.774 4.334 104.494 4.532 105.142 4.928C105.79 5.312 106.306 5.846 106.689 6.53C107.074 7.214 107.266 8.012 107.266 8.924L107.248 9.716H100.012C100.12 10.568 100.468 11.246 101.056 11.75C101.656 12.242 102.412 12.488 103.324 12.488C103.984 12.488 104.518 12.368 104.926 12.128C105.334 11.876 105.67 11.636 105.934 11.408L106.852 12.758ZM102.982 6.044C102.274 6.044 101.656 6.212 101.128 6.548C100.6 6.872 100.252 7.436 100.083 8.24H105.376V8.114C105.34 7.706 105.202 7.346 104.962 7.034C104.734 6.722 104.446 6.482 104.098 6.314C103.75 6.134 103.378 6.044 102.982 6.044ZM118.136 0.68V14H116.282V12.668C116.006 13.04 115.598 13.388 115.058 13.712C114.518 14.024 113.906 14.18 113.222 14.18C112.37 14.18 111.602 13.97 110.918 13.55C110.234 13.13 109.694 12.548 109.298 11.804C108.902 11.06 108.704 10.214 108.704 9.266C108.704 8.306 108.902 7.46 109.298 6.728C109.694 5.984 110.228 5.402 110.9 4.982C111.572 4.562 112.328 4.352 113.168 4.352C113.84 4.352 114.446 4.49 114.986 4.766C115.538 5.042 115.97 5.366 116.282 5.738V0.68H118.136ZM113.474 12.578C114.05 12.578 114.554 12.434 114.986 12.146C115.418 11.858 115.754 11.462 115.994 10.958C116.234 10.454 116.354 9.89 116.354 9.266C116.354 8.63 116.234 8.066 115.994 7.574C115.754 7.07 115.418 6.674 114.986 6.386C114.554 6.098 114.05 5.954 113.474 5.954C112.91 5.954 112.412 6.098 111.98 6.386C111.548 6.674 111.206 7.07 110.954 7.574C110.714 8.066 110.594 8.63 110.594 9.266C110.594 9.89 110.714 10.454 110.954 10.958C111.206 11.462 111.548 11.858 111.98 12.146C112.412 12.434 112.91 12.578 113.474 12.578Z" fill="#3C3C3C"/>
</svg>
