<svg width="91" height="24" viewBox="0 0 91 24" fill="none" xmlns="http://www.w3.org/2000/svg">
<path d="M7.192 2.2C8.088 2.2 8.912 2.432 9.664 2.896C10.416 3.344 11.016 3.96 11.464 4.744C11.912 5.512 12.136 6.384 12.136 7.36C12.136 8.32 11.912 9.2 11.464 10C11.016 10.784 10.416 11.408 9.664 11.872C8.912 12.336 8.088 12.568 7.192 12.568H2.944V19H0.352V2.2H7.192ZM7.144 10.072C7.576 10.072 7.968 9.952 8.32 9.712C8.672 9.456 8.952 9.128 9.16 8.728C9.384 8.312 9.496 7.856 9.496 7.36C9.496 6.608 9.264 5.976 8.8 5.464C8.336 4.952 7.784 4.696 7.144 4.696H2.944V10.072H7.144ZM21.9949 9.064C21.8349 8.984 21.6349 8.92 21.3949 8.872C21.1709 8.808 20.9309 8.776 20.6749 8.776C20.1629 8.776 19.6589 8.912 19.1629 9.184C18.6669 9.44 18.2509 9.816 17.9149 10.312C17.5949 10.792 17.4349 11.368 17.4349 12.04V19H14.9389V6.4H17.4349V8.776C17.7869 8.008 18.3149 7.376 19.0189 6.88C19.7389 6.384 20.4909 6.136 21.2749 6.136C21.8669 6.136 22.3229 6.216 22.6429 6.376L21.9949 9.064ZM36.1516 12.688C36.1516 13.968 35.8636 15.104 35.2876 16.096C34.7276 17.072 33.9596 17.84 32.9836 18.4C32.0236 18.96 30.9436 19.24 29.7436 19.24C28.5436 19.24 27.4556 18.96 26.4796 18.4C25.5036 17.84 24.7276 17.072 24.1516 16.096C23.5916 15.104 23.3116 13.968 23.3116 12.688C23.3116 11.408 23.5916 10.28 24.1516 9.304C24.7276 8.312 25.5036 7.536 26.4796 6.976C27.4556 6.416 28.5436 6.136 29.7436 6.136C30.9436 6.136 32.0236 6.416 32.9836 6.976C33.9596 7.536 34.7276 8.312 35.2876 9.304C35.8636 10.28 36.1516 11.408 36.1516 12.688ZM33.6316 12.688C33.6476 11.84 33.4796 11.096 33.1276 10.456C32.7916 9.8 32.3276 9.296 31.7356 8.944C31.1436 8.576 30.4796 8.392 29.7436 8.392C29.0076 8.392 28.3356 8.576 27.7276 8.944C27.1356 9.296 26.6636 9.8 26.3116 10.456C25.9756 11.096 25.8156 11.84 25.8316 12.688C25.8156 13.52 25.9756 14.264 26.3116 14.92C26.6636 15.56 27.1356 16.064 27.7276 16.432C28.3356 16.8 29.0076 16.984 29.7436 16.984C30.4796 16.984 31.1436 16.8 31.7356 16.432C32.3276 16.064 32.7916 15.56 33.1276 14.92C33.4796 14.264 33.6476 13.52 33.6316 12.688ZM41.6292 19.576C41.6292 20.424 41.4372 21.16 41.0532 21.784C40.6852 22.408 40.1732 22.888 39.5172 23.224C38.8612 23.56 38.1252 23.728 37.3092 23.728L36.3732 21.832C37.3492 21.832 38.0532 21.576 38.4852 21.064C38.9332 20.552 39.1572 19.856 39.1572 18.976V6.4H41.6292V19.576ZM40.4532 3.52C39.8932 3.52 39.4772 3.376 39.2052 3.088C38.9332 2.8 38.7972 2.424 38.7972 1.96C38.7972 1.56 38.9332 1.2 39.2052 0.879999C39.4772 0.559999 39.8932 0.399999 40.4532 0.399999C41.0132 0.399999 41.4292 0.543999 41.7012 0.831999C41.9732 1.12 42.1092 1.496 42.1092 1.96C42.1092 2.36 41.9732 2.72 41.7012 3.04C41.4292 3.36 41.0132 3.52 40.4532 3.52ZM55.9739 17.344H55.9499C55.4379 17.84 54.7339 18.28 53.8379 18.664C52.9419 19.048 52.0059 19.24 51.0299 19.24C49.7179 19.24 48.5579 18.968 47.5499 18.424C46.5579 17.864 45.7819 17.104 45.2219 16.144C44.6619 15.168 44.3819 14.064 44.3819 12.832C44.3819 11.424 44.6779 10.224 45.2699 9.232C45.8619 8.224 46.6459 7.456 47.6219 6.928C48.5979 6.384 49.6619 6.112 50.8139 6.112C51.8699 6.112 52.8299 6.376 53.6939 6.904C54.5579 7.416 55.2459 8.128 55.7579 9.04C56.2699 9.952 56.5259 11.016 56.5259 12.232L56.5019 13.288H46.8539C46.9979 14.424 47.4619 15.328 48.2459 16C49.0459 16.656 50.0539 16.984 51.2699 16.984C52.1499 16.984 52.8619 16.824 53.4059 16.504C53.9499 16.168 54.3979 15.848 54.7499 15.544L55.9739 17.344ZM50.8139 8.392C49.8699 8.392 49.0459 8.616 48.3419 9.064C47.6379 9.496 47.1739 10.248 46.9499 11.32H54.0059V11.152C53.9579 10.608 53.7739 10.128 53.4539 9.712C53.1499 9.296 52.7659 8.976 52.3019 8.752C51.8379 8.512 51.3419 8.392 50.8139 8.392ZM60.7964 12.688C60.7964 13.52 60.9804 14.264 61.3484 14.92C61.7324 15.56 62.2284 16.072 62.8364 16.456C63.4604 16.824 64.1244 17.008 64.8284 17.008C65.6284 17.008 66.3244 16.8 66.9164 16.384C67.5084 15.968 67.9884 15.536 68.3564 15.088L69.7244 16.768C69.4204 17.2 69.0044 17.608 68.4764 17.992C67.9484 18.36 67.3484 18.664 66.6764 18.904C66.0044 19.128 65.3004 19.24 64.5644 19.24C63.4124 19.24 62.3724 18.952 61.4444 18.376C60.5164 17.8 59.7804 17.016 59.2364 16.024C58.7084 15.032 58.4444 13.92 58.4444 12.688C58.4444 11.44 58.7084 10.328 59.2364 9.352C59.7804 8.36 60.5164 7.576 61.4444 7C62.3724 6.424 63.4124 6.136 64.5644 6.136C65.7324 6.136 66.7724 6.376 67.6844 6.856C68.5964 7.32 69.2764 7.928 69.7244 8.68L68.3564 10.36C67.9884 9.816 67.4604 9.352 66.7724 8.968C66.1004 8.568 65.4444 8.368 64.8044 8.368C64.0524 8.368 63.3724 8.56 62.7644 8.944C62.1564 9.312 61.6764 9.824 61.3244 10.48C60.9724 11.12 60.7964 11.856 60.7964 12.688ZM76.0881 19H73.6161V8.8H71.0001V6.4H73.6161V3.184H76.0881V6.4H79.0161V8.8H76.0881V19ZM89.0078 9.712C88.5598 9.264 88.0478 8.896 87.4718 8.608C86.9118 8.32 86.3918 8.176 85.9118 8.176C85.5758 8.176 85.2398 8.216 84.9038 8.296C84.5838 8.376 84.3118 8.528 84.0878 8.752C83.8638 8.96 83.7518 9.272 83.7518 9.688C83.7678 10.264 84.0238 10.672 84.5198 10.912C85.0318 11.152 85.6638 11.368 86.4158 11.56C87.0718 11.736 87.7118 11.96 88.3358 12.232C88.9598 12.488 89.4718 12.872 89.8718 13.384C90.2878 13.88 90.4958 14.584 90.4958 15.496C90.4958 16.28 90.2718 16.952 89.8238 17.512C89.3918 18.072 88.8238 18.504 88.1198 18.808C87.4318 19.096 86.7038 19.24 85.9358 19.24C85.0238 19.24 84.1198 19.08 83.2238 18.76C82.3438 18.424 81.5918 17.856 80.9678 17.056L82.6478 15.616C83.0798 16.112 83.5678 16.504 84.1118 16.792C84.6718 17.064 85.3518 17.2 86.1518 17.2C86.4558 17.2 86.7598 17.152 87.0638 17.056C87.3678 16.944 87.6238 16.776 87.8318 16.552C88.0558 16.312 88.1678 15.992 88.1678 15.592C88.1678 15.208 88.0478 14.912 87.8078 14.704C87.5838 14.48 87.2798 14.304 86.8958 14.176C86.5118 14.032 86.0878 13.904 85.6238 13.792C84.9358 13.6 84.2558 13.368 83.5838 13.096C82.9278 12.808 82.3758 12.408 81.9278 11.896C81.4958 11.368 81.2798 10.656 81.2798 9.76C81.2798 9.008 81.4878 8.368 81.9038 7.84C82.3358 7.296 82.8958 6.88 83.5838 6.592C84.2718 6.288 85.0078 6.136 85.7918 6.136C86.5438 6.136 87.3598 6.296 88.2398 6.616C89.1198 6.936 89.8478 7.448 90.4238 8.152L89.0078 9.712Z" fill="#666666"/>
</svg>
