<svg width="195" height="15" viewBox="0 0 195 15" fill="none" xmlns="http://www.w3.org/2000/svg">
<path d="M4.362 1.2C4.88467 1.2 5.36533 1.33533 5.804 1.606C6.24267 1.86733 6.59267 2.22667 6.854 2.684C7.11533 3.132 7.246 3.64067 7.246 4.21C7.246 4.77 7.11533 5.28333 6.854 5.75C6.59267 6.20733 6.24267 6.57133 5.804 6.842C5.36533 7.11267 4.88467 7.248 4.362 7.248H1.884V11H0.372V1.2H4.362ZM4.334 5.792C4.586 5.792 4.81467 5.722 5.02 5.582C5.22533 5.43267 5.38867 5.24133 5.51 5.008C5.64067 4.76533 5.706 4.49933 5.706 4.21C5.706 3.77133 5.57067 3.40267 5.3 3.104C5.02933 2.80533 4.70733 2.656 4.334 2.656H1.884V5.792H4.334ZM12.997 5.204C12.9037 5.15733 12.787 5.12 12.647 5.092C12.5164 5.05467 12.3764 5.036 12.227 5.036C11.9284 5.036 11.6344 5.11533 11.345 5.274C11.0557 5.42333 10.813 5.64267 10.617 5.932C10.4304 6.212 10.337 6.548 10.337 6.94V11H8.88105V3.65H10.337V5.036C10.5424 4.588 10.8504 4.21933 11.261 3.93C11.681 3.64067 12.1197 3.496 12.577 3.496C12.9224 3.496 13.1884 3.54267 13.375 3.636L12.997 5.204ZM21.2551 7.318C21.2551 8.06467 21.0871 8.72733 20.7511 9.306C20.4244 9.87533 19.9764 10.3233 19.4071 10.65C18.8471 10.9767 18.2171 11.14 17.5171 11.14C16.8171 11.14 16.1824 10.9767 15.6131 10.65C15.0437 10.3233 14.5911 9.87533 14.2551 9.306C13.9284 8.72733 13.7651 8.06467 13.7651 7.318C13.7651 6.57133 13.9284 5.91333 14.2551 5.344C14.5911 4.76533 15.0437 4.31267 15.6131 3.986C16.1824 3.65933 16.8171 3.496 17.5171 3.496C18.2171 3.496 18.8471 3.65933 19.4071 3.986C19.9764 4.31267 20.4244 4.76533 20.7511 5.344C21.0871 5.91333 21.2551 6.57133 21.2551 7.318ZM19.7851 7.318C19.7944 6.82333 19.6964 6.38933 19.4911 6.016C19.2951 5.63333 19.0244 5.33933 18.6791 5.134C18.3337 4.91933 17.9464 4.812 17.5171 4.812C17.0877 4.812 16.6957 4.91933 16.3411 5.134C15.9957 5.33933 15.7204 5.63333 15.5151 6.016C15.3191 6.38933 15.2257 6.82333 15.2351 7.318C15.2257 7.80333 15.3191 8.23733 15.5151 8.62C15.7204 8.99333 15.9957 9.28733 16.3411 9.502C16.6957 9.71667 17.0877 9.824 17.5171 9.824C17.9464 9.824 18.3337 9.71667 18.6791 9.502C19.0244 9.28733 19.2951 8.99333 19.4911 8.62C19.6964 8.23733 19.7944 7.80333 19.7851 7.318ZM26.6624 3.524C27.3157 3.524 27.899 3.68733 28.4124 4.014C28.935 4.33133 29.3457 4.77467 29.6444 5.344C29.943 5.91333 30.0924 6.57133 30.0924 7.318C30.0924 8.05533 29.943 8.71333 29.6444 9.292C29.3457 9.86133 28.9397 10.3093 28.4264 10.636C27.913 10.9627 27.339 11.126 26.7044 11.126C26.1817 11.126 25.7057 11.014 25.2764 10.79C24.8564 10.566 24.525 10.3093 24.2824 10.02V14.08H22.8264V3.636H24.2824V4.714C24.497 4.406 24.819 4.13067 25.2484 3.888C25.6777 3.64533 26.149 3.524 26.6624 3.524ZM26.4664 4.854C26.0277 4.854 25.6357 4.96133 25.2904 5.176C24.9544 5.39067 24.6884 5.68467 24.4924 6.058C24.3057 6.422 24.2124 6.842 24.2124 7.318C24.2124 7.78467 24.3057 8.20467 24.4924 8.578C24.6884 8.95133 24.9544 9.25 25.2904 9.474C25.6357 9.68867 26.0277 9.796 26.4664 9.796C26.905 9.796 27.2924 9.68867 27.6284 9.474C27.9644 9.25 28.2257 8.95133 28.4124 8.578C28.6084 8.20467 28.7064 7.78467 28.7064 7.318C28.7064 6.842 28.6084 6.422 28.4124 6.058C28.2257 5.68467 27.9644 5.39067 27.6284 5.176C27.2924 4.96133 26.905 4.854 26.4664 4.854ZM38.7004 7.318C38.7004 8.06467 38.5324 8.72733 38.1964 9.306C37.8697 9.87533 37.4217 10.3233 36.8524 10.65C36.2924 10.9767 35.6624 11.14 34.9624 11.14C34.2624 11.14 33.6277 10.9767 33.0584 10.65C32.4891 10.3233 32.0364 9.87533 31.7004 9.306C31.3737 8.72733 31.2104 8.06467 31.2104 7.318C31.2104 6.57133 31.3737 5.91333 31.7004 5.344C32.0364 4.76533 32.4891 4.31267 33.0584 3.986C33.6277 3.65933 34.2624 3.496 34.9624 3.496C35.6624 3.496 36.2924 3.65933 36.8524 3.986C37.4217 4.31267 37.8697 4.76533 38.1964 5.344C38.5324 5.91333 38.7004 6.57133 38.7004 7.318ZM37.2304 7.318C37.2397 6.82333 37.1417 6.38933 36.9364 6.016C36.7404 5.63333 36.4697 5.33933 36.1244 5.134C35.7791 4.91933 35.3917 4.812 34.9624 4.812C34.5331 4.812 34.1411 4.91933 33.7864 5.134C33.4411 5.33933 33.1657 5.63333 32.9604 6.016C32.7644 6.38933 32.6711 6.82333 32.6804 7.318C32.6711 7.80333 32.7644 8.23733 32.9604 8.62C33.1657 8.99333 33.4411 9.28733 33.7864 9.502C34.1411 9.71667 34.5331 9.824 34.9624 9.824C35.3917 9.824 35.7791 9.71667 36.1244 9.502C36.4697 9.28733 36.7404 8.99333 36.9364 8.62C37.1417 8.23733 37.2397 7.80333 37.2304 7.318ZM44.5137 5.582C44.2523 5.32067 43.9537 5.106 43.6177 4.938C43.291 4.77 42.9877 4.686 42.7077 4.686C42.5117 4.686 42.3157 4.70933 42.1197 4.756C41.933 4.80267 41.7743 4.89133 41.6437 5.022C41.513 5.14333 41.4477 5.32533 41.4477 5.568C41.457 5.904 41.6063 6.142 41.8957 6.282C42.1943 6.422 42.563 6.548 43.0017 6.66C43.3843 6.76267 43.7577 6.89333 44.1217 7.052C44.4857 7.20133 44.7843 7.42533 45.0177 7.724C45.2603 8.01333 45.3817 8.424 45.3817 8.956C45.3817 9.41333 45.251 9.80533 44.9897 10.132C44.7377 10.4587 44.4063 10.7107 43.9957 10.888C43.5943 11.056 43.1697 11.14 42.7217 11.14C42.1897 11.14 41.6623 11.0467 41.1397 10.86C40.6263 10.664 40.1877 10.3327 39.8237 9.866L40.8037 9.026C41.0557 9.31533 41.3403 9.544 41.6577 9.712C41.9843 9.87067 42.381 9.95 42.8477 9.95C43.025 9.95 43.2023 9.922 43.3797 9.866C43.557 9.80067 43.7063 9.70267 43.8277 9.572C43.9583 9.432 44.0237 9.24533 44.0237 9.012C44.0237 8.788 43.9537 8.61533 43.8137 8.494C43.683 8.36333 43.5057 8.26067 43.2817 8.186C43.0577 8.102 42.8103 8.02733 42.5397 7.962C42.1383 7.85 41.7417 7.71467 41.3497 7.556C40.967 7.388 40.645 7.15467 40.3837 6.856C40.1317 6.548 40.0057 6.13267 40.0057 5.61C40.0057 5.17133 40.127 4.798 40.3697 4.49C40.6217 4.17267 40.9483 3.93 41.3497 3.762C41.751 3.58467 42.1803 3.496 42.6377 3.496C43.0763 3.496 43.5523 3.58933 44.0657 3.776C44.579 3.96267 45.0037 4.26133 45.3397 4.672L44.5137 5.582ZM53.8169 3.65V11H52.3609V9.866C52.1369 10.174 51.8056 10.4633 51.3669 10.734C50.9282 11.0047 50.4196 11.14 49.8409 11.14C49.2249 11.14 48.6602 10.9767 48.1469 10.65C47.6429 10.3233 47.2416 9.87067 46.9429 9.292C46.6442 8.71333 46.4949 8.05067 46.4949 7.304C46.4949 6.55733 46.6489 5.89933 46.9569 5.33C47.2649 4.75133 47.6896 4.30333 48.2309 3.986C48.7722 3.65933 49.3882 3.496 50.0789 3.496C50.5922 3.496 51.0402 3.608 51.4229 3.832C51.8149 4.056 52.1276 4.31733 52.3609 4.616V3.65H53.8169ZM50.1769 9.81C50.6249 9.81 51.0169 9.70267 51.3529 9.488C51.6889 9.264 51.9502 8.96533 52.1369 8.592C52.3236 8.20933 52.4169 7.78 52.4169 7.304C52.4169 6.83733 52.3236 6.41733 52.1369 6.044C51.9502 5.67067 51.6889 5.37667 51.3529 5.162C51.0169 4.938 50.6249 4.826 50.1769 4.826C49.7476 4.826 49.3649 4.93333 49.0289 5.148C48.6929 5.36267 48.4316 5.65667 48.2449 6.03C48.0582 6.40333 47.9649 6.828 47.9649 7.304C47.9649 7.78 48.0582 8.20933 48.2449 8.592C48.4316 8.96533 48.6929 9.264 49.0289 9.488C49.3649 9.70267 49.7476 9.81 50.1769 9.81ZM55.8303 11V0.64H57.2723V11H55.8303ZM63.5723 5.582C63.3109 5.32067 63.0123 5.106 62.6763 4.938C62.3496 4.77 62.0463 4.686 61.7663 4.686C61.5703 4.686 61.3743 4.70933 61.1783 4.756C60.9916 4.80267 60.8329 4.89133 60.7023 5.022C60.5716 5.14333 60.5063 5.32533 60.5063 5.568C60.5156 5.904 60.6649 6.142 60.9543 6.282C61.2529 6.422 61.6216 6.548 62.0603 6.66C62.4429 6.76267 62.8163 6.89333 63.1803 7.052C63.5443 7.20133 63.8429 7.42533 64.0763 7.724C64.3189 8.01333 64.4403 8.424 64.4403 8.956C64.4403 9.41333 64.3096 9.80533 64.0483 10.132C63.7963 10.4587 63.4649 10.7107 63.0543 10.888C62.6529 11.056 62.2283 11.14 61.7803 11.14C61.2483 11.14 60.7209 11.0467 60.1983 10.86C59.6849 10.664 59.2463 10.3327 58.8823 9.866L59.8623 9.026C60.1143 9.31533 60.3989 9.544 60.7163 9.712C61.0429 9.87067 61.4396 9.95 61.9063 9.95C62.0836 9.95 62.2609 9.922 62.4383 9.866C62.6156 9.80067 62.7649 9.70267 62.8863 9.572C63.0169 9.432 63.0823 9.24533 63.0823 9.012C63.0823 8.788 63.0123 8.61533 62.8723 8.494C62.7416 8.36333 62.5643 8.26067 62.3403 8.186C62.1163 8.102 61.8689 8.02733 61.5983 7.962C61.1969 7.85 60.8003 7.71467 60.4083 7.556C60.0256 7.388 59.7036 7.15467 59.4423 6.856C59.1903 6.548 59.0643 6.13267 59.0643 5.61C59.0643 5.17133 59.1856 4.798 59.4283 4.49C59.6803 4.17267 60.0069 3.93 60.4083 3.762C60.8096 3.58467 61.2389 3.496 61.6963 3.496C62.1349 3.496 62.6109 3.58933 63.1243 3.776C63.6376 3.96267 64.0623 4.26133 64.3983 4.672L63.5723 5.582ZM76.7993 3.65V11H75.3433V9.866C75.1193 10.174 74.788 10.4633 74.3493 10.734C73.9106 11.0047 73.402 11.14 72.8233 11.14C72.2073 11.14 71.6426 10.9767 71.1293 10.65C70.6253 10.3233 70.224 9.87067 69.9253 9.292C69.6266 8.71333 69.4773 8.05067 69.4773 7.304C69.4773 6.55733 69.6313 5.89933 69.9393 5.33C70.2473 4.75133 70.672 4.30333 71.2133 3.986C71.7546 3.65933 72.3706 3.496 73.0613 3.496C73.5746 3.496 74.0226 3.608 74.4053 3.832C74.7973 4.056 75.11 4.31733 75.3433 4.616V3.65H76.7993ZM73.1593 9.81C73.6073 9.81 73.9993 9.70267 74.3353 9.488C74.6713 9.264 74.9326 8.96533 75.1193 8.592C75.306 8.20933 75.3993 7.78 75.3993 7.304C75.3993 6.83733 75.306 6.41733 75.1193 6.044C74.9326 5.67067 74.6713 5.37667 74.3353 5.162C73.9993 4.938 73.6073 4.826 73.1593 4.826C72.73 4.826 72.3473 4.93333 72.0113 5.148C71.6753 5.36267 71.414 5.65667 71.2273 6.03C71.0406 6.40333 70.9473 6.828 70.9473 7.304C70.9473 7.78 71.0406 8.20933 71.2273 8.592C71.414 8.96533 71.6753 9.264 72.0113 9.488C72.3473 9.70267 72.73 9.81 73.1593 9.81ZM82.9287 5.204C82.8354 5.15733 82.7187 5.12 82.5787 5.092C82.448 5.05467 82.308 5.036 82.1587 5.036C81.86 5.036 81.566 5.11533 81.2767 5.274C80.9874 5.42333 80.7447 5.64267 80.5487 5.932C80.362 6.212 80.2687 6.548 80.2687 6.94V11H78.8127V3.65H80.2687V5.036C80.474 4.588 80.782 4.21933 81.1927 3.93C81.6127 3.64067 82.0514 3.496 82.5087 3.496C82.854 3.496 83.12 3.54267 83.3067 3.636L82.9287 5.204ZM90.4587 10.034H90.4447C90.1461 10.3233 89.7354 10.58 89.2127 10.804C88.6901 11.028 88.1441 11.14 87.5747 11.14C86.8094 11.14 86.1327 10.9813 85.5447 10.664C84.9661 10.3373 84.5134 9.894 84.1867 9.334C83.8601 8.76467 83.6967 8.12067 83.6967 7.402C83.6967 6.58067 83.8694 5.88067 84.2147 5.302C84.5601 4.714 85.0174 4.266 85.5867 3.958C86.1561 3.64067 86.7767 3.482 87.4487 3.482C88.0647 3.482 88.6247 3.636 89.1287 3.944C89.6327 4.24267 90.0341 4.658 90.3327 5.19C90.6314 5.722 90.7807 6.34267 90.7807 7.052L90.7667 7.668H85.1387C85.2227 8.33067 85.4934 8.858 85.9507 9.25C86.4174 9.63267 87.0054 9.824 87.7147 9.824C88.2281 9.824 88.6434 9.73067 88.9607 9.544C89.2781 9.348 89.5394 9.16133 89.7447 8.984L90.4587 10.034ZM87.4487 4.812C86.8981 4.812 86.4174 4.94267 86.0067 5.204C85.5961 5.456 85.3254 5.89467 85.1947 6.52H89.3107V6.422C89.2827 6.10467 89.1754 5.82467 88.9887 5.582C88.8114 5.33933 88.5874 5.15267 88.3167 5.022C88.0461 4.882 87.7567 4.812 87.4487 4.812ZM100.108 3.524C100.761 3.524 101.344 3.68733 101.858 4.014C102.38 4.33133 102.791 4.77467 103.09 5.344C103.388 5.91333 103.538 6.57133 103.538 7.318C103.538 8.05533 103.388 8.71333 103.09 9.292C102.791 9.86133 102.385 10.3093 101.872 10.636C101.358 10.9627 100.784 11.126 100.15 11.126C99.627 11.126 99.151 11.014 98.7217 10.79C98.3017 10.566 97.9703 10.3093 97.7277 10.02V14.08H96.2717V3.636H97.7277V4.714C97.9423 4.406 98.2643 4.13067 98.6937 3.888C99.123 3.64533 99.5943 3.524 100.108 3.524ZM99.9117 4.854C99.473 4.854 99.081 4.96133 98.7357 5.176C98.3997 5.39067 98.1337 5.68467 97.9377 6.058C97.751 6.422 97.6577 6.842 97.6577 7.318C97.6577 7.78467 97.751 8.20467 97.9377 8.578C98.1337 8.95133 98.3997 9.25 98.7357 9.474C99.081 9.68867 99.473 9.796 99.9117 9.796C100.35 9.796 100.738 9.68867 101.074 9.474C101.41 9.25 101.671 8.95133 101.858 8.578C102.054 8.20467 102.152 7.78467 102.152 7.318C102.152 6.842 102.054 6.422 101.858 6.058C101.671 5.68467 101.41 5.39067 101.074 5.176C100.738 4.96133 100.35 4.854 99.9117 4.854ZM110.116 8.074V3.65H111.558V11H110.116V9.824C109.901 10.1693 109.584 10.4773 109.164 10.748C108.753 11.0093 108.258 11.14 107.68 11.14C106.914 11.14 106.294 10.8787 105.818 10.356C105.342 9.83333 105.104 9.11 105.104 8.186V3.65H106.546V7.794C106.546 8.16733 106.602 8.51267 106.714 8.83C106.835 9.14733 107.022 9.404 107.274 9.6C107.535 9.78667 107.866 9.88 108.268 9.88C108.772 9.88 109.206 9.72133 109.57 9.404C109.934 9.08667 110.116 8.64333 110.116 8.074ZM115.932 11H114.49V5.05H112.964V3.65H114.49V1.774H115.932V3.65H117.64V5.05H115.932V11ZM125.229 11H123.787V5.05H122.261V3.65H123.787V1.774H125.229V3.65H126.937V5.05H125.229V11ZM135.224 7.318C135.224 8.06467 135.056 8.72733 134.72 9.306C134.393 9.87533 133.945 10.3233 133.376 10.65C132.816 10.9767 132.186 11.14 131.486 11.14C130.786 11.14 130.151 10.9767 129.582 10.65C129.012 10.3233 128.56 9.87533 128.224 9.306C127.897 8.72733 127.734 8.06467 127.734 7.318C127.734 6.57133 127.897 5.91333 128.224 5.344C128.56 4.76533 129.012 4.31267 129.582 3.986C130.151 3.65933 130.786 3.496 131.486 3.496C132.186 3.496 132.816 3.65933 133.376 3.986C133.945 4.31267 134.393 4.76533 134.72 5.344C135.056 5.91333 135.224 6.57133 135.224 7.318ZM133.754 7.318C133.763 6.82333 133.665 6.38933 133.46 6.016C133.264 5.63333 132.993 5.33933 132.648 5.134C132.302 4.91933 131.915 4.812 131.486 4.812C131.056 4.812 130.664 4.91933 130.31 5.134C129.964 5.33933 129.689 5.63333 129.484 6.016C129.288 6.38933 129.194 6.82333 129.204 7.318C129.194 7.80333 129.288 8.23733 129.484 8.62C129.689 8.99333 129.964 9.28733 130.31 9.502C130.664 9.71667 131.056 9.824 131.486 9.824C131.915 9.824 132.302 9.71667 132.648 9.502C132.993 9.28733 133.264 8.99333 133.46 8.62C133.665 8.23733 133.763 7.80333 133.754 7.318ZM143.071 11H141.629V5.05H140.103V3.65H141.629V1.774H143.071V3.65H144.779V5.05H143.071V11ZM149.942 3.496C150.605 3.496 151.118 3.63133 151.482 3.902C151.846 4.17267 152.098 4.53667 152.238 4.994C152.387 5.45133 152.462 5.96 152.462 6.52V11H151.02V6.618C151.02 6.26333 150.973 5.946 150.88 5.666C150.787 5.386 150.628 5.16667 150.404 5.008C150.18 4.84933 149.867 4.784 149.466 4.812C149.093 4.812 148.761 4.89133 148.472 5.05C148.183 5.20867 147.954 5.41867 147.786 5.68C147.618 5.94133 147.534 6.23067 147.534 6.548V11H146.092V0.64H147.534V4.812C147.758 4.46667 148.085 4.16333 148.514 3.902C148.943 3.63133 149.419 3.496 149.942 3.496ZM160.732 10.034H160.718C160.419 10.3233 160.009 10.58 159.486 10.804C158.963 11.028 158.417 11.14 157.848 11.14C157.083 11.14 156.406 10.9813 155.818 10.664C155.239 10.3373 154.787 9.894 154.46 9.334C154.133 8.76467 153.97 8.12067 153.97 7.402C153.97 6.58067 154.143 5.88067 154.488 5.302C154.833 4.714 155.291 4.266 155.86 3.958C156.429 3.64067 157.05 3.482 157.722 3.482C158.338 3.482 158.898 3.636 159.402 3.944C159.906 4.24267 160.307 4.658 160.606 5.19C160.905 5.722 161.054 6.34267 161.054 7.052L161.04 7.668H155.412C155.496 8.33067 155.767 8.858 156.224 9.25C156.691 9.63267 157.279 9.824 157.988 9.824C158.501 9.824 158.917 9.73067 159.234 9.544C159.551 9.348 159.813 9.16133 160.018 8.984L160.732 10.034ZM157.722 4.812C157.171 4.812 156.691 4.94267 156.28 5.204C155.869 5.456 155.599 5.89467 155.468 6.52H159.584V6.422C159.556 6.10467 159.449 5.82467 159.262 5.582C159.085 5.33933 158.861 5.15267 158.59 5.022C158.319 4.882 158.03 4.812 157.722 4.812ZM167.399 3.65L169.541 8.9L171.767 3.65H173.251L169.989 11H168.953L165.845 3.65H167.399ZM181.407 7.318C181.407 8.06467 181.239 8.72733 180.903 9.306C180.577 9.87533 180.129 10.3233 179.559 10.65C178.999 10.9767 178.369 11.14 177.669 11.14C176.969 11.14 176.335 10.9767 175.765 10.65C175.196 10.3233 174.743 9.87533 174.407 9.306C174.081 8.72733 173.917 8.06467 173.917 7.318C173.917 6.57133 174.081 5.91333 174.407 5.344C174.743 4.76533 175.196 4.31267 175.765 3.986C176.335 3.65933 176.969 3.496 177.669 3.496C178.369 3.496 178.999 3.65933 179.559 3.986C180.129 4.31267 180.577 4.76533 180.903 5.344C181.239 5.91333 181.407 6.57133 181.407 7.318ZM179.937 7.318C179.947 6.82333 179.849 6.38933 179.643 6.016C179.447 5.63333 179.177 5.33933 178.831 5.134C178.486 4.91933 178.099 4.812 177.669 4.812C177.24 4.812 176.848 4.91933 176.493 5.134C176.148 5.33933 175.873 5.63333 175.667 6.016C175.471 6.38933 175.378 6.82333 175.387 7.318C175.378 7.80333 175.471 8.23733 175.667 8.62C175.873 8.99333 176.148 9.28733 176.493 9.502C176.848 9.71667 177.24 9.824 177.669 9.824C178.099 9.824 178.486 9.71667 178.831 9.502C179.177 9.28733 179.447 8.99333 179.643 8.62C179.849 8.23733 179.947 7.80333 179.937 7.318ZM185.331 11H183.889V5.05H182.363V3.65H183.889V1.774H185.331V3.65H187.039V5.05H185.331V11ZM194.597 10.034H194.583C194.285 10.3233 193.874 10.58 193.351 10.804C192.829 11.028 192.283 11.14 191.713 11.14C190.948 11.14 190.271 10.9813 189.683 10.664C189.105 10.3373 188.652 9.894 188.325 9.334C187.999 8.76467 187.835 8.12067 187.835 7.402C187.835 6.58067 188.008 5.88067 188.353 5.302C188.699 4.714 189.156 4.266 189.725 3.958C190.295 3.64067 190.915 3.482 191.587 3.482C192.203 3.482 192.763 3.636 193.267 3.944C193.771 4.24267 194.173 4.658 194.471 5.19C194.77 5.722 194.919 6.34267 194.919 7.052L194.905 7.668H189.277C189.361 8.33067 189.632 8.858 190.089 9.25C190.556 9.63267 191.144 9.824 191.853 9.824C192.367 9.824 192.782 9.73067 193.099 9.544C193.417 9.348 193.678 9.16133 193.883 8.984L194.597 10.034ZM191.587 4.812C191.037 4.812 190.556 4.94267 190.145 5.204C189.735 5.456 189.464 5.89467 189.333 6.52H193.449V6.422C193.421 6.10467 193.314 5.82467 193.127 5.582C192.95 5.33933 192.726 5.15267 192.455 5.022C192.185 4.882 191.895 4.812 191.587 4.812Z" fill="#99ACD5"/>
</svg>
