<svg width="116" height="18" viewBox="0 0 116 18" fill="none" xmlns="http://www.w3.org/2000/svg">
<path d="M12.808 5.552C12.808 6.56 12.504 7.496 11.896 8.36C11.304 9.224 10.528 9.864 9.568 10.28L13.48 17.024L10.336 17L6.784 10.688H2.944V17H0.352V0.199999H7.504C8.384 0.199999 9.224 0.415999 10.024 0.847999C10.84 1.28 11.504 1.896 12.016 2.696C12.544 3.496 12.808 4.448 12.808 5.552ZM7.072 2.696H2.944V8.192H7.744C8.512 8.192 9.104 7.92 9.52 7.376C9.952 6.832 10.168 6.216 10.168 5.528C10.168 4.648 9.864 3.96 9.256 3.464C8.648 2.952 7.92 2.696 7.072 2.696ZM26.7708 15.344H26.7468C26.2348 15.84 25.5308 16.28 24.6348 16.664C23.7388 17.048 22.8028 17.24 21.8268 17.24C20.5148 17.24 19.3548 16.968 18.3468 16.424C17.3548 15.864 16.5788 15.104 16.0188 14.144C15.4588 13.168 15.1788 12.064 15.1788 10.832C15.1788 9.424 15.4748 8.224 16.0668 7.232C16.6588 6.224 17.4428 5.456 18.4188 4.928C19.3948 4.384 20.4588 4.112 21.6108 4.112C22.6668 4.112 23.6268 4.376 24.4908 4.904C25.3548 5.416 26.0428 6.128 26.5547 7.04C27.0668 7.952 27.3228 9.016 27.3228 10.232L27.2988 11.288H17.6508C17.7948 12.424 18.2588 13.328 19.0428 14C19.8428 14.656 20.8508 14.984 22.0668 14.984C22.9468 14.984 23.6588 14.824 24.2028 14.504C24.7468 14.168 25.1948 13.848 25.5468 13.544L26.7708 15.344ZM21.6108 6.392C20.6668 6.392 19.8428 6.616 19.1388 7.064C18.4348 7.496 17.9708 8.248 17.7467 9.32H24.8028V9.152C24.7548 8.608 24.5708 8.128 24.2508 7.712C23.9468 7.296 23.5628 6.976 23.0988 6.752C22.6348 6.512 22.1388 6.392 21.6108 6.392ZM37.2813 7.712C36.8333 7.264 36.3213 6.896 35.7453 6.608C35.1853 6.32 34.6653 6.176 34.1853 6.176C33.8493 6.176 33.5133 6.216 33.1773 6.296C32.8573 6.376 32.5853 6.528 32.3613 6.752C32.1373 6.96 32.0253 7.272 32.0253 7.688C32.0413 8.264 32.2973 8.672 32.7933 8.912C33.3053 9.152 33.9373 9.368 34.6893 9.56C35.3453 9.736 35.9853 9.96 36.6093 10.232C37.2333 10.488 37.7453 10.872 38.1453 11.384C38.5613 11.88 38.7693 12.584 38.7693 13.496C38.7693 14.28 38.5453 14.952 38.0973 15.512C37.6653 16.072 37.0973 16.504 36.3933 16.808C35.7053 17.096 34.9773 17.24 34.2093 17.24C33.2973 17.24 32.3933 17.08 31.4973 16.76C30.6173 16.424 29.8653 15.856 29.2413 15.056L30.9213 13.616C31.3533 14.112 31.8413 14.504 32.3853 14.792C32.9453 15.064 33.6253 15.2 34.4253 15.2C34.7293 15.2 35.0333 15.152 35.3372 15.056C35.6413 14.944 35.8973 14.776 36.1053 14.552C36.3293 14.312 36.4413 13.992 36.4413 13.592C36.4413 13.208 36.3213 12.912 36.0813 12.704C35.8573 12.48 35.5533 12.304 35.1693 12.176C34.7853 12.032 34.3613 11.904 33.8973 11.792C33.2093 11.6 32.5293 11.368 31.8573 11.096C31.2013 10.808 30.6493 10.408 30.2013 9.896C29.7693 9.368 29.5533 8.656 29.5533 7.76C29.5533 7.008 29.7613 6.368 30.1773 5.84C30.6093 5.296 31.1693 4.88 31.8573 4.592C32.5453 4.288 33.2813 4.136 34.0653 4.136C34.8173 4.136 35.6333 4.296 36.5133 4.616C37.3933 4.936 38.1213 5.448 38.6973 6.152L37.2813 7.712ZM53.5656 10.688C53.5656 11.968 53.2776 13.104 52.7016 14.096C52.1416 15.072 51.3736 15.84 50.3976 16.4C49.4376 16.96 48.3576 17.24 47.1576 17.24C45.9576 17.24 44.8696 16.96 43.8936 16.4C42.9176 15.84 42.1416 15.072 41.5656 14.096C41.0056 13.104 40.7256 11.968 40.7256 10.688C40.7256 9.408 41.0056 8.28 41.5656 7.304C42.1416 6.312 42.9176 5.536 43.8936 4.976C44.8696 4.416 45.9576 4.136 47.1576 4.136C48.3576 4.136 49.4376 4.416 50.3976 4.976C51.3736 5.536 52.1416 6.312 52.7016 7.304C53.2776 8.28 53.5656 9.408 53.5656 10.688ZM51.0456 10.688C51.0616 9.84 50.8936 9.096 50.5416 8.456C50.2056 7.8 49.7416 7.296 49.1496 6.944C48.5576 6.576 47.8936 6.392 47.1576 6.392C46.4216 6.392 45.7496 6.576 45.1416 6.944C44.5496 7.296 44.0776 7.8 43.7256 8.456C43.3896 9.096 43.2296 9.84 43.2456 10.688C43.2296 11.52 43.3896 12.264 43.7256 12.92C44.0776 13.56 44.5496 14.064 45.1416 14.432C45.7496 14.8 46.4216 14.984 47.1576 14.984C47.8936 14.984 48.5576 14.8 49.1496 14.432C49.7416 14.064 50.2056 13.56 50.5416 12.92C50.8936 12.264 51.0616 11.52 51.0456 10.688ZM64.8513 11.984V4.4H67.3233V17H64.8513V14.984C64.4833 15.576 63.9393 16.104 63.2193 16.568C62.5153 17.016 61.6673 17.24 60.6753 17.24C59.3633 17.24 58.2993 16.792 57.4833 15.896C56.6673 15 56.2593 13.76 56.2593 12.176V4.4H58.7313V11.504C58.7313 12.144 58.8273 12.736 59.0193 13.28C59.2273 13.824 59.5473 14.264 59.9793 14.6C60.4273 14.92 60.9953 15.08 61.6833 15.08C62.5473 15.08 63.2913 14.808 63.9153 14.264C64.5393 13.72 64.8513 12.96 64.8513 11.984ZM77.8465 7.064C77.6865 6.984 77.4865 6.92 77.2465 6.872C77.0225 6.808 76.7825 6.776 76.5265 6.776C76.0145 6.776 75.5105 6.912 75.0145 7.184C74.5185 7.44 74.1025 7.816 73.7665 8.312C73.4465 8.792 73.2865 9.368 73.2865 10.04V17H70.7905V4.4H73.2865V6.776C73.6385 6.008 74.1665 5.376 74.8705 4.88C75.5905 4.384 76.3425 4.136 77.1265 4.136C77.7185 4.136 78.1745 4.216 78.4945 4.376L77.8465 7.064ZM81.5151 10.688C81.5151 11.52 81.6991 12.264 82.0671 12.92C82.4511 13.56 82.9471 14.072 83.5551 14.456C84.1791 14.824 84.8431 15.008 85.5471 15.008C86.3471 15.008 87.0431 14.8 87.6351 14.384C88.2271 13.968 88.7071 13.536 89.0751 13.088L90.4431 14.768C90.1391 15.2 89.7231 15.608 89.1951 15.992C88.6671 16.36 88.0671 16.664 87.3951 16.904C86.7231 17.128 86.0191 17.24 85.2831 17.24C84.1311 17.24 83.0911 16.952 82.1631 16.376C81.2351 15.8 80.4991 15.016 79.9551 14.024C79.4271 13.032 79.1631 11.92 79.1631 10.688C79.1631 9.44 79.4271 8.328 79.9551 7.352C80.4991 6.36 81.2351 5.576 82.1631 5C83.0911 4.424 84.1311 4.136 85.2831 4.136C86.4511 4.136 87.4911 4.376 88.4031 4.856C89.3151 5.32 89.9951 5.928 90.4431 6.68L89.0751 8.36C88.7071 7.816 88.1791 7.352 87.4911 6.968C86.8191 6.568 86.1631 6.368 85.5231 6.368C84.7711 6.368 84.0911 6.56 83.4831 6.944C82.8751 7.312 82.3951 7.824 82.0431 8.48C81.6911 9.12 81.5151 9.856 81.5151 10.688ZM103.599 15.344H103.575C103.063 15.84 102.359 16.28 101.463 16.664C100.567 17.048 99.6309 17.24 98.6549 17.24C97.3429 17.24 96.1829 16.968 95.1749 16.424C94.1829 15.864 93.4069 15.104 92.8469 14.144C92.2869 13.168 92.0069 12.064 92.0069 10.832C92.0069 9.424 92.3029 8.224 92.8949 7.232C93.4869 6.224 94.2709 5.456 95.2469 4.928C96.2229 4.384 97.2869 4.112 98.4389 4.112C99.4949 4.112 100.455 4.376 101.319 4.904C102.183 5.416 102.871 6.128 103.383 7.04C103.895 7.952 104.151 9.016 104.151 10.232L104.127 11.288H94.4789C94.6229 12.424 95.0869 13.328 95.8709 14C96.6709 14.656 97.6789 14.984 98.8949 14.984C99.7749 14.984 100.487 14.824 101.031 14.504C101.575 14.168 102.023 13.848 102.375 13.544L103.599 15.344ZM98.4389 6.392C97.4949 6.392 96.6709 6.616 95.9669 7.064C95.2629 7.496 94.7989 8.248 94.5749 9.32H101.631V9.152C101.583 8.608 101.399 8.128 101.079 7.712C100.775 7.296 100.391 6.976 99.9269 6.752C99.4629 6.512 98.9669 6.392 98.4389 6.392ZM114.109 7.712C113.661 7.264 113.149 6.896 112.573 6.608C112.013 6.32 111.493 6.176 111.013 6.176C110.677 6.176 110.341 6.216 110.005 6.296C109.685 6.376 109.413 6.528 109.189 6.752C108.965 6.96 108.853 7.272 108.853 7.688C108.869 8.264 109.125 8.672 109.621 8.912C110.133 9.152 110.765 9.368 111.517 9.56C112.173 9.736 112.813 9.96 113.437 10.232C114.061 10.488 114.573 10.872 114.973 11.384C115.389 11.88 115.597 12.584 115.597 13.496C115.597 14.28 115.373 14.952 114.925 15.512C114.493 16.072 113.925 16.504 113.221 16.808C112.533 17.096 111.805 17.24 111.037 17.24C110.125 17.24 109.221 17.08 108.325 16.76C107.445 16.424 106.693 15.856 106.069 15.056L107.749 13.616C108.181 14.112 108.669 14.504 109.213 14.792C109.773 15.064 110.453 15.2 111.253 15.2C111.557 15.2 111.861 15.152 112.165 15.056C112.469 14.944 112.725 14.776 112.933 14.552C113.157 14.312 113.269 13.992 113.269 13.592C113.269 13.208 113.149 12.912 112.909 12.704C112.685 12.48 112.381 12.304 111.997 12.176C111.613 12.032 111.189 11.904 110.725 11.792C110.037 11.6 109.357 11.368 108.685 11.096C108.029 10.808 107.477 10.408 107.029 9.896C106.597 9.368 106.381 8.656 106.381 7.76C106.381 7.008 106.589 6.368 107.005 5.84C107.437 5.296 107.997 4.88 108.685 4.592C109.373 4.288 110.109 4.136 110.893 4.136C111.645 4.136 112.461 4.296 113.341 4.616C114.221 4.936 114.949 5.448 115.525 6.152L114.109 7.712Z" fill="#666666"/>
</svg>
