<svg width="210" height="19" viewBox="0 0 210 19" fill="none" xmlns="http://www.w3.org/2000/svg">
<path d="M2.232 10.202C2.724 10.91 3.234 11.462 3.762 11.858C4.302 12.242 4.998 12.434 5.85 12.434C6.258 12.434 6.648 12.368 7.02 12.236C7.392 12.104 7.698 11.912 7.938 11.66C8.178 11.408 8.298 11.108 8.298 10.76C8.298 10.16 8.04 9.692 7.524 9.356C7.02 9.02 6.306 8.762 5.382 8.582C4.206 8.342 3.27 7.928 2.574 7.34C1.878 6.74 1.53 5.876 1.53 4.748C1.53 4.028 1.728 3.404 2.124 2.876C2.532 2.348 3.066 1.94 3.726 1.652C4.386 1.364 5.1 1.22 5.868 1.22C6.864 1.22 7.722 1.412 8.442 1.796C9.162 2.18 9.726 2.726 10.134 3.434L8.766 4.784C8.442 4.244 8.034 3.806 7.542 3.47C7.05 3.134 6.474 2.966 5.814 2.966C5.154 2.966 4.596 3.122 4.14 3.434C3.696 3.734 3.474 4.154 3.474 4.694C3.474 5.306 3.708 5.756 4.176 6.044C4.656 6.32 5.286 6.542 6.066 6.71C6.774 6.854 7.446 7.076 8.082 7.376C8.718 7.676 9.234 8.066 9.63 8.546C10.038 9.014 10.242 9.584 10.242 10.256C10.242 11.456 9.834 12.41 9.018 13.118C8.202 13.826 7.08 14.18 5.652 14.18C4.68 14.18 3.792 13.988 2.988 13.604C2.196 13.22 1.5 12.596 0.9 11.732L2.232 10.202ZM15.5524 14H13.6984V6.35H11.7364V4.55H13.6984V2.138H15.5524V4.55H17.7484V6.35H15.5524V14ZM28.1507 4.55V14H26.2787V12.542C25.9907 12.938 25.5647 13.31 25.0007 13.658C24.4367 14.006 23.7827 14.18 23.0387 14.18C22.2467 14.18 21.5207 13.97 20.8607 13.55C20.2127 13.13 19.6967 12.548 19.3127 11.804C18.9287 11.06 18.7367 10.208 18.7367 9.248C18.7367 8.288 18.9347 7.442 19.3307 6.71C19.7267 5.966 20.2727 5.39 20.9687 4.982C21.6647 4.562 22.4567 4.352 23.3447 4.352C24.0047 4.352 24.5807 4.496 25.0727 4.784C25.5767 5.072 25.9787 5.408 26.2787 5.792V4.55H28.1507ZM23.4707 12.47C24.0467 12.47 24.5507 12.332 24.9827 12.056C25.4147 11.768 25.7507 11.384 25.9907 10.904C26.2307 10.412 26.3507 9.86 26.3507 9.248C26.3507 8.648 26.2307 8.108 25.9907 7.628C25.7507 7.148 25.4147 6.77 24.9827 6.494C24.5507 6.206 24.0467 6.062 23.4707 6.062C22.9187 6.062 22.4267 6.2 21.9947 6.476C21.5627 6.752 21.2267 7.13 20.9867 7.61C20.7467 8.09 20.6267 8.636 20.6267 9.248C20.6267 9.86 20.7467 10.412 20.9867 10.904C21.2267 11.384 21.5627 11.768 21.9947 12.056C22.4267 12.332 22.9187 12.47 23.4707 12.47ZM30.7394 14V0.68H32.5934V8.78L36.8594 4.55H39.3614L34.9334 8.708L39.4874 14H37.1114L33.6194 9.932L32.5934 10.904V14H30.7394ZM48.6835 12.758H48.6655C48.2815 13.13 47.7535 13.46 47.0815 13.748C46.4095 14.036 45.7075 14.18 44.9755 14.18C43.9915 14.18 43.1215 13.976 42.3655 13.568C41.6215 13.148 41.0395 12.578 40.6195 11.858C40.1995 11.126 39.9895 10.298 39.9895 9.374C39.9895 8.318 40.2115 7.418 40.6555 6.674C41.0995 5.918 41.6875 5.342 42.4195 4.946C43.1515 4.538 43.9495 4.334 44.8135 4.334C45.6055 4.334 46.3255 4.532 46.9735 4.928C47.6215 5.312 48.1375 5.846 48.5215 6.53C48.9055 7.214 49.0975 8.012 49.0975 8.924L49.0795 9.716H41.8435C41.9515 10.568 42.2995 11.246 42.8875 11.75C43.4875 12.242 44.2435 12.488 45.1555 12.488C45.8155 12.488 46.3495 12.368 46.7575 12.128C47.1655 11.876 47.5015 11.636 47.7655 11.408L48.6835 12.758ZM44.8135 6.044C44.1055 6.044 43.4875 6.212 42.9595 6.548C42.4315 6.872 42.0835 7.436 41.9155 8.24H47.2075V8.114C47.1715 7.706 47.0335 7.346 46.7935 7.034C46.5655 6.722 46.2775 6.482 45.9295 6.314C45.5815 6.134 45.2095 6.044 44.8135 6.044ZM56.0624 4.352C56.9144 4.352 57.5744 4.526 58.0424 4.874C58.5104 5.222 58.8344 5.69 59.0144 6.278C59.2064 6.866 59.3024 7.52 59.3024 8.24V14H57.4484V8.366C57.4484 7.91 57.3884 7.502 57.2684 7.142C57.1484 6.782 56.9444 6.5 56.6564 6.296C56.3684 6.092 55.9664 6.008 55.4504 6.044C54.9704 6.044 54.5444 6.146 54.1724 6.35C53.8004 6.554 53.5064 6.824 53.2904 7.16C53.0744 7.496 52.9664 7.868 52.9664 8.276V14H51.1124V0.68H52.9664V6.044C53.2544 5.6 53.6744 5.21 54.2264 4.874C54.7784 4.526 55.3904 4.352 56.0624 4.352ZM70.8715 9.266C70.8715 10.226 70.6555 11.078 70.2235 11.822C69.8035 12.554 69.2275 13.13 68.4955 13.55C67.7755 13.97 66.9655 14.18 66.0655 14.18C65.1655 14.18 64.3495 13.97 63.6175 13.55C62.8855 13.13 62.3035 12.554 61.8715 11.822C61.4515 11.078 61.2415 10.226 61.2415 9.266C61.2415 8.306 61.4515 7.46 61.8715 6.728C62.3035 5.984 62.8855 5.402 63.6175 4.982C64.3495 4.562 65.1655 4.352 66.0655 4.352C66.9655 4.352 67.7755 4.562 68.4955 4.982C69.2275 5.402 69.8035 5.984 70.2235 6.728C70.6555 7.46 70.8715 8.306 70.8715 9.266ZM68.9815 9.266C68.9935 8.63 68.8675 8.072 68.6035 7.592C68.3515 7.1 68.0035 6.722 67.5595 6.458C67.1155 6.182 66.6175 6.044 66.0655 6.044C65.5135 6.044 65.0095 6.182 64.5535 6.458C64.1095 6.722 63.7555 7.1 63.4915 7.592C63.2395 8.072 63.1195 8.63 63.1315 9.266C63.1195 9.89 63.2395 10.448 63.4915 10.94C63.7555 11.42 64.1095 11.798 64.5535 12.074C65.0095 12.35 65.5135 12.488 66.0655 12.488C66.6175 12.488 67.1155 12.35 67.5595 12.074C68.0035 11.798 68.3515 11.42 68.6035 10.94C68.8675 10.448 68.9935 9.89 68.9815 9.266ZM72.8917 14V0.68H74.7457V14H72.8917ZM86.0719 0.68V14H84.2179V12.668C83.9419 13.04 83.5339 13.388 82.9939 13.712C82.4539 14.024 81.8419 14.18 81.1579 14.18C80.3059 14.18 79.5379 13.97 78.8539 13.55C78.1699 13.13 77.6299 12.548 77.2339 11.804C76.8379 11.06 76.6399 10.214 76.6399 9.266C76.6399 8.306 76.8379 7.46 77.2339 6.728C77.6299 5.984 78.1639 5.402 78.8359 4.982C79.5079 4.562 80.2639 4.352 81.1039 4.352C81.7759 4.352 82.3819 4.49 82.9219 4.766C83.4739 5.042 83.9059 5.366 84.2179 5.738V0.68H86.0719ZM81.4099 12.578C81.9859 12.578 82.4899 12.434 82.9219 12.146C83.3539 11.858 83.6899 11.462 83.9299 10.958C84.1699 10.454 84.2899 9.89 84.2899 9.266C84.2899 8.63 84.1699 8.066 83.9299 7.574C83.6899 7.07 83.3539 6.674 82.9219 6.386C82.4899 6.098 81.9859 5.954 81.4099 5.954C80.8459 5.954 80.3479 6.098 79.9159 6.386C79.4839 6.674 79.1419 7.07 78.8899 7.574C78.6499 8.066 78.5299 8.63 78.5299 9.266C78.5299 9.89 78.6499 10.454 78.8899 10.958C79.1419 11.462 79.4839 11.858 79.9159 12.146C80.3479 12.434 80.8459 12.578 81.4099 12.578ZM96.7421 12.758H96.7241C96.3401 13.13 95.8121 13.46 95.1401 13.748C94.4681 14.036 93.7661 14.18 93.0341 14.18C92.0501 14.18 91.1801 13.976 90.4241 13.568C89.6801 13.148 89.0981 12.578 88.6781 11.858C88.2581 11.126 88.0481 10.298 88.0481 9.374C88.0481 8.318 88.2701 7.418 88.7141 6.674C89.1581 5.918 89.7461 5.342 90.4781 4.946C91.2101 4.538 92.0081 4.334 92.8721 4.334C93.6641 4.334 94.3841 4.532 95.0321 4.928C95.6801 5.312 96.1961 5.846 96.5801 6.53C96.9641 7.214 97.1561 8.012 97.1561 8.924L97.1381 9.716H89.9021C90.0101 10.568 90.3581 11.246 90.9461 11.75C91.5461 12.242 92.3021 12.488 93.2141 12.488C93.8741 12.488 94.4081 12.368 94.8161 12.128C95.2241 11.876 95.5601 11.636 95.8241 11.408L96.7421 12.758ZM92.8721 6.044C92.1641 6.044 91.5461 6.212 91.0181 6.548C90.4901 6.872 90.1421 7.436 89.9741 8.24H95.2661V8.114C95.2301 7.706 95.0921 7.346 94.8521 7.034C94.6241 6.722 94.3361 6.482 93.9881 6.314C93.6401 6.134 93.2681 6.044 92.8721 6.044ZM104.463 6.548C104.343 6.488 104.193 6.44 104.013 6.404C103.845 6.356 103.665 6.332 103.473 6.332C103.089 6.332 102.711 6.434 102.339 6.638C101.967 6.83 101.655 7.112 101.403 7.484C101.163 7.844 101.043 8.276 101.043 8.78V14H99.171V4.55H101.043V6.332C101.307 5.756 101.703 5.282 102.231 4.91C102.771 4.538 103.335 4.352 103.923 4.352C104.367 4.352 104.709 4.412 104.949 4.532L104.463 6.548ZM116.876 1.4C117.848 1.4 118.7 1.568 119.432 1.904C120.176 2.228 120.794 2.684 121.286 3.272C121.778 3.848 122.15 4.52 122.402 5.288C122.654 6.044 122.78 6.848 122.78 7.7C122.78 8.852 122.558 9.908 122.114 10.868C121.67 11.816 121.01 12.578 120.134 13.154C119.258 13.718 118.172 14 116.876 14H111.944V1.4H116.876ZM116.786 12.128C117.734 12.128 118.502 11.93 119.09 11.534C119.678 11.126 120.11 10.586 120.386 9.914C120.662 9.242 120.8 8.504 120.8 7.7C120.8 6.908 120.662 6.176 120.386 5.504C120.11 4.832 119.678 4.292 119.09 3.884C118.502 3.476 117.734 3.272 116.786 3.272H113.888V12.128H116.786ZM133.059 12.758H133.041C132.657 13.13 132.129 13.46 131.457 13.748C130.785 14.036 130.083 14.18 129.351 14.18C128.367 14.18 127.497 13.976 126.741 13.568C125.997 13.148 125.415 12.578 124.995 11.858C124.575 11.126 124.365 10.298 124.365 9.374C124.365 8.318 124.587 7.418 125.031 6.674C125.475 5.918 126.063 5.342 126.795 4.946C127.527 4.538 128.325 4.334 129.189 4.334C129.981 4.334 130.701 4.532 131.349 4.928C131.997 5.312 132.513 5.846 132.897 6.53C133.281 7.214 133.473 8.012 133.473 8.924L133.455 9.716H126.219C126.327 10.568 126.675 11.246 127.263 11.75C127.863 12.242 128.619 12.488 129.531 12.488C130.191 12.488 130.725 12.368 131.133 12.128C131.541 11.876 131.877 11.636 132.141 11.408L133.059 12.758ZM129.189 6.044C128.481 6.044 127.863 6.212 127.335 6.548C126.807 6.872 126.459 7.436 126.291 8.24H131.583V8.114C131.547 7.706 131.409 7.346 131.169 7.034C130.941 6.722 130.653 6.482 130.305 6.314C129.957 6.134 129.585 6.044 129.189 6.044ZM140.293 4.388C141.073 4.388 141.697 4.568 142.165 4.928C142.633 5.276 142.969 5.756 143.173 6.368C143.341 6.068 143.587 5.768 143.911 5.468C144.235 5.156 144.613 4.898 145.045 4.694C145.477 4.49 145.939 4.388 146.431 4.388C147.247 4.388 147.883 4.568 148.339 4.928C148.795 5.276 149.113 5.75 149.293 6.35C149.485 6.938 149.581 7.598 149.581 8.33V14H147.709V8.438C147.709 7.742 147.577 7.178 147.313 6.746C147.049 6.314 146.551 6.098 145.819 6.098C145.123 6.098 144.547 6.32 144.091 6.764C143.647 7.196 143.425 7.724 143.425 8.348V14H141.553V8.402C141.553 7.73 141.409 7.178 141.121 6.746C140.833 6.314 140.359 6.098 139.699 6.098C139.243 6.098 138.835 6.2 138.475 6.404C138.115 6.608 137.833 6.878 137.629 7.214C137.425 7.538 137.323 7.904 137.323 8.312V14H135.451V4.55H137.323V6.062C137.611 5.63 138.013 5.246 138.529 4.91C139.057 4.562 139.645 4.388 140.293 4.388ZM161.118 9.266C161.118 10.226 160.902 11.078 160.47 11.822C160.05 12.554 159.474 13.13 158.742 13.55C158.022 13.97 157.212 14.18 156.312 14.18C155.412 14.18 154.596 13.97 153.864 13.55C153.132 13.13 152.55 12.554 152.118 11.822C151.698 11.078 151.488 10.226 151.488 9.266C151.488 8.306 151.698 7.46 152.118 6.728C152.55 5.984 153.132 5.402 153.864 4.982C154.596 4.562 155.412 4.352 156.312 4.352C157.212 4.352 158.022 4.562 158.742 4.982C159.474 5.402 160.05 5.984 160.47 6.728C160.902 7.46 161.118 8.306 161.118 9.266ZM159.228 9.266C159.24 8.63 159.114 8.072 158.85 7.592C158.598 7.1 158.25 6.722 157.806 6.458C157.362 6.182 156.864 6.044 156.312 6.044C155.76 6.044 155.256 6.182 154.8 6.458C154.356 6.722 154.002 7.1 153.738 7.592C153.486 8.072 153.366 8.63 153.378 9.266C153.366 9.89 153.486 10.448 153.738 10.94C154.002 11.42 154.356 11.798 154.8 12.074C155.256 12.35 155.76 12.488 156.312 12.488C156.864 12.488 157.362 12.35 157.806 12.074C158.25 11.798 158.598 11.42 158.85 10.94C159.114 10.448 159.24 9.89 159.228 9.266ZM164.326 9.266C164.326 9.89 164.464 10.448 164.74 10.94C165.028 11.42 165.4 11.804 165.856 12.092C166.324 12.368 166.822 12.506 167.35 12.506C167.95 12.506 168.472 12.35 168.916 12.038C169.36 11.726 169.72 11.402 169.996 11.066L171.022 12.326C170.794 12.65 170.482 12.956 170.086 13.244C169.69 13.52 169.24 13.748 168.736 13.928C168.232 14.096 167.704 14.18 167.152 14.18C166.288 14.18 165.508 13.964 164.812 13.532C164.116 13.1 163.564 12.512 163.156 11.768C162.76 11.024 162.562 10.19 162.562 9.266C162.562 8.33 162.76 7.496 163.156 6.764C163.564 6.02 164.116 5.432 164.812 5C165.508 4.568 166.288 4.352 167.152 4.352C168.028 4.352 168.808 4.532 169.492 4.892C170.176 5.24 170.686 5.696 171.022 6.26L169.996 7.52C169.72 7.112 169.324 6.764 168.808 6.476C168.304 6.176 167.812 6.026 167.332 6.026C166.768 6.026 166.258 6.17 165.802 6.458C165.346 6.734 164.986 7.118 164.722 7.61C164.458 8.09 164.326 8.642 164.326 9.266ZM178.063 6.548C177.943 6.488 177.793 6.44 177.613 6.404C177.445 6.356 177.265 6.332 177.073 6.332C176.689 6.332 176.311 6.434 175.939 6.638C175.567 6.83 175.255 7.112 175.003 7.484C174.763 7.844 174.643 8.276 174.643 8.78V14H172.771V4.55H174.643V6.332C174.907 5.756 175.303 5.282 175.831 4.91C176.371 4.538 176.935 4.352 177.523 4.352C177.967 4.352 178.309 4.412 178.549 4.532L178.063 6.548ZM188.428 4.55V14H186.556V12.542C186.268 12.938 185.842 13.31 185.278 13.658C184.714 14.006 184.06 14.18 183.316 14.18C182.524 14.18 181.798 13.97 181.138 13.55C180.49 13.13 179.974 12.548 179.59 11.804C179.206 11.06 179.014 10.208 179.014 9.248C179.014 8.288 179.212 7.442 179.608 6.71C180.004 5.966 180.55 5.39 181.246 4.982C181.942 4.562 182.734 4.352 183.622 4.352C184.282 4.352 184.858 4.496 185.35 4.784C185.854 5.072 186.256 5.408 186.556 5.792V4.55H188.428ZM183.748 12.47C184.324 12.47 184.828 12.332 185.26 12.056C185.692 11.768 186.028 11.384 186.268 10.904C186.508 10.412 186.628 9.86 186.628 9.248C186.628 8.648 186.508 8.108 186.268 7.628C186.028 7.148 185.692 6.77 185.26 6.494C184.828 6.206 184.324 6.062 183.748 6.062C183.196 6.062 182.704 6.2 182.272 6.476C181.84 6.752 181.504 7.13 181.264 7.61C181.024 8.09 180.904 8.636 180.904 9.248C180.904 9.86 181.024 10.412 181.264 10.904C181.504 11.384 181.84 11.768 182.272 12.056C182.704 12.332 183.196 12.47 183.748 12.47ZM192.205 9.266C192.205 9.89 192.343 10.448 192.619 10.94C192.907 11.42 193.279 11.804 193.735 12.092C194.203 12.368 194.701 12.506 195.229 12.506C195.829 12.506 196.351 12.35 196.795 12.038C197.239 11.726 197.599 11.402 197.875 11.066L198.901 12.326C198.673 12.65 198.361 12.956 197.965 13.244C197.569 13.52 197.119 13.748 196.615 13.928C196.111 14.096 195.583 14.18 195.031 14.18C194.167 14.18 193.387 13.964 192.691 13.532C191.995 13.1 191.443 12.512 191.035 11.768C190.639 11.024 190.441 10.19 190.441 9.266C190.441 8.33 190.639 7.496 191.035 6.764C191.443 6.02 191.995 5.432 192.691 5C193.387 4.568 194.167 4.352 195.031 4.352C195.907 4.352 196.687 4.532 197.371 4.892C198.055 5.24 198.565 5.696 198.901 6.26L197.875 7.52C197.599 7.112 197.203 6.764 196.687 6.476C196.183 6.176 195.691 6.026 195.211 6.026C194.647 6.026 194.137 6.17 193.681 6.458C193.225 6.734 192.865 7.118 192.601 7.61C192.337 8.09 192.205 8.642 192.205 9.266ZM201.97 18.14L203.518 14.594L203.572 14.468L199.18 4.55H201.34L204.292 11.498C204.328 11.57 204.364 11.66 204.4 11.768C204.436 11.876 204.478 11.996 204.526 12.128C204.574 11.996 204.616 11.87 204.652 11.75C204.7 11.618 204.748 11.492 204.796 11.372L207.262 4.55H209.458L205.57 14L203.968 18.14H201.97Z" fill="#3C3C3C"/>
</svg>
