<svg width="40" height="42" viewBox="0 0 40 42" fill="none" xmlns="http://www.w3.org/2000/svg">
<path d="M15.8784 1.12322C18.4646 -0.20904 21.5353 -0.209041 24.1215 1.12322L29.7899 4.04327L35.153 7.49227C37.5999 9.06586 39.1352 11.7251 39.2745 14.631L39.5799 21L39.2745 27.3691C39.1352 30.2749 37.5999 32.9342 35.153 34.5078L29.7899 37.9568L24.1215 40.8769C21.5353 42.2091 18.4646 42.2091 15.8784 40.8769L10.2099 37.9568L4.84685 34.5078C2.39998 32.9342 0.864646 30.2749 0.725313 27.3691L0.419922 21L0.725313 14.631C0.864646 11.7251 2.39998 9.06586 4.84685 7.49227L10.2099 4.04327L15.8784 1.12322Z" fill="white"/>
</svg>
