<svg width="50" height="54" viewBox="0 0 50 54" fill="none" xmlns="http://www.w3.org/2000/svg">
<path d="M20.8785 1.12322C23.4647 -0.209041 26.5354 -0.209041 29.1216 1.12322L37.4601 5.41869L45.3493 10.4923C47.7962 12.0659 49.3315 14.7251 49.4708 17.631L49.9201 27L49.4708 36.3691C49.3315 39.2749 47.7962 41.9342 45.3493 43.5078L37.4601 48.5814L29.1216 52.8769C26.5354 54.2091 23.4647 54.2091 20.8785 52.8769L12.5401 48.5814L4.65086 43.5078C2.20399 41.9342 0.66865 39.275 0.529317 36.3691L0.0800781 27L0.529317 17.631C0.66865 14.7251 2.20399 12.0659 4.65086 10.4923L12.5401 5.41869L20.8785 1.12322Z" fill="#FF9066"/>
</svg>
